G04 #@! TF.GenerationSoftware,KiCad,Pcbnew,(5.1.4)-1*
G04 #@! TF.CreationDate,2019-09-26T19:24:03+02:00*
G04 #@! TF.ProjectId,Konami-2_DE10Nano_adapter_V1_2,4b6f6e61-6d69-42d3-925f-444531304e61,1.1*
G04 #@! TF.SameCoordinates,Original*
G04 #@! TF.FileFunction,Legend,Top*
G04 #@! TF.FilePolarity,Positive*
%FSLAX46Y46*%
G04 Gerber Fmt 4.6, Leading zero omitted, Abs format (unit mm)*
G04 Created by KiCad (PCBNEW (5.1.4)-1) date 2019-09-26 19:24:03*
%MOMM*%
%LPD*%
G04 APERTURE LIST*
%ADD10C,0.150000*%
%ADD11C,0.120000*%
%ADD12C,0.010000*%
%ADD13C,0.101600*%
G04 APERTURE END LIST*
D10*
X217090785Y-73858428D02*
X217852690Y-73858428D01*
X217471738Y-74239380D02*
X217471738Y-73477476D01*
X218805071Y-73239380D02*
X218328880Y-73239380D01*
X218281261Y-73715571D01*
X218328880Y-73667952D01*
X218424119Y-73620333D01*
X218662214Y-73620333D01*
X218757452Y-73667952D01*
X218805071Y-73715571D01*
X218852690Y-73810809D01*
X218852690Y-74048904D01*
X218805071Y-74144142D01*
X218757452Y-74191761D01*
X218662214Y-74239380D01*
X218424119Y-74239380D01*
X218328880Y-74191761D01*
X218281261Y-74144142D01*
X219138404Y-73239380D02*
X219471738Y-74239380D01*
X219805071Y-73239380D01*
X207010095Y-73414000D02*
X206914857Y-73366380D01*
X206772000Y-73366380D01*
X206629142Y-73414000D01*
X206533904Y-73509238D01*
X206486285Y-73604476D01*
X206438666Y-73794952D01*
X206438666Y-73937809D01*
X206486285Y-74128285D01*
X206533904Y-74223523D01*
X206629142Y-74318761D01*
X206772000Y-74366380D01*
X206867238Y-74366380D01*
X207010095Y-74318761D01*
X207057714Y-74271142D01*
X207057714Y-73937809D01*
X206867238Y-73937809D01*
X207486285Y-74366380D02*
X207486285Y-73366380D01*
X208057714Y-74366380D01*
X208057714Y-73366380D01*
X208533904Y-74366380D02*
X208533904Y-73366380D01*
X208772000Y-73366380D01*
X208914857Y-73414000D01*
X209010095Y-73509238D01*
X209057714Y-73604476D01*
X209105333Y-73794952D01*
X209105333Y-73937809D01*
X209057714Y-74128285D01*
X209010095Y-74223523D01*
X208914857Y-74318761D01*
X208772000Y-74366380D01*
X208533904Y-74366380D01*
X215058785Y-96845428D02*
X215820690Y-96845428D01*
X215439738Y-97226380D02*
X215439738Y-96464476D01*
X216773071Y-96226380D02*
X216296880Y-96226380D01*
X216249261Y-96702571D01*
X216296880Y-96654952D01*
X216392119Y-96607333D01*
X216630214Y-96607333D01*
X216725452Y-96654952D01*
X216773071Y-96702571D01*
X216820690Y-96797809D01*
X216820690Y-97035904D01*
X216773071Y-97131142D01*
X216725452Y-97178761D01*
X216630214Y-97226380D01*
X216392119Y-97226380D01*
X216296880Y-97178761D01*
X216249261Y-97131142D01*
X217106404Y-96226380D02*
X217439738Y-97226380D01*
X217773071Y-96226380D01*
X207010095Y-96274000D02*
X206914857Y-96226380D01*
X206772000Y-96226380D01*
X206629142Y-96274000D01*
X206533904Y-96369238D01*
X206486285Y-96464476D01*
X206438666Y-96654952D01*
X206438666Y-96797809D01*
X206486285Y-96988285D01*
X206533904Y-97083523D01*
X206629142Y-97178761D01*
X206772000Y-97226380D01*
X206867238Y-97226380D01*
X207010095Y-97178761D01*
X207057714Y-97131142D01*
X207057714Y-96797809D01*
X206867238Y-96797809D01*
X207486285Y-97226380D02*
X207486285Y-96226380D01*
X208057714Y-97226380D01*
X208057714Y-96226380D01*
X208533904Y-97226380D02*
X208533904Y-96226380D01*
X208772000Y-96226380D01*
X208914857Y-96274000D01*
X209010095Y-96369238D01*
X209057714Y-96464476D01*
X209105333Y-96654952D01*
X209105333Y-96797809D01*
X209057714Y-96988285D01*
X209010095Y-97083523D01*
X208914857Y-97178761D01*
X208772000Y-97226380D01*
X208533904Y-97226380D01*
X242395666Y-109926380D02*
X242395666Y-108926380D01*
X242633761Y-108926380D01*
X242776619Y-108974000D01*
X242871857Y-109069238D01*
X242919476Y-109164476D01*
X242967095Y-109354952D01*
X242967095Y-109497809D01*
X242919476Y-109688285D01*
X242871857Y-109783523D01*
X242776619Y-109878761D01*
X242633761Y-109926380D01*
X242395666Y-109926380D01*
X243919476Y-109926380D02*
X243348047Y-109926380D01*
X243633761Y-109926380D02*
X243633761Y-108926380D01*
X243538523Y-109069238D01*
X243443285Y-109164476D01*
X243348047Y-109212095D01*
X244348047Y-109545428D02*
X245109952Y-109545428D01*
X245586142Y-109926380D02*
X245586142Y-108926380D01*
X245824238Y-108926380D01*
X245967095Y-108974000D01*
X246062333Y-109069238D01*
X246109952Y-109164476D01*
X246157571Y-109354952D01*
X246157571Y-109497809D01*
X246109952Y-109688285D01*
X246062333Y-109783523D01*
X245967095Y-109878761D01*
X245824238Y-109926380D01*
X245586142Y-109926380D01*
X246776619Y-108926380D02*
X246871857Y-108926380D01*
X246967095Y-108974000D01*
X247014714Y-109021619D01*
X247062333Y-109116857D01*
X247109952Y-109307333D01*
X247109952Y-109545428D01*
X247062333Y-109735904D01*
X247014714Y-109831142D01*
X246967095Y-109878761D01*
X246871857Y-109926380D01*
X246776619Y-109926380D01*
X246681380Y-109878761D01*
X246633761Y-109831142D01*
X246586142Y-109735904D01*
X246538523Y-109545428D01*
X246538523Y-109307333D01*
X246586142Y-109116857D01*
X246633761Y-109021619D01*
X246681380Y-108974000D01*
X246776619Y-108926380D01*
X242395666Y-107386380D02*
X242395666Y-106386380D01*
X242633761Y-106386380D01*
X242776619Y-106434000D01*
X242871857Y-106529238D01*
X242919476Y-106624476D01*
X242967095Y-106814952D01*
X242967095Y-106957809D01*
X242919476Y-107148285D01*
X242871857Y-107243523D01*
X242776619Y-107338761D01*
X242633761Y-107386380D01*
X242395666Y-107386380D01*
X243300428Y-106386380D02*
X243919476Y-106386380D01*
X243586142Y-106767333D01*
X243729000Y-106767333D01*
X243824238Y-106814952D01*
X243871857Y-106862571D01*
X243919476Y-106957809D01*
X243919476Y-107195904D01*
X243871857Y-107291142D01*
X243824238Y-107338761D01*
X243729000Y-107386380D01*
X243443285Y-107386380D01*
X243348047Y-107338761D01*
X243300428Y-107291142D01*
X244348047Y-107005428D02*
X245109952Y-107005428D01*
X245586142Y-107386380D02*
X245586142Y-106386380D01*
X245824238Y-106386380D01*
X245967095Y-106434000D01*
X246062333Y-106529238D01*
X246109952Y-106624476D01*
X246157571Y-106814952D01*
X246157571Y-106957809D01*
X246109952Y-107148285D01*
X246062333Y-107243523D01*
X245967095Y-107338761D01*
X245824238Y-107386380D01*
X245586142Y-107386380D01*
X246538523Y-106481619D02*
X246586142Y-106434000D01*
X246681380Y-106386380D01*
X246919476Y-106386380D01*
X247014714Y-106434000D01*
X247062333Y-106481619D01*
X247109952Y-106576857D01*
X247109952Y-106672095D01*
X247062333Y-106814952D01*
X246490904Y-107386380D01*
X247109952Y-107386380D01*
X242395666Y-104846380D02*
X242395666Y-103846380D01*
X242633761Y-103846380D01*
X242776619Y-103894000D01*
X242871857Y-103989238D01*
X242919476Y-104084476D01*
X242967095Y-104274952D01*
X242967095Y-104417809D01*
X242919476Y-104608285D01*
X242871857Y-104703523D01*
X242776619Y-104798761D01*
X242633761Y-104846380D01*
X242395666Y-104846380D01*
X243871857Y-103846380D02*
X243395666Y-103846380D01*
X243348047Y-104322571D01*
X243395666Y-104274952D01*
X243490904Y-104227333D01*
X243729000Y-104227333D01*
X243824238Y-104274952D01*
X243871857Y-104322571D01*
X243919476Y-104417809D01*
X243919476Y-104655904D01*
X243871857Y-104751142D01*
X243824238Y-104798761D01*
X243729000Y-104846380D01*
X243490904Y-104846380D01*
X243395666Y-104798761D01*
X243348047Y-104751142D01*
X244348047Y-104465428D02*
X245109952Y-104465428D01*
X245586142Y-104846380D02*
X245586142Y-103846380D01*
X245824238Y-103846380D01*
X245967095Y-103894000D01*
X246062333Y-103989238D01*
X246109952Y-104084476D01*
X246157571Y-104274952D01*
X246157571Y-104417809D01*
X246109952Y-104608285D01*
X246062333Y-104703523D01*
X245967095Y-104798761D01*
X245824238Y-104846380D01*
X245586142Y-104846380D01*
X247014714Y-104179714D02*
X247014714Y-104846380D01*
X246776619Y-103798761D02*
X246538523Y-104513047D01*
X247157571Y-104513047D01*
X242395666Y-102306380D02*
X242395666Y-101306380D01*
X242633761Y-101306380D01*
X242776619Y-101354000D01*
X242871857Y-101449238D01*
X242919476Y-101544476D01*
X242967095Y-101734952D01*
X242967095Y-101877809D01*
X242919476Y-102068285D01*
X242871857Y-102163523D01*
X242776619Y-102258761D01*
X242633761Y-102306380D01*
X242395666Y-102306380D01*
X243300428Y-101306380D02*
X243967095Y-101306380D01*
X243538523Y-102306380D01*
X244348047Y-101925428D02*
X245109952Y-101925428D01*
X245586142Y-102306380D02*
X245586142Y-101306380D01*
X245824238Y-101306380D01*
X245967095Y-101354000D01*
X246062333Y-101449238D01*
X246109952Y-101544476D01*
X246157571Y-101734952D01*
X246157571Y-101877809D01*
X246109952Y-102068285D01*
X246062333Y-102163523D01*
X245967095Y-102258761D01*
X245824238Y-102306380D01*
X245586142Y-102306380D01*
X247014714Y-101306380D02*
X246824238Y-101306380D01*
X246729000Y-101354000D01*
X246681380Y-101401619D01*
X246586142Y-101544476D01*
X246538523Y-101734952D01*
X246538523Y-102115904D01*
X246586142Y-102211142D01*
X246633761Y-102258761D01*
X246729000Y-102306380D01*
X246919476Y-102306380D01*
X247014714Y-102258761D01*
X247062333Y-102211142D01*
X247109952Y-102115904D01*
X247109952Y-101877809D01*
X247062333Y-101782571D01*
X247014714Y-101734952D01*
X246919476Y-101687333D01*
X246729000Y-101687333D01*
X246633761Y-101734952D01*
X246586142Y-101782571D01*
X246538523Y-101877809D01*
X241538523Y-99607666D02*
X242014714Y-99607666D01*
X241443285Y-99893380D02*
X241776619Y-98893380D01*
X242109952Y-99893380D01*
X242967095Y-99893380D02*
X242395666Y-99893380D01*
X242681380Y-99893380D02*
X242681380Y-98893380D01*
X242586142Y-99036238D01*
X242490904Y-99131476D01*
X242395666Y-99179095D01*
X243443285Y-99893380D02*
X243633761Y-99893380D01*
X243729000Y-99845761D01*
X243776619Y-99798142D01*
X243871857Y-99655285D01*
X243919476Y-99464809D01*
X243919476Y-99083857D01*
X243871857Y-98988619D01*
X243824238Y-98941000D01*
X243729000Y-98893380D01*
X243538523Y-98893380D01*
X243443285Y-98941000D01*
X243395666Y-98988619D01*
X243348047Y-99083857D01*
X243348047Y-99321952D01*
X243395666Y-99417190D01*
X243443285Y-99464809D01*
X243538523Y-99512428D01*
X243729000Y-99512428D01*
X243824238Y-99464809D01*
X243871857Y-99417190D01*
X243919476Y-99321952D01*
X244348047Y-99512428D02*
X245109952Y-99512428D01*
X245538523Y-99607666D02*
X246014714Y-99607666D01*
X245443285Y-99893380D02*
X245776619Y-98893380D01*
X246109952Y-99893380D01*
X246395666Y-98988619D02*
X246443285Y-98941000D01*
X246538523Y-98893380D01*
X246776619Y-98893380D01*
X246871857Y-98941000D01*
X246919476Y-98988619D01*
X246967095Y-99083857D01*
X246967095Y-99179095D01*
X246919476Y-99321952D01*
X246348047Y-99893380D01*
X246967095Y-99893380D01*
X247586142Y-98893380D02*
X247681380Y-98893380D01*
X247776619Y-98941000D01*
X247824238Y-98988619D01*
X247871857Y-99083857D01*
X247919476Y-99274333D01*
X247919476Y-99512428D01*
X247871857Y-99702904D01*
X247824238Y-99798142D01*
X247776619Y-99845761D01*
X247681380Y-99893380D01*
X247586142Y-99893380D01*
X247490904Y-99845761D01*
X247443285Y-99798142D01*
X247395666Y-99702904D01*
X247348047Y-99512428D01*
X247348047Y-99274333D01*
X247395666Y-99083857D01*
X247443285Y-98988619D01*
X247490904Y-98941000D01*
X247586142Y-98893380D01*
X241300428Y-96845428D02*
X242062333Y-96845428D01*
X241681380Y-97226380D02*
X241681380Y-96464476D01*
X243014714Y-96226380D02*
X242538523Y-96226380D01*
X242490904Y-96702571D01*
X242538523Y-96654952D01*
X242633761Y-96607333D01*
X242871857Y-96607333D01*
X242967095Y-96654952D01*
X243014714Y-96702571D01*
X243062333Y-96797809D01*
X243062333Y-97035904D01*
X243014714Y-97131142D01*
X242967095Y-97178761D01*
X242871857Y-97226380D01*
X242633761Y-97226380D01*
X242538523Y-97178761D01*
X242490904Y-97131142D01*
X243348047Y-96226380D02*
X243681380Y-97226380D01*
X244014714Y-96226380D01*
X244348047Y-96845428D02*
X245109952Y-96845428D01*
X246109952Y-96274000D02*
X246014714Y-96226380D01*
X245871857Y-96226380D01*
X245729000Y-96274000D01*
X245633761Y-96369238D01*
X245586142Y-96464476D01*
X245538523Y-96654952D01*
X245538523Y-96797809D01*
X245586142Y-96988285D01*
X245633761Y-97083523D01*
X245729000Y-97178761D01*
X245871857Y-97226380D01*
X245967095Y-97226380D01*
X246109952Y-97178761D01*
X246157571Y-97131142D01*
X246157571Y-96797809D01*
X245967095Y-96797809D01*
X246586142Y-97226380D02*
X246586142Y-96226380D01*
X247157571Y-97226380D01*
X247157571Y-96226380D01*
X247633761Y-97226380D02*
X247633761Y-96226380D01*
X247871857Y-96226380D01*
X248014714Y-96274000D01*
X248109952Y-96369238D01*
X248157571Y-96464476D01*
X248205190Y-96654952D01*
X248205190Y-96797809D01*
X248157571Y-96988285D01*
X248109952Y-97083523D01*
X248014714Y-97178761D01*
X247871857Y-97226380D01*
X247633761Y-97226380D01*
X241538523Y-94400666D02*
X242014714Y-94400666D01*
X241443285Y-94686380D02*
X241776619Y-93686380D01*
X242109952Y-94686380D01*
X242967095Y-94686380D02*
X242395666Y-94686380D01*
X242681380Y-94686380D02*
X242681380Y-93686380D01*
X242586142Y-93829238D01*
X242490904Y-93924476D01*
X242395666Y-93972095D01*
X243300428Y-93686380D02*
X243967095Y-93686380D01*
X243538523Y-94686380D01*
X244348047Y-94305428D02*
X245109952Y-94305428D01*
X245538523Y-94400666D02*
X246014714Y-94400666D01*
X245443285Y-94686380D02*
X245776619Y-93686380D01*
X246109952Y-94686380D01*
X246967095Y-94686380D02*
X246395666Y-94686380D01*
X246681380Y-94686380D02*
X246681380Y-93686380D01*
X246586142Y-93829238D01*
X246490904Y-93924476D01*
X246395666Y-93972095D01*
X247538523Y-94114952D02*
X247443285Y-94067333D01*
X247395666Y-94019714D01*
X247348047Y-93924476D01*
X247348047Y-93876857D01*
X247395666Y-93781619D01*
X247443285Y-93734000D01*
X247538523Y-93686380D01*
X247729000Y-93686380D01*
X247824238Y-93734000D01*
X247871857Y-93781619D01*
X247919476Y-93876857D01*
X247919476Y-93924476D01*
X247871857Y-94019714D01*
X247824238Y-94067333D01*
X247729000Y-94114952D01*
X247538523Y-94114952D01*
X247443285Y-94162571D01*
X247395666Y-94210190D01*
X247348047Y-94305428D01*
X247348047Y-94495904D01*
X247395666Y-94591142D01*
X247443285Y-94638761D01*
X247538523Y-94686380D01*
X247729000Y-94686380D01*
X247824238Y-94638761D01*
X247871857Y-94591142D01*
X247919476Y-94495904D01*
X247919476Y-94305428D01*
X247871857Y-94210190D01*
X247824238Y-94162571D01*
X247729000Y-94114952D01*
X241538523Y-91860666D02*
X242014714Y-91860666D01*
X241443285Y-92146380D02*
X241776619Y-91146380D01*
X242109952Y-92146380D01*
X242967095Y-92146380D02*
X242395666Y-92146380D01*
X242681380Y-92146380D02*
X242681380Y-91146380D01*
X242586142Y-91289238D01*
X242490904Y-91384476D01*
X242395666Y-91432095D01*
X243871857Y-91146380D02*
X243395666Y-91146380D01*
X243348047Y-91622571D01*
X243395666Y-91574952D01*
X243490904Y-91527333D01*
X243729000Y-91527333D01*
X243824238Y-91574952D01*
X243871857Y-91622571D01*
X243919476Y-91717809D01*
X243919476Y-91955904D01*
X243871857Y-92051142D01*
X243824238Y-92098761D01*
X243729000Y-92146380D01*
X243490904Y-92146380D01*
X243395666Y-92098761D01*
X243348047Y-92051142D01*
X244348047Y-91765428D02*
X245109952Y-91765428D01*
X245538523Y-91860666D02*
X246014714Y-91860666D01*
X245443285Y-92146380D02*
X245776619Y-91146380D01*
X246109952Y-92146380D01*
X246967095Y-92146380D02*
X246395666Y-92146380D01*
X246681380Y-92146380D02*
X246681380Y-91146380D01*
X246586142Y-91289238D01*
X246490904Y-91384476D01*
X246395666Y-91432095D01*
X247824238Y-91146380D02*
X247633761Y-91146380D01*
X247538523Y-91194000D01*
X247490904Y-91241619D01*
X247395666Y-91384476D01*
X247348047Y-91574952D01*
X247348047Y-91955904D01*
X247395666Y-92051142D01*
X247443285Y-92098761D01*
X247538523Y-92146380D01*
X247729000Y-92146380D01*
X247824238Y-92098761D01*
X247871857Y-92051142D01*
X247919476Y-91955904D01*
X247919476Y-91717809D01*
X247871857Y-91622571D01*
X247824238Y-91574952D01*
X247729000Y-91527333D01*
X247538523Y-91527333D01*
X247443285Y-91574952D01*
X247395666Y-91622571D01*
X247348047Y-91717809D01*
X241538523Y-89320666D02*
X242014714Y-89320666D01*
X241443285Y-89606380D02*
X241776619Y-88606380D01*
X242109952Y-89606380D01*
X242967095Y-89606380D02*
X242395666Y-89606380D01*
X242681380Y-89606380D02*
X242681380Y-88606380D01*
X242586142Y-88749238D01*
X242490904Y-88844476D01*
X242395666Y-88892095D01*
X243300428Y-88606380D02*
X243919476Y-88606380D01*
X243586142Y-88987333D01*
X243729000Y-88987333D01*
X243824238Y-89034952D01*
X243871857Y-89082571D01*
X243919476Y-89177809D01*
X243919476Y-89415904D01*
X243871857Y-89511142D01*
X243824238Y-89558761D01*
X243729000Y-89606380D01*
X243443285Y-89606380D01*
X243348047Y-89558761D01*
X243300428Y-89511142D01*
X244348047Y-89225428D02*
X245109952Y-89225428D01*
X245538523Y-89320666D02*
X246014714Y-89320666D01*
X245443285Y-89606380D02*
X245776619Y-88606380D01*
X246109952Y-89606380D01*
X246967095Y-89606380D02*
X246395666Y-89606380D01*
X246681380Y-89606380D02*
X246681380Y-88606380D01*
X246586142Y-88749238D01*
X246490904Y-88844476D01*
X246395666Y-88892095D01*
X247824238Y-88939714D02*
X247824238Y-89606380D01*
X247586142Y-88558761D02*
X247348047Y-89273047D01*
X247967095Y-89273047D01*
X241538523Y-86653666D02*
X242014714Y-86653666D01*
X241443285Y-86939380D02*
X241776619Y-85939380D01*
X242109952Y-86939380D01*
X242967095Y-86939380D02*
X242395666Y-86939380D01*
X242681380Y-86939380D02*
X242681380Y-85939380D01*
X242586142Y-86082238D01*
X242490904Y-86177476D01*
X242395666Y-86225095D01*
X243919476Y-86939380D02*
X243348047Y-86939380D01*
X243633761Y-86939380D02*
X243633761Y-85939380D01*
X243538523Y-86082238D01*
X243443285Y-86177476D01*
X243348047Y-86225095D01*
X244348047Y-86558428D02*
X245109952Y-86558428D01*
X245538523Y-86653666D02*
X246014714Y-86653666D01*
X245443285Y-86939380D02*
X245776619Y-85939380D01*
X246109952Y-86939380D01*
X246967095Y-86939380D02*
X246395666Y-86939380D01*
X246681380Y-86939380D02*
X246681380Y-85939380D01*
X246586142Y-86082238D01*
X246490904Y-86177476D01*
X246395666Y-86225095D01*
X247348047Y-86034619D02*
X247395666Y-85987000D01*
X247490904Y-85939380D01*
X247729000Y-85939380D01*
X247824238Y-85987000D01*
X247871857Y-86034619D01*
X247919476Y-86129857D01*
X247919476Y-86225095D01*
X247871857Y-86367952D01*
X247300428Y-86939380D01*
X247919476Y-86939380D01*
X242014714Y-84240666D02*
X242490904Y-84240666D01*
X241919476Y-84526380D02*
X242252809Y-83526380D01*
X242586142Y-84526380D01*
X242967095Y-84526380D02*
X243157571Y-84526380D01*
X243252809Y-84478761D01*
X243300428Y-84431142D01*
X243395666Y-84288285D01*
X243443285Y-84097809D01*
X243443285Y-83716857D01*
X243395666Y-83621619D01*
X243348047Y-83574000D01*
X243252809Y-83526380D01*
X243062333Y-83526380D01*
X242967095Y-83574000D01*
X242919476Y-83621619D01*
X242871857Y-83716857D01*
X242871857Y-83954952D01*
X242919476Y-84050190D01*
X242967095Y-84097809D01*
X243062333Y-84145428D01*
X243252809Y-84145428D01*
X243348047Y-84097809D01*
X243395666Y-84050190D01*
X243443285Y-83954952D01*
X243871857Y-84145428D02*
X244633761Y-84145428D01*
X245062333Y-84240666D02*
X245538523Y-84240666D01*
X244967095Y-84526380D02*
X245300428Y-83526380D01*
X245633761Y-84526380D01*
X246490904Y-84526380D02*
X245919476Y-84526380D01*
X246205190Y-84526380D02*
X246205190Y-83526380D01*
X246109952Y-83669238D01*
X246014714Y-83764476D01*
X245919476Y-83812095D01*
X247109952Y-83526380D02*
X247205190Y-83526380D01*
X247300428Y-83574000D01*
X247348047Y-83621619D01*
X247395666Y-83716857D01*
X247443285Y-83907333D01*
X247443285Y-84145428D01*
X247395666Y-84335904D01*
X247348047Y-84431142D01*
X247300428Y-84478761D01*
X247205190Y-84526380D01*
X247109952Y-84526380D01*
X247014714Y-84478761D01*
X246967095Y-84431142D01*
X246919476Y-84335904D01*
X246871857Y-84145428D01*
X246871857Y-83907333D01*
X246919476Y-83716857D01*
X246967095Y-83621619D01*
X247014714Y-83574000D01*
X247109952Y-83526380D01*
X242490904Y-81700666D02*
X242967095Y-81700666D01*
X242395666Y-81986380D02*
X242729000Y-80986380D01*
X243062333Y-81986380D01*
X243300428Y-80986380D02*
X243967095Y-80986380D01*
X243538523Y-81986380D01*
X244348047Y-81605428D02*
X245109952Y-81605428D01*
X245538523Y-81700666D02*
X246014714Y-81700666D01*
X245443285Y-81986380D02*
X245776619Y-80986380D01*
X246109952Y-81986380D01*
X246586142Y-81414952D02*
X246490904Y-81367333D01*
X246443285Y-81319714D01*
X246395666Y-81224476D01*
X246395666Y-81176857D01*
X246443285Y-81081619D01*
X246490904Y-81034000D01*
X246586142Y-80986380D01*
X246776619Y-80986380D01*
X246871857Y-81034000D01*
X246919476Y-81081619D01*
X246967095Y-81176857D01*
X246967095Y-81224476D01*
X246919476Y-81319714D01*
X246871857Y-81367333D01*
X246776619Y-81414952D01*
X246586142Y-81414952D01*
X246490904Y-81462571D01*
X246443285Y-81510190D01*
X246395666Y-81605428D01*
X246395666Y-81795904D01*
X246443285Y-81891142D01*
X246490904Y-81938761D01*
X246586142Y-81986380D01*
X246776619Y-81986380D01*
X246871857Y-81938761D01*
X246919476Y-81891142D01*
X246967095Y-81795904D01*
X246967095Y-81605428D01*
X246919476Y-81510190D01*
X246871857Y-81462571D01*
X246776619Y-81414952D01*
X242490904Y-79160666D02*
X242967095Y-79160666D01*
X242395666Y-79446380D02*
X242729000Y-78446380D01*
X243062333Y-79446380D01*
X243871857Y-78446380D02*
X243395666Y-78446380D01*
X243348047Y-78922571D01*
X243395666Y-78874952D01*
X243490904Y-78827333D01*
X243729000Y-78827333D01*
X243824238Y-78874952D01*
X243871857Y-78922571D01*
X243919476Y-79017809D01*
X243919476Y-79255904D01*
X243871857Y-79351142D01*
X243824238Y-79398761D01*
X243729000Y-79446380D01*
X243490904Y-79446380D01*
X243395666Y-79398761D01*
X243348047Y-79351142D01*
X244348047Y-79065428D02*
X245109952Y-79065428D01*
X245538523Y-79160666D02*
X246014714Y-79160666D01*
X245443285Y-79446380D02*
X245776619Y-78446380D01*
X246109952Y-79446380D01*
X246871857Y-78446380D02*
X246681380Y-78446380D01*
X246586142Y-78494000D01*
X246538523Y-78541619D01*
X246443285Y-78684476D01*
X246395666Y-78874952D01*
X246395666Y-79255904D01*
X246443285Y-79351142D01*
X246490904Y-79398761D01*
X246586142Y-79446380D01*
X246776619Y-79446380D01*
X246871857Y-79398761D01*
X246919476Y-79351142D01*
X246967095Y-79255904D01*
X246967095Y-79017809D01*
X246919476Y-78922571D01*
X246871857Y-78874952D01*
X246776619Y-78827333D01*
X246586142Y-78827333D01*
X246490904Y-78874952D01*
X246443285Y-78922571D01*
X246395666Y-79017809D01*
X242490904Y-76620666D02*
X242967095Y-76620666D01*
X242395666Y-76906380D02*
X242729000Y-75906380D01*
X243062333Y-76906380D01*
X243300428Y-75906380D02*
X243919476Y-75906380D01*
X243586142Y-76287333D01*
X243729000Y-76287333D01*
X243824238Y-76334952D01*
X243871857Y-76382571D01*
X243919476Y-76477809D01*
X243919476Y-76715904D01*
X243871857Y-76811142D01*
X243824238Y-76858761D01*
X243729000Y-76906380D01*
X243443285Y-76906380D01*
X243348047Y-76858761D01*
X243300428Y-76811142D01*
X244348047Y-76525428D02*
X245109952Y-76525428D01*
X245538523Y-76620666D02*
X246014714Y-76620666D01*
X245443285Y-76906380D02*
X245776619Y-75906380D01*
X246109952Y-76906380D01*
X246871857Y-76239714D02*
X246871857Y-76906380D01*
X246633761Y-75858761D02*
X246395666Y-76573047D01*
X247014714Y-76573047D01*
X241078238Y-73985428D02*
X241840142Y-73985428D01*
X241459190Y-74366380D02*
X241459190Y-73604476D01*
X242221095Y-73366380D02*
X242840142Y-73366380D01*
X242506809Y-73747333D01*
X242649666Y-73747333D01*
X242744904Y-73794952D01*
X242792523Y-73842571D01*
X242840142Y-73937809D01*
X242840142Y-74175904D01*
X242792523Y-74271142D01*
X242744904Y-74318761D01*
X242649666Y-74366380D01*
X242363952Y-74366380D01*
X242268714Y-74318761D01*
X242221095Y-74271142D01*
X243125857Y-73366380D02*
X243459190Y-74366380D01*
X243792523Y-73366380D01*
X244030619Y-73366380D02*
X244649666Y-73366380D01*
X244316333Y-73747333D01*
X244459190Y-73747333D01*
X244554428Y-73794952D01*
X244602047Y-73842571D01*
X244649666Y-73937809D01*
X244649666Y-74175904D01*
X244602047Y-74271142D01*
X244554428Y-74318761D01*
X244459190Y-74366380D01*
X244173476Y-74366380D01*
X244078238Y-74318761D01*
X244030619Y-74271142D01*
X245078238Y-73985428D02*
X245840142Y-73985428D01*
X246840142Y-73414000D02*
X246744904Y-73366380D01*
X246602047Y-73366380D01*
X246459190Y-73414000D01*
X246363952Y-73509238D01*
X246316333Y-73604476D01*
X246268714Y-73794952D01*
X246268714Y-73937809D01*
X246316333Y-74128285D01*
X246363952Y-74223523D01*
X246459190Y-74318761D01*
X246602047Y-74366380D01*
X246697285Y-74366380D01*
X246840142Y-74318761D01*
X246887761Y-74271142D01*
X246887761Y-73937809D01*
X246697285Y-73937809D01*
X247316333Y-74366380D02*
X247316333Y-73366380D01*
X247887761Y-74366380D01*
X247887761Y-73366380D01*
X248363952Y-74366380D02*
X248363952Y-73366380D01*
X248602047Y-73366380D01*
X248744904Y-73414000D01*
X248840142Y-73509238D01*
X248887761Y-73604476D01*
X248935380Y-73794952D01*
X248935380Y-73937809D01*
X248887761Y-74128285D01*
X248840142Y-74223523D01*
X248744904Y-74318761D01*
X248602047Y-74366380D01*
X248363952Y-74366380D01*
X242490904Y-71540666D02*
X242967095Y-71540666D01*
X242395666Y-71826380D02*
X242729000Y-70826380D01*
X243062333Y-71826380D01*
X243919476Y-71826380D02*
X243348047Y-71826380D01*
X243633761Y-71826380D02*
X243633761Y-70826380D01*
X243538523Y-70969238D01*
X243443285Y-71064476D01*
X243348047Y-71112095D01*
X244348047Y-71445428D02*
X245109952Y-71445428D01*
X245538523Y-71540666D02*
X246014714Y-71540666D01*
X245443285Y-71826380D02*
X245776619Y-70826380D01*
X246109952Y-71826380D01*
X246395666Y-70921619D02*
X246443285Y-70874000D01*
X246538523Y-70826380D01*
X246776619Y-70826380D01*
X246871857Y-70874000D01*
X246919476Y-70921619D01*
X246967095Y-71016857D01*
X246967095Y-71112095D01*
X246919476Y-71254952D01*
X246348047Y-71826380D01*
X246967095Y-71826380D01*
X242490904Y-69000666D02*
X242967095Y-69000666D01*
X242395666Y-69286380D02*
X242729000Y-68286380D01*
X243062333Y-69286380D01*
X243348047Y-69238761D02*
X243490904Y-69286380D01*
X243729000Y-69286380D01*
X243824238Y-69238761D01*
X243871857Y-69191142D01*
X243919476Y-69095904D01*
X243919476Y-69000666D01*
X243871857Y-68905428D01*
X243824238Y-68857809D01*
X243729000Y-68810190D01*
X243538523Y-68762571D01*
X243443285Y-68714952D01*
X243395666Y-68667333D01*
X243348047Y-68572095D01*
X243348047Y-68476857D01*
X243395666Y-68381619D01*
X243443285Y-68334000D01*
X243538523Y-68286380D01*
X243776619Y-68286380D01*
X243919476Y-68334000D01*
X244348047Y-68905428D02*
X245109952Y-68905428D01*
X245538523Y-69000666D02*
X246014714Y-69000666D01*
X245443285Y-69286380D02*
X245776619Y-68286380D01*
X246109952Y-69286380D01*
X246633761Y-68286380D02*
X246729000Y-68286380D01*
X246824238Y-68334000D01*
X246871857Y-68381619D01*
X246919476Y-68476857D01*
X246967095Y-68667333D01*
X246967095Y-68905428D01*
X246919476Y-69095904D01*
X246871857Y-69191142D01*
X246824238Y-69238761D01*
X246729000Y-69286380D01*
X246633761Y-69286380D01*
X246538523Y-69238761D01*
X246490904Y-69191142D01*
X246443285Y-69095904D01*
X246395666Y-68905428D01*
X246395666Y-68667333D01*
X246443285Y-68476857D01*
X246490904Y-68381619D01*
X246538523Y-68334000D01*
X246633761Y-68286380D01*
D11*
X240792000Y-59944000D02*
X248539000Y-59944000D01*
X240792000Y-60071000D02*
X240792000Y-59944000D01*
X240919000Y-110744000D02*
X248539000Y-110744000D01*
X240792000Y-60071000D02*
X240919000Y-110744000D01*
D10*
X241157571Y-65379000D02*
X242157571Y-65379000D01*
X241967095Y-66746380D02*
X241633761Y-66270190D01*
X241395666Y-66746380D02*
X241395666Y-65746380D01*
X241776619Y-65746380D01*
X241871857Y-65794000D01*
X241919476Y-65841619D01*
X241967095Y-65936857D01*
X241967095Y-66079714D01*
X241919476Y-66174952D01*
X241871857Y-66222571D01*
X241776619Y-66270190D01*
X241395666Y-66270190D01*
X242157571Y-65379000D02*
X243109952Y-65379000D01*
X242348047Y-66698761D02*
X242490904Y-66746380D01*
X242729000Y-66746380D01*
X242824238Y-66698761D01*
X242871857Y-66651142D01*
X242919476Y-66555904D01*
X242919476Y-66460666D01*
X242871857Y-66365428D01*
X242824238Y-66317809D01*
X242729000Y-66270190D01*
X242538523Y-66222571D01*
X242443285Y-66174952D01*
X242395666Y-66127333D01*
X242348047Y-66032095D01*
X242348047Y-65936857D01*
X242395666Y-65841619D01*
X242443285Y-65794000D01*
X242538523Y-65746380D01*
X242776619Y-65746380D01*
X242919476Y-65794000D01*
X243109952Y-65379000D02*
X243871857Y-65379000D01*
X243205190Y-65746380D02*
X243776619Y-65746380D01*
X243490904Y-66746380D02*
X243490904Y-65746380D01*
X244109952Y-66365428D02*
X244871857Y-66365428D01*
X245919476Y-66746380D02*
X245586142Y-66270190D01*
X245348047Y-66746380D02*
X245348047Y-65746380D01*
X245729000Y-65746380D01*
X245824238Y-65794000D01*
X245871857Y-65841619D01*
X245919476Y-65936857D01*
X245919476Y-66079714D01*
X245871857Y-66174952D01*
X245824238Y-66222571D01*
X245729000Y-66270190D01*
X245348047Y-66270190D01*
X247062333Y-65698761D02*
X246205190Y-66984476D01*
X247157571Y-65379000D02*
X248300428Y-65379000D01*
X247300428Y-65746380D02*
X247538523Y-66746380D01*
X247729000Y-66032095D01*
X247919476Y-66746380D01*
X248157571Y-65746380D01*
X241133761Y-64206380D02*
X241133761Y-63206380D01*
X241371857Y-63206380D01*
X241514714Y-63254000D01*
X241609952Y-63349238D01*
X241657571Y-63444476D01*
X241705190Y-63634952D01*
X241705190Y-63777809D01*
X241657571Y-63968285D01*
X241609952Y-64063523D01*
X241514714Y-64158761D01*
X241371857Y-64206380D01*
X241133761Y-64206380D01*
X241990904Y-63206380D02*
X242562333Y-63206380D01*
X242276619Y-64206380D02*
X242276619Y-63206380D01*
X242848047Y-63920666D02*
X243324238Y-63920666D01*
X242752809Y-64206380D02*
X243086142Y-63206380D01*
X243419476Y-64206380D01*
X244324238Y-64111142D02*
X244276619Y-64158761D01*
X244133761Y-64206380D01*
X244038523Y-64206380D01*
X243895666Y-64158761D01*
X243800428Y-64063523D01*
X243752809Y-63968285D01*
X243705190Y-63777809D01*
X243705190Y-63634952D01*
X243752809Y-63444476D01*
X243800428Y-63349238D01*
X243895666Y-63254000D01*
X244038523Y-63206380D01*
X244133761Y-63206380D01*
X244276619Y-63254000D01*
X244324238Y-63301619D01*
X244752809Y-63825428D02*
X245514714Y-63825428D01*
X246562333Y-64111142D02*
X246514714Y-64158761D01*
X246371857Y-64206380D01*
X246276619Y-64206380D01*
X246133761Y-64158761D01*
X246038523Y-64063523D01*
X245990904Y-63968285D01*
X245943285Y-63777809D01*
X245943285Y-63634952D01*
X245990904Y-63444476D01*
X246038523Y-63349238D01*
X246133761Y-63254000D01*
X246276619Y-63206380D01*
X246371857Y-63206380D01*
X246514714Y-63254000D01*
X246562333Y-63301619D01*
X247467095Y-64206380D02*
X246990904Y-64206380D01*
X246990904Y-63206380D01*
X247800428Y-64206380D02*
X247800428Y-63206380D01*
X248371857Y-64206380D02*
X247943285Y-63634952D01*
X248371857Y-63206380D02*
X247800428Y-63777809D01*
X241109952Y-60299000D02*
X241586142Y-60299000D01*
X241348047Y-61666380D02*
X241348047Y-60666380D01*
X241586142Y-60299000D02*
X242586142Y-60299000D01*
X242395666Y-61666380D02*
X242062333Y-61190190D01*
X241824238Y-61666380D02*
X241824238Y-60666380D01*
X242205190Y-60666380D01*
X242300428Y-60714000D01*
X242348047Y-60761619D01*
X242395666Y-60856857D01*
X242395666Y-60999714D01*
X242348047Y-61094952D01*
X242300428Y-61142571D01*
X242205190Y-61190190D01*
X241824238Y-61190190D01*
X242586142Y-60299000D02*
X243633761Y-60299000D01*
X243490904Y-61761619D02*
X243395666Y-61714000D01*
X243300428Y-61618761D01*
X243157571Y-61475904D01*
X243062333Y-61428285D01*
X242967095Y-61428285D01*
X243014714Y-61666380D02*
X242919476Y-61618761D01*
X242824238Y-61523523D01*
X242776619Y-61333047D01*
X242776619Y-60999714D01*
X242824238Y-60809238D01*
X242919476Y-60714000D01*
X243014714Y-60666380D01*
X243205190Y-60666380D01*
X243300428Y-60714000D01*
X243395666Y-60809238D01*
X243443285Y-60999714D01*
X243443285Y-61333047D01*
X243395666Y-61523523D01*
X243300428Y-61618761D01*
X243205190Y-61666380D01*
X243014714Y-61666380D01*
X243871857Y-61285428D02*
X244633761Y-61285428D01*
X244871857Y-60299000D02*
X245919476Y-60299000D01*
X245109952Y-61666380D02*
X245109952Y-60666380D01*
X245109952Y-61142571D02*
X245681380Y-61142571D01*
X245681380Y-61666380D02*
X245681380Y-60666380D01*
X245919476Y-60299000D02*
X246776619Y-60299000D01*
X246109952Y-61380666D02*
X246586142Y-61380666D01*
X246014714Y-61666380D02*
X246348047Y-60666380D01*
X246681380Y-61666380D01*
X246776619Y-60299000D02*
X247586142Y-60299000D01*
X247490904Y-61666380D02*
X247014714Y-61666380D01*
X247014714Y-60666380D01*
X247586142Y-60299000D02*
X248348047Y-60299000D01*
X247681380Y-60666380D02*
X248252809Y-60666380D01*
X247967095Y-61666380D02*
X247967095Y-60666380D01*
X237410761Y-125436380D02*
X237744095Y-126436380D01*
X238077428Y-125436380D01*
X238410761Y-126436380D02*
X238410761Y-125436380D01*
X238886952Y-126436380D02*
X238886952Y-125436380D01*
X239458380Y-126436380D01*
X239458380Y-125436380D01*
X242605085Y-125912571D02*
X242271752Y-125912571D01*
X242271752Y-126436380D02*
X242271752Y-125436380D01*
X242747942Y-125436380D01*
X243128895Y-126436380D02*
X243128895Y-125436380D01*
X243509847Y-125436380D01*
X243605085Y-125484000D01*
X243652704Y-125531619D01*
X243700323Y-125626857D01*
X243700323Y-125769714D01*
X243652704Y-125864952D01*
X243605085Y-125912571D01*
X243509847Y-125960190D01*
X243128895Y-125960190D01*
X244652704Y-125484000D02*
X244557466Y-125436380D01*
X244414609Y-125436380D01*
X244271752Y-125484000D01*
X244176514Y-125579238D01*
X244128895Y-125674476D01*
X244081276Y-125864952D01*
X244081276Y-126007809D01*
X244128895Y-126198285D01*
X244176514Y-126293523D01*
X244271752Y-126388761D01*
X244414609Y-126436380D01*
X244509847Y-126436380D01*
X244652704Y-126388761D01*
X244700323Y-126341142D01*
X244700323Y-126007809D01*
X244509847Y-126007809D01*
X245081276Y-126150666D02*
X245557466Y-126150666D01*
X244986038Y-126436380D02*
X245319371Y-125436380D01*
X245652704Y-126436380D01*
X209385352Y-116455180D02*
X209385352Y-115455180D01*
X209956780Y-116455180D02*
X209528209Y-115883752D01*
X209956780Y-115455180D02*
X209385352Y-116026609D01*
X210528209Y-116455180D02*
X210432971Y-116407561D01*
X210385352Y-116359942D01*
X210337733Y-116264704D01*
X210337733Y-115978990D01*
X210385352Y-115883752D01*
X210432971Y-115836133D01*
X210528209Y-115788514D01*
X210671066Y-115788514D01*
X210766304Y-115836133D01*
X210813923Y-115883752D01*
X210861542Y-115978990D01*
X210861542Y-116264704D01*
X210813923Y-116359942D01*
X210766304Y-116407561D01*
X210671066Y-116455180D01*
X210528209Y-116455180D01*
X211290114Y-115788514D02*
X211290114Y-116455180D01*
X211290114Y-115883752D02*
X211337733Y-115836133D01*
X211432971Y-115788514D01*
X211575828Y-115788514D01*
X211671066Y-115836133D01*
X211718685Y-115931371D01*
X211718685Y-116455180D01*
X212623447Y-116455180D02*
X212623447Y-115931371D01*
X212575828Y-115836133D01*
X212480590Y-115788514D01*
X212290114Y-115788514D01*
X212194876Y-115836133D01*
X212623447Y-116407561D02*
X212528209Y-116455180D01*
X212290114Y-116455180D01*
X212194876Y-116407561D01*
X212147257Y-116312323D01*
X212147257Y-116217085D01*
X212194876Y-116121847D01*
X212290114Y-116074228D01*
X212528209Y-116074228D01*
X212623447Y-116026609D01*
X213099638Y-116455180D02*
X213099638Y-115788514D01*
X213099638Y-115883752D02*
X213147257Y-115836133D01*
X213242495Y-115788514D01*
X213385352Y-115788514D01*
X213480590Y-115836133D01*
X213528209Y-115931371D01*
X213528209Y-116455180D01*
X213528209Y-115931371D02*
X213575828Y-115836133D01*
X213671066Y-115788514D01*
X213813923Y-115788514D01*
X213909161Y-115836133D01*
X213956780Y-115931371D01*
X213956780Y-116455180D01*
X214432971Y-116455180D02*
X214432971Y-115788514D01*
X214432971Y-115455180D02*
X214385352Y-115502800D01*
X214432971Y-115550419D01*
X214480590Y-115502800D01*
X214432971Y-115455180D01*
X214432971Y-115550419D01*
X214909161Y-116074228D02*
X215671066Y-116074228D01*
X216099638Y-115550419D02*
X216147257Y-115502800D01*
X216242495Y-115455180D01*
X216480590Y-115455180D01*
X216575828Y-115502800D01*
X216623447Y-115550419D01*
X216671066Y-115645657D01*
X216671066Y-115740895D01*
X216623447Y-115883752D01*
X216052019Y-116455180D01*
X216671066Y-116455180D01*
X208171066Y-118105180D02*
X208171066Y-117105180D01*
X208742495Y-118105180D01*
X208742495Y-117105180D01*
X209647257Y-118105180D02*
X209647257Y-117581371D01*
X209599638Y-117486133D01*
X209504400Y-117438514D01*
X209313923Y-117438514D01*
X209218685Y-117486133D01*
X209647257Y-118057561D02*
X209552019Y-118105180D01*
X209313923Y-118105180D01*
X209218685Y-118057561D01*
X209171066Y-117962323D01*
X209171066Y-117867085D01*
X209218685Y-117771847D01*
X209313923Y-117724228D01*
X209552019Y-117724228D01*
X209647257Y-117676609D01*
X210123447Y-117438514D02*
X210123447Y-118105180D01*
X210123447Y-117533752D02*
X210171066Y-117486133D01*
X210266304Y-117438514D01*
X210409161Y-117438514D01*
X210504400Y-117486133D01*
X210552019Y-117581371D01*
X210552019Y-118105180D01*
X211171066Y-118105180D02*
X211075828Y-118057561D01*
X211028209Y-118009942D01*
X210980590Y-117914704D01*
X210980590Y-117628990D01*
X211028209Y-117533752D01*
X211075828Y-117486133D01*
X211171066Y-117438514D01*
X211313923Y-117438514D01*
X211409161Y-117486133D01*
X211456780Y-117533752D01*
X211504400Y-117628990D01*
X211504400Y-117914704D01*
X211456780Y-118009942D01*
X211409161Y-118057561D01*
X211313923Y-118105180D01*
X211171066Y-118105180D01*
X212647257Y-117819466D02*
X213123447Y-117819466D01*
X212552019Y-118105180D02*
X212885352Y-117105180D01*
X213218685Y-118105180D01*
X213980590Y-118105180D02*
X213980590Y-117105180D01*
X213980590Y-118057561D02*
X213885352Y-118105180D01*
X213694876Y-118105180D01*
X213599638Y-118057561D01*
X213552019Y-118009942D01*
X213504400Y-117914704D01*
X213504400Y-117628990D01*
X213552019Y-117533752D01*
X213599638Y-117486133D01*
X213694876Y-117438514D01*
X213885352Y-117438514D01*
X213980590Y-117486133D01*
X214885352Y-118105180D02*
X214885352Y-117581371D01*
X214837733Y-117486133D01*
X214742495Y-117438514D01*
X214552019Y-117438514D01*
X214456780Y-117486133D01*
X214885352Y-118057561D02*
X214790114Y-118105180D01*
X214552019Y-118105180D01*
X214456780Y-118057561D01*
X214409161Y-117962323D01*
X214409161Y-117867085D01*
X214456780Y-117771847D01*
X214552019Y-117724228D01*
X214790114Y-117724228D01*
X214885352Y-117676609D01*
X215361542Y-117438514D02*
X215361542Y-118438514D01*
X215361542Y-117486133D02*
X215456780Y-117438514D01*
X215647257Y-117438514D01*
X215742495Y-117486133D01*
X215790114Y-117533752D01*
X215837733Y-117628990D01*
X215837733Y-117914704D01*
X215790114Y-118009942D01*
X215742495Y-118057561D01*
X215647257Y-118105180D01*
X215456780Y-118105180D01*
X215361542Y-118057561D01*
X216123447Y-117438514D02*
X216504400Y-117438514D01*
X216266304Y-117105180D02*
X216266304Y-117962323D01*
X216313923Y-118057561D01*
X216409161Y-118105180D01*
X216504400Y-118105180D01*
X217218685Y-118057561D02*
X217123447Y-118105180D01*
X216932971Y-118105180D01*
X216837733Y-118057561D01*
X216790114Y-117962323D01*
X216790114Y-117581371D01*
X216837733Y-117486133D01*
X216932971Y-117438514D01*
X217123447Y-117438514D01*
X217218685Y-117486133D01*
X217266304Y-117581371D01*
X217266304Y-117676609D01*
X216790114Y-117771847D01*
X217694876Y-118105180D02*
X217694876Y-117438514D01*
X217694876Y-117628990D02*
X217742495Y-117533752D01*
X217790114Y-117486133D01*
X217885352Y-117438514D01*
X217980590Y-117438514D01*
X211480590Y-118755180D02*
X211813923Y-119755180D01*
X212147257Y-118755180D01*
X213004400Y-119755180D02*
X212432971Y-119755180D01*
X212718685Y-119755180D02*
X212718685Y-118755180D01*
X212623447Y-118898038D01*
X212528209Y-118993276D01*
X212432971Y-119040895D01*
X213432971Y-119659942D02*
X213480590Y-119707561D01*
X213432971Y-119755180D01*
X213385352Y-119707561D01*
X213432971Y-119659942D01*
X213432971Y-119755180D01*
X213861542Y-118850419D02*
X213909161Y-118802800D01*
X214004400Y-118755180D01*
X214242495Y-118755180D01*
X214337733Y-118802800D01*
X214385352Y-118850419D01*
X214432971Y-118945657D01*
X214432971Y-119040895D01*
X214385352Y-119183752D01*
X213813923Y-119755180D01*
X214432971Y-119755180D01*
X177987866Y-113559580D02*
X177987866Y-112559580D01*
X178225961Y-112559580D01*
X178368819Y-112607200D01*
X178464057Y-112702438D01*
X178511676Y-112797676D01*
X178559295Y-112988152D01*
X178559295Y-113131009D01*
X178511676Y-113321485D01*
X178464057Y-113416723D01*
X178368819Y-113511961D01*
X178225961Y-113559580D01*
X177987866Y-113559580D01*
X179368819Y-113511961D02*
X179273580Y-113559580D01*
X179083104Y-113559580D01*
X178987866Y-113511961D01*
X178940247Y-113416723D01*
X178940247Y-113035771D01*
X178987866Y-112940533D01*
X179083104Y-112892914D01*
X179273580Y-112892914D01*
X179368819Y-112940533D01*
X179416438Y-113035771D01*
X179416438Y-113131009D01*
X178940247Y-113226247D01*
X179797390Y-113511961D02*
X179892628Y-113559580D01*
X180083104Y-113559580D01*
X180178342Y-113511961D01*
X180225961Y-113416723D01*
X180225961Y-113369104D01*
X180178342Y-113273866D01*
X180083104Y-113226247D01*
X179940247Y-113226247D01*
X179845009Y-113178628D01*
X179797390Y-113083390D01*
X179797390Y-113035771D01*
X179845009Y-112940533D01*
X179940247Y-112892914D01*
X180083104Y-112892914D01*
X180178342Y-112940533D01*
X180654533Y-113559580D02*
X180654533Y-112892914D01*
X180654533Y-112559580D02*
X180606914Y-112607200D01*
X180654533Y-112654819D01*
X180702152Y-112607200D01*
X180654533Y-112559580D01*
X180654533Y-112654819D01*
X181559295Y-112892914D02*
X181559295Y-113702438D01*
X181511676Y-113797676D01*
X181464057Y-113845295D01*
X181368819Y-113892914D01*
X181225961Y-113892914D01*
X181130723Y-113845295D01*
X181559295Y-113511961D02*
X181464057Y-113559580D01*
X181273580Y-113559580D01*
X181178342Y-113511961D01*
X181130723Y-113464342D01*
X181083104Y-113369104D01*
X181083104Y-113083390D01*
X181130723Y-112988152D01*
X181178342Y-112940533D01*
X181273580Y-112892914D01*
X181464057Y-112892914D01*
X181559295Y-112940533D01*
X182035485Y-112892914D02*
X182035485Y-113559580D01*
X182035485Y-112988152D02*
X182083104Y-112940533D01*
X182178342Y-112892914D01*
X182321200Y-112892914D01*
X182416438Y-112940533D01*
X182464057Y-113035771D01*
X182464057Y-113559580D01*
X183321200Y-113511961D02*
X183225961Y-113559580D01*
X183035485Y-113559580D01*
X182940247Y-113511961D01*
X182892628Y-113416723D01*
X182892628Y-113035771D01*
X182940247Y-112940533D01*
X183035485Y-112892914D01*
X183225961Y-112892914D01*
X183321200Y-112940533D01*
X183368819Y-113035771D01*
X183368819Y-113131009D01*
X182892628Y-113226247D01*
X184225961Y-113559580D02*
X184225961Y-112559580D01*
X184225961Y-113511961D02*
X184130723Y-113559580D01*
X183940247Y-113559580D01*
X183845009Y-113511961D01*
X183797390Y-113464342D01*
X183749771Y-113369104D01*
X183749771Y-113083390D01*
X183797390Y-112988152D01*
X183845009Y-112940533D01*
X183940247Y-112892914D01*
X184130723Y-112892914D01*
X184225961Y-112940533D01*
X185464057Y-113559580D02*
X185464057Y-112559580D01*
X185464057Y-112940533D02*
X185559295Y-112892914D01*
X185749771Y-112892914D01*
X185845009Y-112940533D01*
X185892628Y-112988152D01*
X185940247Y-113083390D01*
X185940247Y-113369104D01*
X185892628Y-113464342D01*
X185845009Y-113511961D01*
X185749771Y-113559580D01*
X185559295Y-113559580D01*
X185464057Y-113511961D01*
X186273580Y-112892914D02*
X186511676Y-113559580D01*
X186749771Y-112892914D02*
X186511676Y-113559580D01*
X186416438Y-113797676D01*
X186368819Y-113845295D01*
X186273580Y-113892914D01*
X179583104Y-115209580D02*
X179249771Y-114733390D01*
X179011676Y-115209580D02*
X179011676Y-114209580D01*
X179392628Y-114209580D01*
X179487866Y-114257200D01*
X179535485Y-114304819D01*
X179583104Y-114400057D01*
X179583104Y-114542914D01*
X179535485Y-114638152D01*
X179487866Y-114685771D01*
X179392628Y-114733390D01*
X179011676Y-114733390D01*
X180011676Y-114542914D02*
X180011676Y-115209580D01*
X180011676Y-114638152D02*
X180059295Y-114590533D01*
X180154533Y-114542914D01*
X180297390Y-114542914D01*
X180392628Y-114590533D01*
X180440247Y-114685771D01*
X180440247Y-115209580D01*
X181345009Y-115209580D02*
X181345009Y-114209580D01*
X181345009Y-115161961D02*
X181249771Y-115209580D01*
X181059295Y-115209580D01*
X180964057Y-115161961D01*
X180916438Y-115114342D01*
X180868819Y-115019104D01*
X180868819Y-114733390D01*
X180916438Y-114638152D01*
X180964057Y-114590533D01*
X181059295Y-114542914D01*
X181249771Y-114542914D01*
X181345009Y-114590533D01*
X181821200Y-115209580D02*
X181821200Y-114209580D01*
X182154533Y-114923866D01*
X182487866Y-114209580D01*
X182487866Y-115209580D01*
X182964057Y-114542914D02*
X182964057Y-115209580D01*
X182964057Y-114638152D02*
X183011676Y-114590533D01*
X183106914Y-114542914D01*
X183249771Y-114542914D01*
X183345009Y-114590533D01*
X183392628Y-114685771D01*
X183392628Y-115209580D01*
X183868819Y-115209580D02*
X183868819Y-114209580D01*
X183964057Y-114828628D02*
X184249771Y-115209580D01*
X184249771Y-114542914D02*
X183868819Y-114923866D01*
X184678342Y-115209580D02*
X184678342Y-114209580D01*
X185154533Y-115209580D02*
X185154533Y-114209580D01*
X185630723Y-115209580D02*
X185630723Y-114209580D01*
X180606914Y-115954819D02*
X180654533Y-115907200D01*
X180749771Y-115859580D01*
X180987866Y-115859580D01*
X181083104Y-115907200D01*
X181130723Y-115954819D01*
X181178342Y-116050057D01*
X181178342Y-116145295D01*
X181130723Y-116288152D01*
X180559295Y-116859580D01*
X181178342Y-116859580D01*
X181797390Y-115859580D02*
X181892628Y-115859580D01*
X181987866Y-115907200D01*
X182035485Y-115954819D01*
X182083104Y-116050057D01*
X182130723Y-116240533D01*
X182130723Y-116478628D01*
X182083104Y-116669104D01*
X182035485Y-116764342D01*
X181987866Y-116811961D01*
X181892628Y-116859580D01*
X181797390Y-116859580D01*
X181702152Y-116811961D01*
X181654533Y-116764342D01*
X181606914Y-116669104D01*
X181559295Y-116478628D01*
X181559295Y-116240533D01*
X181606914Y-116050057D01*
X181654533Y-115954819D01*
X181702152Y-115907200D01*
X181797390Y-115859580D01*
X183083104Y-116859580D02*
X182511676Y-116859580D01*
X182797390Y-116859580D02*
X182797390Y-115859580D01*
X182702152Y-116002438D01*
X182606914Y-116097676D01*
X182511676Y-116145295D01*
X183559295Y-116859580D02*
X183749771Y-116859580D01*
X183845009Y-116811961D01*
X183892628Y-116764342D01*
X183987866Y-116621485D01*
X184035485Y-116431009D01*
X184035485Y-116050057D01*
X183987866Y-115954819D01*
X183940247Y-115907200D01*
X183845009Y-115859580D01*
X183654533Y-115859580D01*
X183559295Y-115907200D01*
X183511676Y-115954819D01*
X183464057Y-116050057D01*
X183464057Y-116288152D01*
X183511676Y-116383390D01*
X183559295Y-116431009D01*
X183654533Y-116478628D01*
X183845009Y-116478628D01*
X183940247Y-116431009D01*
X183987866Y-116383390D01*
X184035485Y-116288152D01*
D11*
X225298000Y-87376000D02*
X224790000Y-87376000D01*
X227076000Y-87376000D02*
X221869000Y-87376000D01*
X227076000Y-88519000D02*
X227076000Y-87376000D01*
X226441000Y-88519000D02*
X227076000Y-88519000D01*
X226187000Y-88265000D02*
X226441000Y-88519000D01*
X225679000Y-88265000D02*
X226187000Y-88265000D01*
X225425000Y-88519000D02*
X225679000Y-88265000D01*
X223139000Y-88519000D02*
X225425000Y-88519000D01*
X222885000Y-88265000D02*
X223139000Y-88519000D01*
X221869000Y-88265000D02*
X222885000Y-88265000D01*
X221869000Y-87376000D02*
X221869000Y-88265000D01*
D12*
G36*
X171415201Y-66360961D02*
G01*
X171558453Y-66384681D01*
X171681371Y-66424563D01*
X171784764Y-66481052D01*
X171869438Y-66554592D01*
X171936200Y-66645629D01*
X171985856Y-66754607D01*
X171987456Y-66759221D01*
X172003445Y-66829423D01*
X172011116Y-66916917D01*
X172010572Y-67013620D01*
X172001915Y-67111449D01*
X171985248Y-67202319D01*
X171981666Y-67216342D01*
X171960621Y-67285574D01*
X171930534Y-67371942D01*
X171893861Y-67469428D01*
X171853060Y-67572017D01*
X171810587Y-67673692D01*
X171768899Y-67768437D01*
X171730454Y-67850234D01*
X171697709Y-67913067D01*
X171695674Y-67916635D01*
X171634414Y-68008906D01*
X171559048Y-68100129D01*
X171476081Y-68183485D01*
X171392017Y-68252155D01*
X171348294Y-68280825D01*
X171254779Y-68327597D01*
X171144768Y-68368816D01*
X171028432Y-68400909D01*
X170976758Y-68411416D01*
X170903863Y-68420567D01*
X170814306Y-68426030D01*
X170717920Y-68427687D01*
X170624541Y-68425420D01*
X170544004Y-68419111D01*
X170526443Y-68416803D01*
X170386811Y-68385920D01*
X170266809Y-68336922D01*
X170166320Y-68269725D01*
X170085228Y-68184239D01*
X170023417Y-68080378D01*
X170000057Y-68022537D01*
X169982248Y-67948249D01*
X169972967Y-67856401D01*
X169972587Y-67796578D01*
X170525176Y-67796578D01*
X170534501Y-67840329D01*
X170553282Y-67883206D01*
X170553289Y-67883220D01*
X170597140Y-67939034D01*
X170659179Y-67980984D01*
X170734017Y-68007808D01*
X170816260Y-68018242D01*
X170900519Y-68011026D01*
X170981401Y-67984896D01*
X170983442Y-67983938D01*
X171042180Y-67948990D01*
X171096785Y-67900726D01*
X171148521Y-67837038D01*
X171198653Y-67755815D01*
X171248446Y-67654949D01*
X171299165Y-67532329D01*
X171352075Y-67385847D01*
X171365064Y-67347432D01*
X171387506Y-67277233D01*
X171409356Y-67203422D01*
X171429330Y-67131001D01*
X171446143Y-67064971D01*
X171458512Y-67010332D01*
X171465153Y-66972085D01*
X171465426Y-66956466D01*
X171458796Y-66931332D01*
X171452261Y-66903177D01*
X171438466Y-66870552D01*
X171413425Y-66832390D01*
X171402935Y-66819585D01*
X171345956Y-66773927D01*
X171274550Y-66746284D01*
X171193685Y-66736263D01*
X171108325Y-66743473D01*
X171023439Y-66767521D01*
X170943991Y-66808015D01*
X170878440Y-66860992D01*
X170842359Y-66906448D01*
X170801341Y-66973405D01*
X170757294Y-67057518D01*
X170712124Y-67154442D01*
X170667740Y-67259833D01*
X170626048Y-67369345D01*
X170588956Y-67478635D01*
X170558372Y-67583356D01*
X170554106Y-67599804D01*
X170534961Y-67682342D01*
X170525323Y-67745924D01*
X170525176Y-67796578D01*
X169972587Y-67796578D01*
X169972321Y-67754809D01*
X169980417Y-67651291D01*
X169993830Y-67569622D01*
X170021440Y-67464132D01*
X170061550Y-67345537D01*
X170111328Y-67220031D01*
X170167941Y-67093809D01*
X170228557Y-66973065D01*
X170290342Y-66863993D01*
X170350465Y-66772786D01*
X170370091Y-66746861D01*
X170465186Y-66639914D01*
X170566381Y-66553991D01*
X170680681Y-66483396D01*
X170716074Y-66465558D01*
X170830923Y-66416526D01*
X170944073Y-66382621D01*
X171063455Y-66362172D01*
X171197002Y-66353511D01*
X171250811Y-66352957D01*
X171415201Y-66360961D01*
X171415201Y-66360961D01*
G37*
X171415201Y-66360961D02*
X171558453Y-66384681D01*
X171681371Y-66424563D01*
X171784764Y-66481052D01*
X171869438Y-66554592D01*
X171936200Y-66645629D01*
X171985856Y-66754607D01*
X171987456Y-66759221D01*
X172003445Y-66829423D01*
X172011116Y-66916917D01*
X172010572Y-67013620D01*
X172001915Y-67111449D01*
X171985248Y-67202319D01*
X171981666Y-67216342D01*
X171960621Y-67285574D01*
X171930534Y-67371942D01*
X171893861Y-67469428D01*
X171853060Y-67572017D01*
X171810587Y-67673692D01*
X171768899Y-67768437D01*
X171730454Y-67850234D01*
X171697709Y-67913067D01*
X171695674Y-67916635D01*
X171634414Y-68008906D01*
X171559048Y-68100129D01*
X171476081Y-68183485D01*
X171392017Y-68252155D01*
X171348294Y-68280825D01*
X171254779Y-68327597D01*
X171144768Y-68368816D01*
X171028432Y-68400909D01*
X170976758Y-68411416D01*
X170903863Y-68420567D01*
X170814306Y-68426030D01*
X170717920Y-68427687D01*
X170624541Y-68425420D01*
X170544004Y-68419111D01*
X170526443Y-68416803D01*
X170386811Y-68385920D01*
X170266809Y-68336922D01*
X170166320Y-68269725D01*
X170085228Y-68184239D01*
X170023417Y-68080378D01*
X170000057Y-68022537D01*
X169982248Y-67948249D01*
X169972967Y-67856401D01*
X169972587Y-67796578D01*
X170525176Y-67796578D01*
X170534501Y-67840329D01*
X170553282Y-67883206D01*
X170553289Y-67883220D01*
X170597140Y-67939034D01*
X170659179Y-67980984D01*
X170734017Y-68007808D01*
X170816260Y-68018242D01*
X170900519Y-68011026D01*
X170981401Y-67984896D01*
X170983442Y-67983938D01*
X171042180Y-67948990D01*
X171096785Y-67900726D01*
X171148521Y-67837038D01*
X171198653Y-67755815D01*
X171248446Y-67654949D01*
X171299165Y-67532329D01*
X171352075Y-67385847D01*
X171365064Y-67347432D01*
X171387506Y-67277233D01*
X171409356Y-67203422D01*
X171429330Y-67131001D01*
X171446143Y-67064971D01*
X171458512Y-67010332D01*
X171465153Y-66972085D01*
X171465426Y-66956466D01*
X171458796Y-66931332D01*
X171452261Y-66903177D01*
X171438466Y-66870552D01*
X171413425Y-66832390D01*
X171402935Y-66819585D01*
X171345956Y-66773927D01*
X171274550Y-66746284D01*
X171193685Y-66736263D01*
X171108325Y-66743473D01*
X171023439Y-66767521D01*
X170943991Y-66808015D01*
X170878440Y-66860992D01*
X170842359Y-66906448D01*
X170801341Y-66973405D01*
X170757294Y-67057518D01*
X170712124Y-67154442D01*
X170667740Y-67259833D01*
X170626048Y-67369345D01*
X170588956Y-67478635D01*
X170558372Y-67583356D01*
X170554106Y-67599804D01*
X170534961Y-67682342D01*
X170525323Y-67745924D01*
X170525176Y-67796578D01*
X169972587Y-67796578D01*
X169972321Y-67754809D01*
X169980417Y-67651291D01*
X169993830Y-67569622D01*
X170021440Y-67464132D01*
X170061550Y-67345537D01*
X170111328Y-67220031D01*
X170167941Y-67093809D01*
X170228557Y-66973065D01*
X170290342Y-66863993D01*
X170350465Y-66772786D01*
X170370091Y-66746861D01*
X170465186Y-66639914D01*
X170566381Y-66553991D01*
X170680681Y-66483396D01*
X170716074Y-66465558D01*
X170830923Y-66416526D01*
X170944073Y-66382621D01*
X171063455Y-66362172D01*
X171197002Y-66353511D01*
X171250811Y-66352957D01*
X171415201Y-66360961D01*
G36*
X169049620Y-66398439D02*
G01*
X169121562Y-66398900D01*
X169179614Y-66399606D01*
X169219802Y-66400505D01*
X169238150Y-66401545D01*
X169238863Y-66401801D01*
X169234542Y-66414777D01*
X169222299Y-66449878D01*
X169203212Y-66504051D01*
X169178362Y-66574245D01*
X169148827Y-66657407D01*
X169115687Y-66750486D01*
X169098572Y-66798475D01*
X169064238Y-66895339D01*
X169033295Y-66983885D01*
X169006780Y-67061045D01*
X168985731Y-67123752D01*
X168971184Y-67168939D01*
X168964175Y-67193538D01*
X168963803Y-67197143D01*
X168974514Y-67189598D01*
X169002966Y-67165801D01*
X169047153Y-67127525D01*
X169105070Y-67076543D01*
X169174709Y-67014629D01*
X169254065Y-66943557D01*
X169341133Y-66865100D01*
X169412500Y-66800469D01*
X169855674Y-66398274D01*
X170168901Y-66398274D01*
X170257137Y-66398682D01*
X170335671Y-66399826D01*
X170400821Y-66401590D01*
X170448903Y-66403854D01*
X170476237Y-66406501D01*
X170481148Y-66408300D01*
X170471311Y-66419010D01*
X170443520Y-66445745D01*
X170399742Y-66486698D01*
X170341942Y-66540060D01*
X170272088Y-66604024D01*
X170192145Y-66676781D01*
X170104080Y-66756524D01*
X170019527Y-66832747D01*
X169925041Y-66917830D01*
X169836192Y-66997985D01*
X169755056Y-67071329D01*
X169683709Y-67135978D01*
X169624227Y-67190050D01*
X169578688Y-67231659D01*
X169549166Y-67258922D01*
X169538140Y-67269493D01*
X169533488Y-67276829D01*
X169531114Y-67288336D01*
X169531532Y-67306399D01*
X169535259Y-67333404D01*
X169542811Y-67371735D01*
X169554702Y-67423776D01*
X169571450Y-67491913D01*
X169593569Y-67578531D01*
X169621576Y-67686013D01*
X169655986Y-67816746D01*
X169658866Y-67827654D01*
X169689230Y-67942816D01*
X169717361Y-68049809D01*
X169742547Y-68145901D01*
X169764075Y-68228361D01*
X169781233Y-68294457D01*
X169793308Y-68341457D01*
X169799589Y-68366629D01*
X169800337Y-68370145D01*
X169787584Y-68372019D01*
X169751787Y-68373688D01*
X169696637Y-68375075D01*
X169625826Y-68376102D01*
X169543046Y-68376690D01*
X169486179Y-68376800D01*
X169397736Y-68376458D01*
X169318926Y-68375498D01*
X169253441Y-68374018D01*
X169204973Y-68372119D01*
X169177214Y-68369898D01*
X169172021Y-68368373D01*
X169168774Y-68352209D01*
X169159621Y-68313842D01*
X169145450Y-68256681D01*
X169127144Y-68184132D01*
X169105591Y-68099604D01*
X169081675Y-68006506D01*
X169056283Y-67908244D01*
X169030300Y-67808227D01*
X169004611Y-67709863D01*
X168980102Y-67616560D01*
X168957660Y-67531726D01*
X168938168Y-67458768D01*
X168922514Y-67401096D01*
X168911582Y-67362115D01*
X168906258Y-67345236D01*
X168906042Y-67344861D01*
X168899688Y-67354902D01*
X168884860Y-67387401D01*
X168862593Y-67439828D01*
X168833918Y-67509651D01*
X168799868Y-67594340D01*
X168761478Y-67691364D01*
X168719779Y-67798191D01*
X168697442Y-67855966D01*
X168496916Y-68376326D01*
X167958990Y-68376800D01*
X168224985Y-67664932D01*
X168278026Y-67522940D01*
X168331432Y-67379896D01*
X168383883Y-67239340D01*
X168434059Y-67104811D01*
X168480641Y-66979849D01*
X168522309Y-66867993D01*
X168557744Y-66772781D01*
X168585626Y-66697755D01*
X168593820Y-66675668D01*
X168696659Y-66398274D01*
X168967761Y-66398274D01*
X169049620Y-66398439D01*
X169049620Y-66398439D01*
G37*
X169049620Y-66398439D02*
X169121562Y-66398900D01*
X169179614Y-66399606D01*
X169219802Y-66400505D01*
X169238150Y-66401545D01*
X169238863Y-66401801D01*
X169234542Y-66414777D01*
X169222299Y-66449878D01*
X169203212Y-66504051D01*
X169178362Y-66574245D01*
X169148827Y-66657407D01*
X169115687Y-66750486D01*
X169098572Y-66798475D01*
X169064238Y-66895339D01*
X169033295Y-66983885D01*
X169006780Y-67061045D01*
X168985731Y-67123752D01*
X168971184Y-67168939D01*
X168964175Y-67193538D01*
X168963803Y-67197143D01*
X168974514Y-67189598D01*
X169002966Y-67165801D01*
X169047153Y-67127525D01*
X169105070Y-67076543D01*
X169174709Y-67014629D01*
X169254065Y-66943557D01*
X169341133Y-66865100D01*
X169412500Y-66800469D01*
X169855674Y-66398274D01*
X170168901Y-66398274D01*
X170257137Y-66398682D01*
X170335671Y-66399826D01*
X170400821Y-66401590D01*
X170448903Y-66403854D01*
X170476237Y-66406501D01*
X170481148Y-66408300D01*
X170471311Y-66419010D01*
X170443520Y-66445745D01*
X170399742Y-66486698D01*
X170341942Y-66540060D01*
X170272088Y-66604024D01*
X170192145Y-66676781D01*
X170104080Y-66756524D01*
X170019527Y-66832747D01*
X169925041Y-66917830D01*
X169836192Y-66997985D01*
X169755056Y-67071329D01*
X169683709Y-67135978D01*
X169624227Y-67190050D01*
X169578688Y-67231659D01*
X169549166Y-67258922D01*
X169538140Y-67269493D01*
X169533488Y-67276829D01*
X169531114Y-67288336D01*
X169531532Y-67306399D01*
X169535259Y-67333404D01*
X169542811Y-67371735D01*
X169554702Y-67423776D01*
X169571450Y-67491913D01*
X169593569Y-67578531D01*
X169621576Y-67686013D01*
X169655986Y-67816746D01*
X169658866Y-67827654D01*
X169689230Y-67942816D01*
X169717361Y-68049809D01*
X169742547Y-68145901D01*
X169764075Y-68228361D01*
X169781233Y-68294457D01*
X169793308Y-68341457D01*
X169799589Y-68366629D01*
X169800337Y-68370145D01*
X169787584Y-68372019D01*
X169751787Y-68373688D01*
X169696637Y-68375075D01*
X169625826Y-68376102D01*
X169543046Y-68376690D01*
X169486179Y-68376800D01*
X169397736Y-68376458D01*
X169318926Y-68375498D01*
X169253441Y-68374018D01*
X169204973Y-68372119D01*
X169177214Y-68369898D01*
X169172021Y-68368373D01*
X169168774Y-68352209D01*
X169159621Y-68313842D01*
X169145450Y-68256681D01*
X169127144Y-68184132D01*
X169105591Y-68099604D01*
X169081675Y-68006506D01*
X169056283Y-67908244D01*
X169030300Y-67808227D01*
X169004611Y-67709863D01*
X168980102Y-67616560D01*
X168957660Y-67531726D01*
X168938168Y-67458768D01*
X168922514Y-67401096D01*
X168911582Y-67362115D01*
X168906258Y-67345236D01*
X168906042Y-67344861D01*
X168899688Y-67354902D01*
X168884860Y-67387401D01*
X168862593Y-67439828D01*
X168833918Y-67509651D01*
X168799868Y-67594340D01*
X168761478Y-67691364D01*
X168719779Y-67798191D01*
X168697442Y-67855966D01*
X168496916Y-68376326D01*
X167958990Y-68376800D01*
X168224985Y-67664932D01*
X168278026Y-67522940D01*
X168331432Y-67379896D01*
X168383883Y-67239340D01*
X168434059Y-67104811D01*
X168480641Y-66979849D01*
X168522309Y-66867993D01*
X168557744Y-66772781D01*
X168585626Y-66697755D01*
X168593820Y-66675668D01*
X168696659Y-66398274D01*
X168967761Y-66398274D01*
X169049620Y-66398439D01*
G36*
X173289559Y-66428353D02*
G01*
X173290092Y-66454431D01*
X173291553Y-66502721D01*
X173293827Y-66570252D01*
X173296797Y-66654055D01*
X173300347Y-66751162D01*
X173304361Y-66858602D01*
X173308722Y-66973407D01*
X173313314Y-67092607D01*
X173318021Y-67213234D01*
X173322727Y-67332317D01*
X173327316Y-67446887D01*
X173331671Y-67553975D01*
X173335676Y-67650613D01*
X173339215Y-67733830D01*
X173342172Y-67800657D01*
X173344430Y-67848126D01*
X173345874Y-67873266D01*
X173346242Y-67876530D01*
X173351049Y-67864901D01*
X173363613Y-67830137D01*
X173383173Y-67774447D01*
X173408970Y-67700041D01*
X173440243Y-67609128D01*
X173476232Y-67503916D01*
X173516177Y-67386615D01*
X173559317Y-67259434D01*
X173598827Y-67142557D01*
X173847784Y-66404958D01*
X174096692Y-66401321D01*
X174174959Y-66400703D01*
X174243161Y-66401169D01*
X174297146Y-66402608D01*
X174332763Y-66404908D01*
X174345859Y-66407959D01*
X174345862Y-66408005D01*
X174341348Y-66421869D01*
X174328191Y-66458858D01*
X174307101Y-66517049D01*
X174278785Y-66594520D01*
X174243952Y-66689346D01*
X174203309Y-66799606D01*
X174157565Y-66923375D01*
X174107427Y-67058730D01*
X174053605Y-67203749D01*
X173996805Y-67356508D01*
X173981573Y-67397428D01*
X173617021Y-68376529D01*
X173232679Y-68376664D01*
X172848337Y-68376800D01*
X172846453Y-68286563D01*
X172845919Y-68255367D01*
X172845109Y-68200427D01*
X172844060Y-68124736D01*
X172842814Y-68031284D01*
X172841409Y-67923063D01*
X172839884Y-67803065D01*
X172838278Y-67674281D01*
X172836632Y-67539703D01*
X172836427Y-67522762D01*
X172828285Y-66849199D01*
X172552310Y-67609657D01*
X172276335Y-68370116D01*
X171766479Y-68377374D01*
X171784721Y-68326955D01*
X171792215Y-68306401D01*
X171808145Y-68262833D01*
X171831744Y-68198344D01*
X171862247Y-68115024D01*
X171898888Y-68014964D01*
X171940901Y-67900255D01*
X171987521Y-67772988D01*
X172037981Y-67635255D01*
X172091516Y-67489145D01*
X172145176Y-67342709D01*
X172200408Y-67191924D01*
X172252878Y-67048544D01*
X172301871Y-66914531D01*
X172346671Y-66791848D01*
X172386565Y-66682459D01*
X172420835Y-66588324D01*
X172448768Y-66511408D01*
X172469648Y-66453673D01*
X172482760Y-66417081D01*
X172487389Y-66403595D01*
X172487390Y-66403578D01*
X172500214Y-66402249D01*
X172536506Y-66401042D01*
X172593001Y-66400000D01*
X172666429Y-66399167D01*
X172753523Y-66398584D01*
X172851016Y-66398297D01*
X172888442Y-66398274D01*
X173289495Y-66398274D01*
X173289559Y-66428353D01*
X173289559Y-66428353D01*
G37*
X173289559Y-66428353D02*
X173290092Y-66454431D01*
X173291553Y-66502721D01*
X173293827Y-66570252D01*
X173296797Y-66654055D01*
X173300347Y-66751162D01*
X173304361Y-66858602D01*
X173308722Y-66973407D01*
X173313314Y-67092607D01*
X173318021Y-67213234D01*
X173322727Y-67332317D01*
X173327316Y-67446887D01*
X173331671Y-67553975D01*
X173335676Y-67650613D01*
X173339215Y-67733830D01*
X173342172Y-67800657D01*
X173344430Y-67848126D01*
X173345874Y-67873266D01*
X173346242Y-67876530D01*
X173351049Y-67864901D01*
X173363613Y-67830137D01*
X173383173Y-67774447D01*
X173408970Y-67700041D01*
X173440243Y-67609128D01*
X173476232Y-67503916D01*
X173516177Y-67386615D01*
X173559317Y-67259434D01*
X173598827Y-67142557D01*
X173847784Y-66404958D01*
X174096692Y-66401321D01*
X174174959Y-66400703D01*
X174243161Y-66401169D01*
X174297146Y-66402608D01*
X174332763Y-66404908D01*
X174345859Y-66407959D01*
X174345862Y-66408005D01*
X174341348Y-66421869D01*
X174328191Y-66458858D01*
X174307101Y-66517049D01*
X174278785Y-66594520D01*
X174243952Y-66689346D01*
X174203309Y-66799606D01*
X174157565Y-66923375D01*
X174107427Y-67058730D01*
X174053605Y-67203749D01*
X173996805Y-67356508D01*
X173981573Y-67397428D01*
X173617021Y-68376529D01*
X173232679Y-68376664D01*
X172848337Y-68376800D01*
X172846453Y-68286563D01*
X172845919Y-68255367D01*
X172845109Y-68200427D01*
X172844060Y-68124736D01*
X172842814Y-68031284D01*
X172841409Y-67923063D01*
X172839884Y-67803065D01*
X172838278Y-67674281D01*
X172836632Y-67539703D01*
X172836427Y-67522762D01*
X172828285Y-66849199D01*
X172552310Y-67609657D01*
X172276335Y-68370116D01*
X171766479Y-68377374D01*
X171784721Y-68326955D01*
X171792215Y-68306401D01*
X171808145Y-68262833D01*
X171831744Y-68198344D01*
X171862247Y-68115024D01*
X171898888Y-68014964D01*
X171940901Y-67900255D01*
X171987521Y-67772988D01*
X172037981Y-67635255D01*
X172091516Y-67489145D01*
X172145176Y-67342709D01*
X172200408Y-67191924D01*
X172252878Y-67048544D01*
X172301871Y-66914531D01*
X172346671Y-66791848D01*
X172386565Y-66682459D01*
X172420835Y-66588324D01*
X172448768Y-66511408D01*
X172469648Y-66453673D01*
X172482760Y-66417081D01*
X172487389Y-66403595D01*
X172487390Y-66403578D01*
X172500214Y-66402249D01*
X172536506Y-66401042D01*
X172593001Y-66400000D01*
X172666429Y-66399167D01*
X172753523Y-66398584D01*
X172851016Y-66398297D01*
X172888442Y-66398274D01*
X173289495Y-66398274D01*
X173289559Y-66428353D01*
G36*
X175717853Y-66715548D02*
G01*
X175715698Y-66803504D01*
X175713349Y-66912766D01*
X175710904Y-67037904D01*
X175708461Y-67173488D01*
X175706118Y-67314088D01*
X175703974Y-67454276D01*
X175702219Y-67581379D01*
X175700461Y-67705533D01*
X175698475Y-67826082D01*
X175696343Y-67939326D01*
X175694146Y-68041564D01*
X175691964Y-68129097D01*
X175689878Y-68198224D01*
X175687970Y-68245245D01*
X175687529Y-68253142D01*
X175679947Y-68376800D01*
X175183967Y-68376800D01*
X175192854Y-68266511D01*
X175198370Y-68200571D01*
X175204444Y-68131800D01*
X175209801Y-68074604D01*
X175210014Y-68072439D01*
X175218287Y-67988657D01*
X174873497Y-67992228D01*
X174528707Y-67995800D01*
X174400391Y-68185688D01*
X174272074Y-68375576D01*
X174000893Y-68376188D01*
X173909398Y-68376266D01*
X173841422Y-68375839D01*
X173793746Y-68374622D01*
X173763155Y-68372332D01*
X173746431Y-68368684D01*
X173740355Y-68363393D01*
X173741712Y-68356176D01*
X173743195Y-68353405D01*
X173752428Y-68338925D01*
X173775264Y-68303772D01*
X173810614Y-68249607D01*
X173857387Y-68178095D01*
X173914493Y-68090899D01*
X173980842Y-67989682D01*
X174055343Y-67876108D01*
X174136906Y-67751840D01*
X174224441Y-67618540D01*
X174244464Y-67588063D01*
X174797920Y-67588063D01*
X175226705Y-67588063D01*
X175233422Y-67544616D01*
X175236653Y-67515972D01*
X175240875Y-67467116D01*
X175245826Y-67402295D01*
X175251240Y-67325758D01*
X175256854Y-67241752D01*
X175262406Y-67154526D01*
X175267630Y-67068327D01*
X175272263Y-66987404D01*
X175276042Y-66916005D01*
X175278703Y-66858377D01*
X175279982Y-66818768D01*
X175279615Y-66801428D01*
X175279568Y-66801273D01*
X175271858Y-66809036D01*
X175252046Y-66837568D01*
X175221548Y-66884566D01*
X175181777Y-66947731D01*
X175134148Y-67024760D01*
X175080074Y-67113352D01*
X175020971Y-67211207D01*
X174958252Y-67316022D01*
X174893332Y-67425498D01*
X174835786Y-67523381D01*
X174797920Y-67588063D01*
X174244464Y-67588063D01*
X174316859Y-67477873D01*
X174389413Y-67367484D01*
X175022149Y-66404958D01*
X175374264Y-66401390D01*
X175726378Y-66397822D01*
X175717853Y-66715548D01*
X175717853Y-66715548D01*
G37*
X175717853Y-66715548D02*
X175715698Y-66803504D01*
X175713349Y-66912766D01*
X175710904Y-67037904D01*
X175708461Y-67173488D01*
X175706118Y-67314088D01*
X175703974Y-67454276D01*
X175702219Y-67581379D01*
X175700461Y-67705533D01*
X175698475Y-67826082D01*
X175696343Y-67939326D01*
X175694146Y-68041564D01*
X175691964Y-68129097D01*
X175689878Y-68198224D01*
X175687970Y-68245245D01*
X175687529Y-68253142D01*
X175679947Y-68376800D01*
X175183967Y-68376800D01*
X175192854Y-68266511D01*
X175198370Y-68200571D01*
X175204444Y-68131800D01*
X175209801Y-68074604D01*
X175210014Y-68072439D01*
X175218287Y-67988657D01*
X174873497Y-67992228D01*
X174528707Y-67995800D01*
X174400391Y-68185688D01*
X174272074Y-68375576D01*
X174000893Y-68376188D01*
X173909398Y-68376266D01*
X173841422Y-68375839D01*
X173793746Y-68374622D01*
X173763155Y-68372332D01*
X173746431Y-68368684D01*
X173740355Y-68363393D01*
X173741712Y-68356176D01*
X173743195Y-68353405D01*
X173752428Y-68338925D01*
X173775264Y-68303772D01*
X173810614Y-68249607D01*
X173857387Y-68178095D01*
X173914493Y-68090899D01*
X173980842Y-67989682D01*
X174055343Y-67876108D01*
X174136906Y-67751840D01*
X174224441Y-67618540D01*
X174244464Y-67588063D01*
X174797920Y-67588063D01*
X175226705Y-67588063D01*
X175233422Y-67544616D01*
X175236653Y-67515972D01*
X175240875Y-67467116D01*
X175245826Y-67402295D01*
X175251240Y-67325758D01*
X175256854Y-67241752D01*
X175262406Y-67154526D01*
X175267630Y-67068327D01*
X175272263Y-66987404D01*
X175276042Y-66916005D01*
X175278703Y-66858377D01*
X175279982Y-66818768D01*
X175279615Y-66801428D01*
X175279568Y-66801273D01*
X175271858Y-66809036D01*
X175252046Y-66837568D01*
X175221548Y-66884566D01*
X175181777Y-66947731D01*
X175134148Y-67024760D01*
X175080074Y-67113352D01*
X175020971Y-67211207D01*
X174958252Y-67316022D01*
X174893332Y-67425498D01*
X174835786Y-67523381D01*
X174797920Y-67588063D01*
X174244464Y-67588063D01*
X174316859Y-67477873D01*
X174389413Y-67367484D01*
X175022149Y-66404958D01*
X175374264Y-66401390D01*
X175726378Y-66397822D01*
X175717853Y-66715548D01*
G36*
X177393600Y-66433038D02*
G01*
X177391847Y-66452927D01*
X177386821Y-66496589D01*
X177378869Y-66561304D01*
X177368341Y-66644354D01*
X177355585Y-66743020D01*
X177340950Y-66854585D01*
X177324785Y-66976329D01*
X177307437Y-67105534D01*
X177305979Y-67116329D01*
X177288721Y-67244738D01*
X177272753Y-67364854D01*
X177258402Y-67474124D01*
X177245995Y-67569994D01*
X177235859Y-67649908D01*
X177228322Y-67711314D01*
X177223710Y-67751656D01*
X177222352Y-67768381D01*
X177222427Y-67768684D01*
X177229573Y-67758096D01*
X177248730Y-67726258D01*
X177278732Y-67675187D01*
X177318416Y-67606900D01*
X177366618Y-67523411D01*
X177422172Y-67426738D01*
X177483915Y-67318897D01*
X177550683Y-67201904D01*
X177615083Y-67088735D01*
X178003670Y-66404958D01*
X178448221Y-66401434D01*
X178568866Y-66400530D01*
X178665421Y-66400020D01*
X178740531Y-66400038D01*
X178796839Y-66400714D01*
X178836992Y-66402180D01*
X178863634Y-66404566D01*
X178879410Y-66408005D01*
X178886965Y-66412627D01*
X178888944Y-66418564D01*
X178888475Y-66423297D01*
X178883198Y-66439602D01*
X178869247Y-66478959D01*
X178847354Y-66539391D01*
X178818246Y-66618922D01*
X178782655Y-66715575D01*
X178741309Y-66827373D01*
X178694940Y-66952340D01*
X178644276Y-67088498D01*
X178590048Y-67233871D01*
X178532985Y-67386483D01*
X178523232Y-67412532D01*
X178162285Y-68376381D01*
X177918311Y-68376590D01*
X177840880Y-68376136D01*
X177773580Y-68374747D01*
X177720600Y-68372591D01*
X177686128Y-68369836D01*
X177674338Y-68366774D01*
X177678954Y-68352796D01*
X177692250Y-68316041D01*
X177713399Y-68258721D01*
X177741572Y-68183048D01*
X177775942Y-68091235D01*
X177815680Y-67985493D01*
X177859958Y-67868035D01*
X177907949Y-67741073D01*
X177955292Y-67616131D01*
X178005884Y-67482561D01*
X178053434Y-67356632D01*
X178097126Y-67240528D01*
X178136145Y-67136433D01*
X178169676Y-67046531D01*
X178196905Y-66973007D01*
X178217018Y-66918044D01*
X178229198Y-66883827D01*
X178232686Y-66872529D01*
X178225014Y-66882937D01*
X178204028Y-66913975D01*
X178170925Y-66963821D01*
X178126899Y-67030646D01*
X178073148Y-67112627D01*
X178010867Y-67207936D01*
X177941251Y-67314750D01*
X177865497Y-67431241D01*
X177784801Y-67555584D01*
X177741179Y-67622899D01*
X177253232Y-68376253D01*
X177002574Y-68376527D01*
X176914750Y-68376452D01*
X176850139Y-68375790D01*
X176805215Y-68374208D01*
X176776456Y-68371377D01*
X176760337Y-68366965D01*
X176753335Y-68360641D01*
X176751916Y-68352998D01*
X176752875Y-68335493D01*
X176755632Y-68293848D01*
X176760007Y-68230586D01*
X176765821Y-68148232D01*
X176772892Y-68049310D01*
X176781042Y-67936342D01*
X176790090Y-67811853D01*
X176799856Y-67678365D01*
X176805456Y-67602204D01*
X176815432Y-67465600D01*
X176824645Y-67337204D01*
X176832933Y-67219451D01*
X176840131Y-67114778D01*
X176846075Y-67025622D01*
X176850602Y-66954419D01*
X176853549Y-66903605D01*
X176854751Y-66875617D01*
X176854590Y-66870807D01*
X176849248Y-66882168D01*
X176835387Y-66916432D01*
X176813828Y-66971453D01*
X176785392Y-67045083D01*
X176750903Y-67135174D01*
X176711182Y-67239578D01*
X176667052Y-67356148D01*
X176619334Y-67482736D01*
X176568851Y-67617195D01*
X176568453Y-67618258D01*
X176286722Y-68370116D01*
X176031071Y-68373748D01*
X175775420Y-68377379D01*
X175793396Y-68333642D01*
X175800892Y-68314274D01*
X175816961Y-68271904D01*
X175840834Y-68208584D01*
X175871743Y-68126364D01*
X175908918Y-68027295D01*
X175951590Y-67913427D01*
X175998991Y-67786812D01*
X176050352Y-67649499D01*
X176104903Y-67503540D01*
X176161876Y-67350984D01*
X176164450Y-67344089D01*
X176517528Y-66398274D01*
X177393600Y-66398274D01*
X177393600Y-66433038D01*
X177393600Y-66433038D01*
G37*
X177393600Y-66433038D02*
X177391847Y-66452927D01*
X177386821Y-66496589D01*
X177378869Y-66561304D01*
X177368341Y-66644354D01*
X177355585Y-66743020D01*
X177340950Y-66854585D01*
X177324785Y-66976329D01*
X177307437Y-67105534D01*
X177305979Y-67116329D01*
X177288721Y-67244738D01*
X177272753Y-67364854D01*
X177258402Y-67474124D01*
X177245995Y-67569994D01*
X177235859Y-67649908D01*
X177228322Y-67711314D01*
X177223710Y-67751656D01*
X177222352Y-67768381D01*
X177222427Y-67768684D01*
X177229573Y-67758096D01*
X177248730Y-67726258D01*
X177278732Y-67675187D01*
X177318416Y-67606900D01*
X177366618Y-67523411D01*
X177422172Y-67426738D01*
X177483915Y-67318897D01*
X177550683Y-67201904D01*
X177615083Y-67088735D01*
X178003670Y-66404958D01*
X178448221Y-66401434D01*
X178568866Y-66400530D01*
X178665421Y-66400020D01*
X178740531Y-66400038D01*
X178796839Y-66400714D01*
X178836992Y-66402180D01*
X178863634Y-66404566D01*
X178879410Y-66408005D01*
X178886965Y-66412627D01*
X178888944Y-66418564D01*
X178888475Y-66423297D01*
X178883198Y-66439602D01*
X178869247Y-66478959D01*
X178847354Y-66539391D01*
X178818246Y-66618922D01*
X178782655Y-66715575D01*
X178741309Y-66827373D01*
X178694940Y-66952340D01*
X178644276Y-67088498D01*
X178590048Y-67233871D01*
X178532985Y-67386483D01*
X178523232Y-67412532D01*
X178162285Y-68376381D01*
X177918311Y-68376590D01*
X177840880Y-68376136D01*
X177773580Y-68374747D01*
X177720600Y-68372591D01*
X177686128Y-68369836D01*
X177674338Y-68366774D01*
X177678954Y-68352796D01*
X177692250Y-68316041D01*
X177713399Y-68258721D01*
X177741572Y-68183048D01*
X177775942Y-68091235D01*
X177815680Y-67985493D01*
X177859958Y-67868035D01*
X177907949Y-67741073D01*
X177955292Y-67616131D01*
X178005884Y-67482561D01*
X178053434Y-67356632D01*
X178097126Y-67240528D01*
X178136145Y-67136433D01*
X178169676Y-67046531D01*
X178196905Y-66973007D01*
X178217018Y-66918044D01*
X178229198Y-66883827D01*
X178232686Y-66872529D01*
X178225014Y-66882937D01*
X178204028Y-66913975D01*
X178170925Y-66963821D01*
X178126899Y-67030646D01*
X178073148Y-67112627D01*
X178010867Y-67207936D01*
X177941251Y-67314750D01*
X177865497Y-67431241D01*
X177784801Y-67555584D01*
X177741179Y-67622899D01*
X177253232Y-68376253D01*
X177002574Y-68376527D01*
X176914750Y-68376452D01*
X176850139Y-68375790D01*
X176805215Y-68374208D01*
X176776456Y-68371377D01*
X176760337Y-68366965D01*
X176753335Y-68360641D01*
X176751916Y-68352998D01*
X176752875Y-68335493D01*
X176755632Y-68293848D01*
X176760007Y-68230586D01*
X176765821Y-68148232D01*
X176772892Y-68049310D01*
X176781042Y-67936342D01*
X176790090Y-67811853D01*
X176799856Y-67678365D01*
X176805456Y-67602204D01*
X176815432Y-67465600D01*
X176824645Y-67337204D01*
X176832933Y-67219451D01*
X176840131Y-67114778D01*
X176846075Y-67025622D01*
X176850602Y-66954419D01*
X176853549Y-66903605D01*
X176854751Y-66875617D01*
X176854590Y-66870807D01*
X176849248Y-66882168D01*
X176835387Y-66916432D01*
X176813828Y-66971453D01*
X176785392Y-67045083D01*
X176750903Y-67135174D01*
X176711182Y-67239578D01*
X176667052Y-67356148D01*
X176619334Y-67482736D01*
X176568851Y-67617195D01*
X176568453Y-67618258D01*
X176286722Y-68370116D01*
X176031071Y-68373748D01*
X175775420Y-68377379D01*
X175793396Y-68333642D01*
X175800892Y-68314274D01*
X175816961Y-68271904D01*
X175840834Y-68208584D01*
X175871743Y-68126364D01*
X175908918Y-68027295D01*
X175951590Y-67913427D01*
X175998991Y-67786812D01*
X176050352Y-67649499D01*
X176104903Y-67503540D01*
X176161876Y-67350984D01*
X176164450Y-67344089D01*
X176517528Y-66398274D01*
X177393600Y-66398274D01*
X177393600Y-66433038D01*
G36*
X179596453Y-66398381D02*
G01*
X179661440Y-66398946D01*
X179706551Y-66400331D01*
X179735215Y-66402900D01*
X179750863Y-66407016D01*
X179756925Y-66413042D01*
X179756831Y-66421342D01*
X179756062Y-66424533D01*
X179750334Y-66440966D01*
X179735872Y-66480424D01*
X179713419Y-66540930D01*
X179683716Y-66620508D01*
X179647505Y-66717180D01*
X179605527Y-66828970D01*
X179558523Y-66953901D01*
X179507236Y-67089997D01*
X179452407Y-67235279D01*
X179394777Y-67387773D01*
X179384935Y-67413796D01*
X179020675Y-68376800D01*
X178506882Y-68376800D01*
X178871486Y-67401532D01*
X178929202Y-67247262D01*
X178984323Y-67100153D01*
X179036118Y-66962142D01*
X179083855Y-66835166D01*
X179126804Y-66721161D01*
X179164234Y-66622064D01*
X179195415Y-66539812D01*
X179219615Y-66476343D01*
X179236104Y-66433592D01*
X179244151Y-66413497D01*
X179244739Y-66412269D01*
X179261567Y-66406869D01*
X179303693Y-66402715D01*
X179369708Y-66399882D01*
X179458199Y-66398445D01*
X179508159Y-66398274D01*
X179596453Y-66398381D01*
X179596453Y-66398381D01*
G37*
X179596453Y-66398381D02*
X179661440Y-66398946D01*
X179706551Y-66400331D01*
X179735215Y-66402900D01*
X179750863Y-66407016D01*
X179756925Y-66413042D01*
X179756831Y-66421342D01*
X179756062Y-66424533D01*
X179750334Y-66440966D01*
X179735872Y-66480424D01*
X179713419Y-66540930D01*
X179683716Y-66620508D01*
X179647505Y-66717180D01*
X179605527Y-66828970D01*
X179558523Y-66953901D01*
X179507236Y-67089997D01*
X179452407Y-67235279D01*
X179394777Y-67387773D01*
X179384935Y-67413796D01*
X179020675Y-68376800D01*
X178506882Y-68376800D01*
X178871486Y-67401532D01*
X178929202Y-67247262D01*
X178984323Y-67100153D01*
X179036118Y-66962142D01*
X179083855Y-66835166D01*
X179126804Y-66721161D01*
X179164234Y-66622064D01*
X179195415Y-66539812D01*
X179219615Y-66476343D01*
X179236104Y-66433592D01*
X179244151Y-66413497D01*
X179244739Y-66412269D01*
X179261567Y-66406869D01*
X179303693Y-66402715D01*
X179369708Y-66399882D01*
X179458199Y-66398445D01*
X179508159Y-66398274D01*
X179596453Y-66398381D01*
G36*
X177697245Y-58406797D02*
G01*
X177912078Y-58407042D01*
X178038050Y-58407252D01*
X179864173Y-58410642D01*
X179567456Y-59219432D01*
X179495002Y-59416098D01*
X179430173Y-59589849D01*
X179371849Y-59743033D01*
X179318908Y-59877999D01*
X179270228Y-59997097D01*
X179224688Y-60102676D01*
X179181168Y-60197084D01*
X179138544Y-60282673D01*
X179095697Y-60361790D01*
X179051504Y-60436785D01*
X179004845Y-60510008D01*
X178954597Y-60583807D01*
X178899640Y-60660533D01*
X178843189Y-60736747D01*
X178678794Y-60938899D01*
X178506345Y-61116353D01*
X178323871Y-61270446D01*
X178129405Y-61402516D01*
X177920978Y-61513901D01*
X177696620Y-61605936D01*
X177454491Y-61679926D01*
X177377626Y-61699006D01*
X177297766Y-61716853D01*
X177211237Y-61734108D01*
X177114363Y-61751415D01*
X177003467Y-61769416D01*
X176874875Y-61788755D01*
X176724911Y-61810073D01*
X176655224Y-61819696D01*
X176482505Y-61844221D01*
X176332870Y-61867470D01*
X176202747Y-61890240D01*
X176088563Y-61913329D01*
X175986747Y-61937532D01*
X175893725Y-61963649D01*
X175805927Y-61992476D01*
X175719778Y-62024809D01*
X175699295Y-62033040D01*
X175562329Y-62095115D01*
X175435933Y-62166733D01*
X175314871Y-62251587D01*
X175193906Y-62353366D01*
X175067803Y-62475762D01*
X175060441Y-62483344D01*
X174881831Y-62685763D01*
X174718229Y-62908721D01*
X174569352Y-63152721D01*
X174434914Y-63418271D01*
X174314632Y-63705876D01*
X174219958Y-63978589D01*
X174201776Y-64034632D01*
X174176111Y-64111897D01*
X174144326Y-64206375D01*
X174107781Y-64314056D01*
X174067840Y-64430932D01*
X174025865Y-64552993D01*
X173983216Y-64676230D01*
X173972464Y-64707168D01*
X173786455Y-65241905D01*
X171973870Y-65245295D01*
X171711149Y-65245695D01*
X171466136Y-65245882D01*
X171239621Y-65245859D01*
X171032395Y-65245632D01*
X170845247Y-65245204D01*
X170678967Y-65244579D01*
X170534345Y-65243761D01*
X170412170Y-65242755D01*
X170313233Y-65241563D01*
X170238323Y-65240190D01*
X170188230Y-65238640D01*
X170163744Y-65236918D01*
X170161285Y-65236125D01*
X170165699Y-65220882D01*
X170178308Y-65183171D01*
X170198156Y-65125645D01*
X170224292Y-65050960D01*
X170255761Y-64961770D01*
X170291610Y-64860730D01*
X170330885Y-64750493D01*
X170372633Y-64633716D01*
X170415900Y-64513052D01*
X170459733Y-64391157D01*
X170503179Y-64270684D01*
X170545283Y-64154289D01*
X170585093Y-64044625D01*
X170621655Y-63944349D01*
X170654016Y-63856113D01*
X170681221Y-63782574D01*
X170702318Y-63726385D01*
X170716353Y-63690201D01*
X170718019Y-63686107D01*
X170842497Y-63410557D01*
X170979275Y-63158635D01*
X171128574Y-62930117D01*
X171290612Y-62724777D01*
X171465610Y-62542392D01*
X171653786Y-62382737D01*
X171855361Y-62245588D01*
X172070554Y-62130721D01*
X172299584Y-62037911D01*
X172347021Y-62021992D01*
X172424125Y-61997430D01*
X172496231Y-61975645D01*
X172566753Y-61955896D01*
X172639105Y-61937438D01*
X172716702Y-61919529D01*
X172802957Y-61901424D01*
X172901284Y-61882382D01*
X173015098Y-61861659D01*
X173147813Y-61838511D01*
X173302843Y-61812195D01*
X173337569Y-61806362D01*
X173527560Y-61773194D01*
X173694502Y-61741038D01*
X173842009Y-61708899D01*
X173973693Y-61675785D01*
X174093167Y-61640701D01*
X174204044Y-61602654D01*
X174309936Y-61560649D01*
X174414458Y-61513693D01*
X174432001Y-61505314D01*
X174633659Y-61393480D01*
X174821480Y-61258892D01*
X174995111Y-61101887D01*
X175154200Y-60922798D01*
X175298394Y-60721962D01*
X175356222Y-60628164D01*
X175419765Y-60516482D01*
X175480509Y-60401606D01*
X175539471Y-60281012D01*
X175597670Y-60152178D01*
X175656125Y-60012580D01*
X175715855Y-59859696D01*
X175777877Y-59691003D01*
X175843212Y-59503977D01*
X175912877Y-59296095D01*
X175987891Y-59064836D01*
X175989754Y-59059011D01*
X176029833Y-58934101D01*
X176067664Y-58816935D01*
X176102434Y-58709982D01*
X176133329Y-58615709D01*
X176159537Y-58536583D01*
X176180243Y-58475073D01*
X176194634Y-58433644D01*
X176201898Y-58414767D01*
X176202401Y-58413936D01*
X176216671Y-58412754D01*
X176256135Y-58411659D01*
X176319252Y-58410659D01*
X176404479Y-58409757D01*
X176510276Y-58408961D01*
X176635099Y-58408275D01*
X176777406Y-58407705D01*
X176935657Y-58407258D01*
X177108308Y-58406937D01*
X177293817Y-58406750D01*
X177490644Y-58406701D01*
X177697245Y-58406797D01*
X177697245Y-58406797D01*
G37*
X177697245Y-58406797D02*
X177912078Y-58407042D01*
X178038050Y-58407252D01*
X179864173Y-58410642D01*
X179567456Y-59219432D01*
X179495002Y-59416098D01*
X179430173Y-59589849D01*
X179371849Y-59743033D01*
X179318908Y-59877999D01*
X179270228Y-59997097D01*
X179224688Y-60102676D01*
X179181168Y-60197084D01*
X179138544Y-60282673D01*
X179095697Y-60361790D01*
X179051504Y-60436785D01*
X179004845Y-60510008D01*
X178954597Y-60583807D01*
X178899640Y-60660533D01*
X178843189Y-60736747D01*
X178678794Y-60938899D01*
X178506345Y-61116353D01*
X178323871Y-61270446D01*
X178129405Y-61402516D01*
X177920978Y-61513901D01*
X177696620Y-61605936D01*
X177454491Y-61679926D01*
X177377626Y-61699006D01*
X177297766Y-61716853D01*
X177211237Y-61734108D01*
X177114363Y-61751415D01*
X177003467Y-61769416D01*
X176874875Y-61788755D01*
X176724911Y-61810073D01*
X176655224Y-61819696D01*
X176482505Y-61844221D01*
X176332870Y-61867470D01*
X176202747Y-61890240D01*
X176088563Y-61913329D01*
X175986747Y-61937532D01*
X175893725Y-61963649D01*
X175805927Y-61992476D01*
X175719778Y-62024809D01*
X175699295Y-62033040D01*
X175562329Y-62095115D01*
X175435933Y-62166733D01*
X175314871Y-62251587D01*
X175193906Y-62353366D01*
X175067803Y-62475762D01*
X175060441Y-62483344D01*
X174881831Y-62685763D01*
X174718229Y-62908721D01*
X174569352Y-63152721D01*
X174434914Y-63418271D01*
X174314632Y-63705876D01*
X174219958Y-63978589D01*
X174201776Y-64034632D01*
X174176111Y-64111897D01*
X174144326Y-64206375D01*
X174107781Y-64314056D01*
X174067840Y-64430932D01*
X174025865Y-64552993D01*
X173983216Y-64676230D01*
X173972464Y-64707168D01*
X173786455Y-65241905D01*
X171973870Y-65245295D01*
X171711149Y-65245695D01*
X171466136Y-65245882D01*
X171239621Y-65245859D01*
X171032395Y-65245632D01*
X170845247Y-65245204D01*
X170678967Y-65244579D01*
X170534345Y-65243761D01*
X170412170Y-65242755D01*
X170313233Y-65241563D01*
X170238323Y-65240190D01*
X170188230Y-65238640D01*
X170163744Y-65236918D01*
X170161285Y-65236125D01*
X170165699Y-65220882D01*
X170178308Y-65183171D01*
X170198156Y-65125645D01*
X170224292Y-65050960D01*
X170255761Y-64961770D01*
X170291610Y-64860730D01*
X170330885Y-64750493D01*
X170372633Y-64633716D01*
X170415900Y-64513052D01*
X170459733Y-64391157D01*
X170503179Y-64270684D01*
X170545283Y-64154289D01*
X170585093Y-64044625D01*
X170621655Y-63944349D01*
X170654016Y-63856113D01*
X170681221Y-63782574D01*
X170702318Y-63726385D01*
X170716353Y-63690201D01*
X170718019Y-63686107D01*
X170842497Y-63410557D01*
X170979275Y-63158635D01*
X171128574Y-62930117D01*
X171290612Y-62724777D01*
X171465610Y-62542392D01*
X171653786Y-62382737D01*
X171855361Y-62245588D01*
X172070554Y-62130721D01*
X172299584Y-62037911D01*
X172347021Y-62021992D01*
X172424125Y-61997430D01*
X172496231Y-61975645D01*
X172566753Y-61955896D01*
X172639105Y-61937438D01*
X172716702Y-61919529D01*
X172802957Y-61901424D01*
X172901284Y-61882382D01*
X173015098Y-61861659D01*
X173147813Y-61838511D01*
X173302843Y-61812195D01*
X173337569Y-61806362D01*
X173527560Y-61773194D01*
X173694502Y-61741038D01*
X173842009Y-61708899D01*
X173973693Y-61675785D01*
X174093167Y-61640701D01*
X174204044Y-61602654D01*
X174309936Y-61560649D01*
X174414458Y-61513693D01*
X174432001Y-61505314D01*
X174633659Y-61393480D01*
X174821480Y-61258892D01*
X174995111Y-61101887D01*
X175154200Y-60922798D01*
X175298394Y-60721962D01*
X175356222Y-60628164D01*
X175419765Y-60516482D01*
X175480509Y-60401606D01*
X175539471Y-60281012D01*
X175597670Y-60152178D01*
X175656125Y-60012580D01*
X175715855Y-59859696D01*
X175777877Y-59691003D01*
X175843212Y-59503977D01*
X175912877Y-59296095D01*
X175987891Y-59064836D01*
X175989754Y-59059011D01*
X176029833Y-58934101D01*
X176067664Y-58816935D01*
X176102434Y-58709982D01*
X176133329Y-58615709D01*
X176159537Y-58536583D01*
X176180243Y-58475073D01*
X176194634Y-58433644D01*
X176201898Y-58414767D01*
X176202401Y-58413936D01*
X176216671Y-58412754D01*
X176256135Y-58411659D01*
X176319252Y-58410659D01*
X176404479Y-58409757D01*
X176510276Y-58408961D01*
X176635099Y-58408275D01*
X176777406Y-58407705D01*
X176935657Y-58407258D01*
X177108308Y-58406937D01*
X177293817Y-58406750D01*
X177490644Y-58406701D01*
X177697245Y-58406797D01*
G36*
X174887225Y-55064248D02*
G01*
X175083455Y-55064392D01*
X175289438Y-55064623D01*
X175503631Y-55064944D01*
X175617459Y-55065147D01*
X177428416Y-55068537D01*
X177159150Y-55817168D01*
X177099147Y-55983927D01*
X177047261Y-56127845D01*
X177002579Y-56251252D01*
X176964189Y-56356472D01*
X176931180Y-56445834D01*
X176902640Y-56521663D01*
X176877656Y-56586288D01*
X176855316Y-56642034D01*
X176834708Y-56691229D01*
X176814921Y-56736199D01*
X176795042Y-56779271D01*
X176774158Y-56822772D01*
X176751359Y-56869030D01*
X176730346Y-56911146D01*
X176595679Y-57157528D01*
X176449774Y-57380002D01*
X176291810Y-57579282D01*
X176120967Y-57756084D01*
X175936424Y-57911124D01*
X175737361Y-58045116D01*
X175522959Y-58158776D01*
X175292396Y-58252818D01*
X175132874Y-58303938D01*
X175045062Y-58327992D01*
X174952299Y-58350603D01*
X174851109Y-58372430D01*
X174738016Y-58394131D01*
X174609543Y-58416365D01*
X174462214Y-58439791D01*
X174292553Y-58465067D01*
X174250219Y-58471181D01*
X174051212Y-58500719D01*
X173876140Y-58528995D01*
X173722285Y-58556838D01*
X173586926Y-58585077D01*
X173467344Y-58614541D01*
X173360819Y-58646060D01*
X173264632Y-58680462D01*
X173176063Y-58718577D01*
X173092393Y-58761235D01*
X173010903Y-58809264D01*
X172928873Y-58863494D01*
X172902136Y-58882241D01*
X172839934Y-58931037D01*
X172767025Y-58995669D01*
X172688864Y-59070673D01*
X172610908Y-59150586D01*
X172538611Y-59229946D01*
X172477429Y-59303288D01*
X172463174Y-59321815D01*
X172322154Y-59525514D01*
X172185898Y-59755475D01*
X172054398Y-60011715D01*
X171935548Y-60275537D01*
X171908835Y-60338653D01*
X171885439Y-60394515D01*
X171864396Y-60445879D01*
X171844741Y-60495502D01*
X171825509Y-60546138D01*
X171805736Y-60600545D01*
X171784456Y-60661478D01*
X171760705Y-60731692D01*
X171733518Y-60813945D01*
X171701931Y-60910992D01*
X171664979Y-61025589D01*
X171621697Y-61160493D01*
X171577971Y-61297053D01*
X171539482Y-61417082D01*
X171503350Y-61529337D01*
X171470414Y-61631244D01*
X171441512Y-61720225D01*
X171417484Y-61793705D01*
X171399169Y-61849109D01*
X171387405Y-61883859D01*
X171383151Y-61895290D01*
X171369197Y-61896634D01*
X171330049Y-61897931D01*
X171267248Y-61899173D01*
X171182337Y-61900350D01*
X171076858Y-61901453D01*
X170952353Y-61902472D01*
X170810365Y-61903397D01*
X170652436Y-61904220D01*
X170480108Y-61904930D01*
X170294924Y-61905519D01*
X170098425Y-61905976D01*
X169892153Y-61906293D01*
X169677652Y-61906460D01*
X169557486Y-61906484D01*
X169291543Y-61906441D01*
X169051211Y-61906303D01*
X168835368Y-61906060D01*
X168642889Y-61905703D01*
X168472650Y-61905220D01*
X168323526Y-61904601D01*
X168194394Y-61903837D01*
X168084128Y-61902916D01*
X167991606Y-61901828D01*
X167915702Y-61900563D01*
X167855292Y-61899110D01*
X167809252Y-61897460D01*
X167776459Y-61895601D01*
X167755787Y-61893524D01*
X167746112Y-61891217D01*
X167745096Y-61889774D01*
X167750595Y-61874614D01*
X167764352Y-61836419D01*
X167785602Y-61777320D01*
X167813580Y-61699450D01*
X167847519Y-61604939D01*
X167886654Y-61495922D01*
X167930220Y-61374528D01*
X167977450Y-61242892D01*
X168027580Y-61103144D01*
X168048714Y-61044221D01*
X168116717Y-60855279D01*
X168176867Y-60689659D01*
X168229929Y-60545376D01*
X168276666Y-60420441D01*
X168317842Y-60312868D01*
X168354219Y-60220668D01*
X168386562Y-60141855D01*
X168415635Y-60074442D01*
X168442200Y-60016440D01*
X168449356Y-60001484D01*
X168576687Y-59763276D01*
X168717782Y-59547756D01*
X168873490Y-59354201D01*
X169044660Y-59181889D01*
X169232140Y-59030096D01*
X169436781Y-58898101D01*
X169659429Y-58785181D01*
X169900935Y-58690613D01*
X170040969Y-58646492D01*
X170107456Y-58627552D01*
X170171154Y-58610338D01*
X170235526Y-58594114D01*
X170304035Y-58578140D01*
X170380144Y-58561678D01*
X170467317Y-58543991D01*
X170569016Y-58524339D01*
X170688706Y-58501984D01*
X170829848Y-58476188D01*
X170895737Y-58464262D01*
X171081269Y-58430104D01*
X171243264Y-58398720D01*
X171384685Y-58369301D01*
X171508490Y-58341038D01*
X171617640Y-58313124D01*
X171715094Y-58284749D01*
X171803814Y-58255105D01*
X171886759Y-58223383D01*
X171966890Y-58188776D01*
X172047166Y-58150474D01*
X172050271Y-58148928D01*
X172251999Y-58033515D01*
X172440571Y-57895033D01*
X172615563Y-57733925D01*
X172776548Y-57550635D01*
X172923100Y-57345606D01*
X173054794Y-57119282D01*
X173072738Y-57084511D01*
X173118189Y-56993076D01*
X173157792Y-56908334D01*
X173193798Y-56824620D01*
X173228456Y-56736269D01*
X173264015Y-56637616D01*
X173302725Y-56522995D01*
X173334443Y-56425432D01*
X173354953Y-56362465D01*
X173381088Y-56283566D01*
X173411889Y-56191524D01*
X173446399Y-56089126D01*
X173483661Y-55979160D01*
X173522716Y-55864414D01*
X173562606Y-55747676D01*
X173602376Y-55631733D01*
X173641065Y-55519374D01*
X173677717Y-55413386D01*
X173711375Y-55316558D01*
X173741079Y-55231676D01*
X173765873Y-55161529D01*
X173784800Y-55108905D01*
X173796900Y-55076592D01*
X173801024Y-55067236D01*
X173814804Y-55066601D01*
X173853777Y-55066037D01*
X173916398Y-55065544D01*
X174001125Y-55065124D01*
X174106412Y-55064780D01*
X174230716Y-55064512D01*
X174372494Y-55064324D01*
X174530200Y-55064216D01*
X174702292Y-55064190D01*
X174887225Y-55064248D01*
X174887225Y-55064248D01*
G37*
X174887225Y-55064248D02*
X175083455Y-55064392D01*
X175289438Y-55064623D01*
X175503631Y-55064944D01*
X175617459Y-55065147D01*
X177428416Y-55068537D01*
X177159150Y-55817168D01*
X177099147Y-55983927D01*
X177047261Y-56127845D01*
X177002579Y-56251252D01*
X176964189Y-56356472D01*
X176931180Y-56445834D01*
X176902640Y-56521663D01*
X176877656Y-56586288D01*
X176855316Y-56642034D01*
X176834708Y-56691229D01*
X176814921Y-56736199D01*
X176795042Y-56779271D01*
X176774158Y-56822772D01*
X176751359Y-56869030D01*
X176730346Y-56911146D01*
X176595679Y-57157528D01*
X176449774Y-57380002D01*
X176291810Y-57579282D01*
X176120967Y-57756084D01*
X175936424Y-57911124D01*
X175737361Y-58045116D01*
X175522959Y-58158776D01*
X175292396Y-58252818D01*
X175132874Y-58303938D01*
X175045062Y-58327992D01*
X174952299Y-58350603D01*
X174851109Y-58372430D01*
X174738016Y-58394131D01*
X174609543Y-58416365D01*
X174462214Y-58439791D01*
X174292553Y-58465067D01*
X174250219Y-58471181D01*
X174051212Y-58500719D01*
X173876140Y-58528995D01*
X173722285Y-58556838D01*
X173586926Y-58585077D01*
X173467344Y-58614541D01*
X173360819Y-58646060D01*
X173264632Y-58680462D01*
X173176063Y-58718577D01*
X173092393Y-58761235D01*
X173010903Y-58809264D01*
X172928873Y-58863494D01*
X172902136Y-58882241D01*
X172839934Y-58931037D01*
X172767025Y-58995669D01*
X172688864Y-59070673D01*
X172610908Y-59150586D01*
X172538611Y-59229946D01*
X172477429Y-59303288D01*
X172463174Y-59321815D01*
X172322154Y-59525514D01*
X172185898Y-59755475D01*
X172054398Y-60011715D01*
X171935548Y-60275537D01*
X171908835Y-60338653D01*
X171885439Y-60394515D01*
X171864396Y-60445879D01*
X171844741Y-60495502D01*
X171825509Y-60546138D01*
X171805736Y-60600545D01*
X171784456Y-60661478D01*
X171760705Y-60731692D01*
X171733518Y-60813945D01*
X171701931Y-60910992D01*
X171664979Y-61025589D01*
X171621697Y-61160493D01*
X171577971Y-61297053D01*
X171539482Y-61417082D01*
X171503350Y-61529337D01*
X171470414Y-61631244D01*
X171441512Y-61720225D01*
X171417484Y-61793705D01*
X171399169Y-61849109D01*
X171387405Y-61883859D01*
X171383151Y-61895290D01*
X171369197Y-61896634D01*
X171330049Y-61897931D01*
X171267248Y-61899173D01*
X171182337Y-61900350D01*
X171076858Y-61901453D01*
X170952353Y-61902472D01*
X170810365Y-61903397D01*
X170652436Y-61904220D01*
X170480108Y-61904930D01*
X170294924Y-61905519D01*
X170098425Y-61905976D01*
X169892153Y-61906293D01*
X169677652Y-61906460D01*
X169557486Y-61906484D01*
X169291543Y-61906441D01*
X169051211Y-61906303D01*
X168835368Y-61906060D01*
X168642889Y-61905703D01*
X168472650Y-61905220D01*
X168323526Y-61904601D01*
X168194394Y-61903837D01*
X168084128Y-61902916D01*
X167991606Y-61901828D01*
X167915702Y-61900563D01*
X167855292Y-61899110D01*
X167809252Y-61897460D01*
X167776459Y-61895601D01*
X167755787Y-61893524D01*
X167746112Y-61891217D01*
X167745096Y-61889774D01*
X167750595Y-61874614D01*
X167764352Y-61836419D01*
X167785602Y-61777320D01*
X167813580Y-61699450D01*
X167847519Y-61604939D01*
X167886654Y-61495922D01*
X167930220Y-61374528D01*
X167977450Y-61242892D01*
X168027580Y-61103144D01*
X168048714Y-61044221D01*
X168116717Y-60855279D01*
X168176867Y-60689659D01*
X168229929Y-60545376D01*
X168276666Y-60420441D01*
X168317842Y-60312868D01*
X168354219Y-60220668D01*
X168386562Y-60141855D01*
X168415635Y-60074442D01*
X168442200Y-60016440D01*
X168449356Y-60001484D01*
X168576687Y-59763276D01*
X168717782Y-59547756D01*
X168873490Y-59354201D01*
X169044660Y-59181889D01*
X169232140Y-59030096D01*
X169436781Y-58898101D01*
X169659429Y-58785181D01*
X169900935Y-58690613D01*
X170040969Y-58646492D01*
X170107456Y-58627552D01*
X170171154Y-58610338D01*
X170235526Y-58594114D01*
X170304035Y-58578140D01*
X170380144Y-58561678D01*
X170467317Y-58543991D01*
X170569016Y-58524339D01*
X170688706Y-58501984D01*
X170829848Y-58476188D01*
X170895737Y-58464262D01*
X171081269Y-58430104D01*
X171243264Y-58398720D01*
X171384685Y-58369301D01*
X171508490Y-58341038D01*
X171617640Y-58313124D01*
X171715094Y-58284749D01*
X171803814Y-58255105D01*
X171886759Y-58223383D01*
X171966890Y-58188776D01*
X172047166Y-58150474D01*
X172050271Y-58148928D01*
X172251999Y-58033515D01*
X172440571Y-57895033D01*
X172615563Y-57733925D01*
X172776548Y-57550635D01*
X172923100Y-57345606D01*
X173054794Y-57119282D01*
X173072738Y-57084511D01*
X173118189Y-56993076D01*
X173157792Y-56908334D01*
X173193798Y-56824620D01*
X173228456Y-56736269D01*
X173264015Y-56637616D01*
X173302725Y-56522995D01*
X173334443Y-56425432D01*
X173354953Y-56362465D01*
X173381088Y-56283566D01*
X173411889Y-56191524D01*
X173446399Y-56089126D01*
X173483661Y-55979160D01*
X173522716Y-55864414D01*
X173562606Y-55747676D01*
X173602376Y-55631733D01*
X173641065Y-55519374D01*
X173677717Y-55413386D01*
X173711375Y-55316558D01*
X173741079Y-55231676D01*
X173765873Y-55161529D01*
X173784800Y-55108905D01*
X173796900Y-55076592D01*
X173801024Y-55067236D01*
X173814804Y-55066601D01*
X173853777Y-55066037D01*
X173916398Y-55065544D01*
X174001125Y-55065124D01*
X174106412Y-55064780D01*
X174230716Y-55064512D01*
X174372494Y-55064324D01*
X174530200Y-55064216D01*
X174702292Y-55064190D01*
X174887225Y-55064248D01*
D11*
X194238000Y-126950000D02*
X205088000Y-126950000D01*
X194238000Y-121850000D02*
X194238000Y-126950000D01*
X194738000Y-122150000D02*
X194238000Y-121850000D01*
X194738000Y-116750000D02*
X194738000Y-122150000D01*
X194238000Y-117000000D02*
X194738000Y-116750000D01*
X194238000Y-116950000D02*
X194238000Y-117000000D01*
X194238000Y-115050000D02*
X194238000Y-116950000D01*
X194738000Y-115300000D02*
X194238000Y-115050000D01*
X194738000Y-114350000D02*
X194738000Y-115300000D01*
X205088000Y-114350000D02*
X194738000Y-114350000D01*
X205088000Y-126950000D02*
X205088000Y-114350000D01*
X214944000Y-110804000D02*
X213614000Y-110804000D01*
X214944000Y-109474000D02*
X214944000Y-110804000D01*
X212344000Y-110804000D02*
X209744000Y-110804000D01*
X212344000Y-108204000D02*
X212344000Y-110804000D01*
X214944000Y-108204000D02*
X212344000Y-108204000D01*
X209744000Y-110804000D02*
X209744000Y-59884000D01*
X214944000Y-108204000D02*
X214944000Y-59884000D01*
X214944000Y-59884000D02*
X209744000Y-59884000D01*
X243074500Y-51939500D02*
X241744500Y-51939500D01*
X243074500Y-50609500D02*
X243074500Y-51939500D01*
X243074500Y-49339500D02*
X240414500Y-49339500D01*
X240414500Y-49339500D02*
X240414500Y-46739500D01*
X243074500Y-49339500D02*
X243074500Y-46739500D01*
X243074500Y-46739500D02*
X240414500Y-46739500D01*
X244611200Y-122622000D02*
X244611200Y-123952000D01*
X243281200Y-122622000D02*
X244611200Y-122622000D01*
X242011200Y-122622000D02*
X242011200Y-125282000D01*
X242011200Y-125282000D02*
X236871200Y-125282000D01*
X242011200Y-122622000D02*
X236871200Y-122622000D01*
X236871200Y-122622000D02*
X236871200Y-125282000D01*
X212157000Y-54670000D02*
X212157000Y-53340000D01*
X213487000Y-54670000D02*
X212157000Y-54670000D01*
X214757000Y-54670000D02*
X214757000Y-52010000D01*
X214757000Y-52010000D02*
X217357000Y-52010000D01*
X214757000Y-54670000D02*
X217357000Y-54670000D01*
X217357000Y-54670000D02*
X217357000Y-52010000D01*
D13*
X200279000Y-71501000D02*
X199009000Y-70231000D01*
X199009000Y-70231000D02*
X173609000Y-70231000D01*
X173609000Y-70231000D02*
X173609000Y-96901000D01*
X173609000Y-96901000D02*
X200279000Y-96901000D01*
X200279000Y-96901000D02*
X200279000Y-71501000D01*
D11*
X254314000Y-110804000D02*
X252984000Y-110804000D01*
X254314000Y-109474000D02*
X254314000Y-110804000D01*
X251714000Y-110804000D02*
X249114000Y-110804000D01*
X251714000Y-108204000D02*
X251714000Y-110804000D01*
X254314000Y-108204000D02*
X251714000Y-108204000D01*
X249114000Y-110804000D02*
X249114000Y-59884000D01*
X254314000Y-108204000D02*
X254314000Y-59884000D01*
X254314000Y-59884000D02*
X249114000Y-59884000D01*
X201768000Y-84086000D02*
X201768000Y-83476000D01*
X201768000Y-86196000D02*
X201768000Y-85586000D01*
X205688000Y-84086000D02*
X205688000Y-83476000D01*
X205688000Y-86196000D02*
X205688000Y-85586000D01*
X205688000Y-83476000D02*
X201768000Y-83476000D01*
X205688000Y-86196000D02*
X201768000Y-86196000D01*
X168200000Y-80936000D02*
X172120000Y-80936000D01*
X168200000Y-83656000D02*
X172120000Y-83656000D01*
X168200000Y-80936000D02*
X168200000Y-81546000D01*
X168200000Y-83046000D02*
X168200000Y-83656000D01*
X172120000Y-80936000D02*
X172120000Y-81546000D01*
X172120000Y-83046000D02*
X172120000Y-83656000D01*
X235042000Y-50939000D02*
X235042000Y-50329000D01*
X235042000Y-53049000D02*
X235042000Y-52439000D01*
X238962000Y-50939000D02*
X238962000Y-50329000D01*
X238962000Y-53049000D02*
X238962000Y-52439000D01*
X238962000Y-50329000D02*
X235042000Y-50329000D01*
X238962000Y-53049000D02*
X235042000Y-53049000D01*
X222810000Y-50583000D02*
X226730000Y-50583000D01*
X222810000Y-53303000D02*
X226730000Y-53303000D01*
X222810000Y-50583000D02*
X222810000Y-51193000D01*
X222810000Y-52693000D02*
X222810000Y-53303000D01*
X226730000Y-50583000D02*
X226730000Y-51193000D01*
X226730000Y-52693000D02*
X226730000Y-53303000D01*
X226730000Y-49391000D02*
X226730000Y-50001000D01*
X226730000Y-47281000D02*
X226730000Y-47891000D01*
X222810000Y-49391000D02*
X222810000Y-50001000D01*
X222810000Y-47281000D02*
X222810000Y-47891000D01*
X222810000Y-50001000D02*
X226730000Y-50001000D01*
X222810000Y-47281000D02*
X226730000Y-47281000D01*
X238962000Y-67146000D02*
X235042000Y-67146000D01*
X238962000Y-64426000D02*
X235042000Y-64426000D01*
X238962000Y-67146000D02*
X238962000Y-66536000D01*
X238962000Y-65036000D02*
X238962000Y-64426000D01*
X235042000Y-67146000D02*
X235042000Y-66536000D01*
X235042000Y-65036000D02*
X235042000Y-64426000D01*
X222810000Y-64807000D02*
X226730000Y-64807000D01*
X222810000Y-67527000D02*
X226730000Y-67527000D01*
X222810000Y-64807000D02*
X222810000Y-65417000D01*
X222810000Y-66917000D02*
X222810000Y-67527000D01*
X226730000Y-64807000D02*
X226730000Y-65417000D01*
X226730000Y-66917000D02*
X226730000Y-67527000D01*
X226730000Y-63615000D02*
X226730000Y-64225000D01*
X226730000Y-61505000D02*
X226730000Y-62115000D01*
X222810000Y-63615000D02*
X222810000Y-64225000D01*
X222810000Y-61505000D02*
X222810000Y-62115000D01*
X222810000Y-64225000D02*
X226730000Y-64225000D01*
X222810000Y-61505000D02*
X226730000Y-61505000D01*
X235042000Y-79514000D02*
X235042000Y-78904000D01*
X235042000Y-81624000D02*
X235042000Y-81014000D01*
X238962000Y-79514000D02*
X238962000Y-78904000D01*
X238962000Y-81624000D02*
X238962000Y-81014000D01*
X238962000Y-78904000D02*
X235042000Y-78904000D01*
X238962000Y-81624000D02*
X235042000Y-81624000D01*
X222810000Y-79285000D02*
X226730000Y-79285000D01*
X222810000Y-82005000D02*
X226730000Y-82005000D01*
X222810000Y-79285000D02*
X222810000Y-79895000D01*
X222810000Y-81395000D02*
X222810000Y-82005000D01*
X226730000Y-79285000D02*
X226730000Y-79895000D01*
X226730000Y-81395000D02*
X226730000Y-82005000D01*
X226730000Y-78093000D02*
X226730000Y-78703000D01*
X226730000Y-75983000D02*
X226730000Y-76593000D01*
X222810000Y-78093000D02*
X222810000Y-78703000D01*
X222810000Y-75983000D02*
X222810000Y-76593000D01*
X222810000Y-78703000D02*
X226730000Y-78703000D01*
X222810000Y-75983000D02*
X226730000Y-75983000D01*
X238962000Y-95848000D02*
X235042000Y-95848000D01*
X238962000Y-93128000D02*
X235042000Y-93128000D01*
X238962000Y-95848000D02*
X238962000Y-95238000D01*
X238962000Y-93738000D02*
X238962000Y-93128000D01*
X235042000Y-95848000D02*
X235042000Y-95238000D01*
X235042000Y-93738000D02*
X235042000Y-93128000D01*
X222810000Y-93001000D02*
X226730000Y-93001000D01*
X222810000Y-95721000D02*
X226730000Y-95721000D01*
X222810000Y-93001000D02*
X222810000Y-93611000D01*
X222810000Y-95111000D02*
X222810000Y-95721000D01*
X226730000Y-93001000D02*
X226730000Y-93611000D01*
X226730000Y-95111000D02*
X226730000Y-95721000D01*
X226730000Y-91809000D02*
X226730000Y-92419000D01*
X226730000Y-89699000D02*
X226730000Y-90309000D01*
X222810000Y-91809000D02*
X222810000Y-92419000D01*
X222810000Y-89699000D02*
X222810000Y-90309000D01*
X222810000Y-92419000D02*
X226730000Y-92419000D01*
X222810000Y-89699000D02*
X226730000Y-89699000D01*
X237630400Y-116881200D02*
X238240400Y-116881200D01*
X235520400Y-116881200D02*
X236130400Y-116881200D01*
X237630400Y-120801200D02*
X238240400Y-120801200D01*
X235520400Y-120801200D02*
X236130400Y-120801200D01*
X238240400Y-120801200D02*
X238240400Y-116881200D01*
X235520400Y-120801200D02*
X235520400Y-116881200D01*
X223430000Y-120953600D02*
X223430000Y-117033600D01*
X226150000Y-120953600D02*
X226150000Y-117033600D01*
X223430000Y-120953600D02*
X224040000Y-120953600D01*
X225540000Y-120953600D02*
X226150000Y-120953600D01*
X223430000Y-117033600D02*
X224040000Y-117033600D01*
X225540000Y-117033600D02*
X226150000Y-117033600D01*
X221933200Y-117033600D02*
X222543200Y-117033600D01*
X219823200Y-117033600D02*
X220433200Y-117033600D01*
X221933200Y-120953600D02*
X222543200Y-120953600D01*
X219823200Y-120953600D02*
X220433200Y-120953600D01*
X222543200Y-120953600D02*
X222543200Y-117033600D01*
X219823200Y-120953600D02*
X219823200Y-117033600D01*
X202917000Y-54210500D02*
X202917000Y-57930500D01*
X201197000Y-54210500D02*
X201197000Y-57930500D01*
X191926000Y-54223200D02*
X191926000Y-57943200D01*
X193646000Y-54223200D02*
X193646000Y-57943200D01*
X205647500Y-54210500D02*
X205647500Y-57930500D01*
X203927500Y-54210500D02*
X203927500Y-57930500D01*
X198466500Y-54210500D02*
X198466500Y-57930500D01*
X200186500Y-54210500D02*
X200186500Y-57930500D01*
X194847000Y-54210500D02*
X194847000Y-57930500D01*
X196567000Y-54210500D02*
X196567000Y-57930500D01*
X234143000Y-48993000D02*
X230423000Y-48993000D01*
X234143000Y-47273000D02*
X230423000Y-47273000D01*
X220570000Y-66630000D02*
X220570000Y-62910000D01*
X218850000Y-66630000D02*
X218850000Y-62910000D01*
X218723000Y-80981000D02*
X218723000Y-77261000D01*
X220443000Y-80981000D02*
X220443000Y-77261000D01*
X219358000Y-93300000D02*
X219358000Y-89580000D01*
X221078000Y-93300000D02*
X221078000Y-89580000D01*
X213278000Y-50771000D02*
X216998000Y-50771000D01*
X213278000Y-49051000D02*
X216998000Y-49051000D01*
X243541000Y-54131000D02*
X239821000Y-54131000D01*
X243541000Y-55851000D02*
X239821000Y-55851000D01*
D10*
X233211000Y-51855000D02*
X233211000Y-51880000D01*
X233211000Y-59905000D02*
X233211000Y-59880000D01*
X228561000Y-59905000D02*
X228561000Y-59880000D01*
X227486000Y-51805000D02*
X233211000Y-51805000D01*
X228561000Y-59905000D02*
X233211000Y-59905000D01*
X228561000Y-74129000D02*
X233211000Y-74129000D01*
X227486000Y-66029000D02*
X233211000Y-66029000D01*
X228561000Y-74129000D02*
X228561000Y-74104000D01*
X233211000Y-74129000D02*
X233211000Y-74104000D01*
X233211000Y-66079000D02*
X233211000Y-66104000D01*
X228561000Y-88607000D02*
X233211000Y-88607000D01*
X227486000Y-80507000D02*
X233211000Y-80507000D01*
X228561000Y-88607000D02*
X228561000Y-88582000D01*
X233211000Y-88607000D02*
X233211000Y-88582000D01*
X233211000Y-80557000D02*
X233211000Y-80582000D01*
X233211000Y-94781000D02*
X233211000Y-94806000D01*
X233211000Y-102831000D02*
X233211000Y-102806000D01*
X228561000Y-102831000D02*
X228561000Y-102806000D01*
X227486000Y-94731000D02*
X233211000Y-94731000D01*
X228561000Y-102831000D02*
X233211000Y-102831000D01*
X233261800Y-109919400D02*
X228611800Y-109919400D01*
X234336800Y-118019400D02*
X228611800Y-118019400D01*
X233261800Y-109919400D02*
X233261800Y-109944400D01*
X228611800Y-109919400D02*
X228611800Y-109944400D01*
X228611800Y-117969400D02*
X228611800Y-117944400D01*
D11*
X188306400Y-61966800D02*
X189636400Y-61966800D01*
X188306400Y-63296800D02*
X188306400Y-61966800D01*
X188306400Y-64566800D02*
X190966400Y-64566800D01*
X190966400Y-64566800D02*
X190966400Y-67166800D01*
X188306400Y-64566800D02*
X188306400Y-67166800D01*
X188306400Y-67166800D02*
X190966400Y-67166800D01*
X172253600Y-46930000D02*
X173583600Y-46930000D01*
X172253600Y-48260000D02*
X172253600Y-46930000D01*
X172253600Y-49530000D02*
X174913600Y-49530000D01*
X174913600Y-49530000D02*
X174913600Y-52130000D01*
X172253600Y-49530000D02*
X172253600Y-52130000D01*
X172253600Y-52130000D02*
X174913600Y-52130000D01*
X176419200Y-52130000D02*
X179079200Y-52130000D01*
X176419200Y-49530000D02*
X176419200Y-52130000D01*
X179079200Y-49530000D02*
X179079200Y-52130000D01*
X176419200Y-49530000D02*
X179079200Y-49530000D01*
X176419200Y-48260000D02*
X176419200Y-46930000D01*
X176419200Y-46930000D02*
X177749200Y-46930000D01*
X185880800Y-54223200D02*
X185880800Y-57943200D01*
X187600800Y-54223200D02*
X187600800Y-57943200D01*
X190648800Y-54223200D02*
X190648800Y-57943200D01*
X188928800Y-54223200D02*
X188928800Y-57943200D01*
X223256800Y-108060800D02*
X223256800Y-106730800D01*
X224586800Y-108060800D02*
X223256800Y-108060800D01*
X225856800Y-108060800D02*
X225856800Y-105400800D01*
X225856800Y-105400800D02*
X228456800Y-105400800D01*
X225856800Y-108060800D02*
X228456800Y-108060800D01*
X228456800Y-108060800D02*
X228456800Y-105400800D01*
X233609600Y-61471600D02*
X229889600Y-61471600D01*
X233609600Y-63191600D02*
X229889600Y-63191600D01*
X231210400Y-105870800D02*
X234930400Y-105870800D01*
X231210400Y-107590800D02*
X234930400Y-107590800D01*
D10*
X204024666Y-127092380D02*
X204024666Y-127806666D01*
X203977047Y-127949523D01*
X203881809Y-128044761D01*
X203738952Y-128092380D01*
X203643714Y-128092380D01*
X205024666Y-128092380D02*
X204453238Y-128092380D01*
X204738952Y-128092380D02*
X204738952Y-127092380D01*
X204643714Y-127235238D01*
X204548476Y-127330476D01*
X204453238Y-127378095D01*
X196342095Y-112911000D02*
X196246857Y-112863380D01*
X196104000Y-112863380D01*
X195961142Y-112911000D01*
X195865904Y-113006238D01*
X195818285Y-113101476D01*
X195770666Y-113291952D01*
X195770666Y-113434809D01*
X195818285Y-113625285D01*
X195865904Y-113720523D01*
X195961142Y-113815761D01*
X196104000Y-113863380D01*
X196199238Y-113863380D01*
X196342095Y-113815761D01*
X196389714Y-113768142D01*
X196389714Y-113434809D01*
X196199238Y-113434809D01*
X196818285Y-113863380D02*
X196818285Y-112863380D01*
X197389714Y-113863380D01*
X197389714Y-112863380D01*
X197865904Y-113863380D02*
X197865904Y-112863380D01*
X198104000Y-112863380D01*
X198246857Y-112911000D01*
X198342095Y-113006238D01*
X198389714Y-113101476D01*
X198437333Y-113291952D01*
X198437333Y-113434809D01*
X198389714Y-113625285D01*
X198342095Y-113720523D01*
X198246857Y-113815761D01*
X198104000Y-113863380D01*
X197865904Y-113863380D01*
X201152285Y-113482428D02*
X201914190Y-113482428D01*
X201533238Y-113863380D02*
X201533238Y-113101476D01*
X202866571Y-112863380D02*
X202390380Y-112863380D01*
X202342761Y-113339571D01*
X202390380Y-113291952D01*
X202485619Y-113244333D01*
X202723714Y-113244333D01*
X202818952Y-113291952D01*
X202866571Y-113339571D01*
X202914190Y-113434809D01*
X202914190Y-113672904D01*
X202866571Y-113768142D01*
X202818952Y-113815761D01*
X202723714Y-113863380D01*
X202485619Y-113863380D01*
X202390380Y-113815761D01*
X202342761Y-113768142D01*
X203199904Y-112863380D02*
X203533238Y-113863380D01*
X203866571Y-112863380D01*
X195453523Y-111085380D02*
X194977333Y-111085380D01*
X194929714Y-111561571D01*
X194977333Y-111513952D01*
X195072571Y-111466333D01*
X195310666Y-111466333D01*
X195405904Y-111513952D01*
X195453523Y-111561571D01*
X195501142Y-111656809D01*
X195501142Y-111894904D01*
X195453523Y-111990142D01*
X195405904Y-112037761D01*
X195310666Y-112085380D01*
X195072571Y-112085380D01*
X194977333Y-112037761D01*
X194929714Y-111990142D01*
X195786857Y-111085380D02*
X196120190Y-112085380D01*
X196453523Y-111085380D01*
X196548761Y-112180619D02*
X197310666Y-112180619D01*
X197548761Y-111561571D02*
X197882095Y-111561571D01*
X198024952Y-112085380D02*
X197548761Y-112085380D01*
X197548761Y-111085380D01*
X198024952Y-111085380D01*
X198358285Y-111085380D02*
X199024952Y-112085380D01*
X199024952Y-111085380D02*
X198358285Y-112085380D01*
X199263047Y-111085380D02*
X199834476Y-111085380D01*
X199548761Y-112085380D02*
X199548761Y-111085380D01*
X200167809Y-111561571D02*
X200501142Y-111561571D01*
X200644000Y-112085380D02*
X200167809Y-112085380D01*
X200167809Y-111085380D01*
X200644000Y-111085380D01*
X201644000Y-112085380D02*
X201310666Y-111609190D01*
X201072571Y-112085380D02*
X201072571Y-111085380D01*
X201453523Y-111085380D01*
X201548761Y-111133000D01*
X201596380Y-111180619D01*
X201644000Y-111275857D01*
X201644000Y-111418714D01*
X201596380Y-111513952D01*
X201548761Y-111561571D01*
X201453523Y-111609190D01*
X201072571Y-111609190D01*
X202072571Y-112085380D02*
X202072571Y-111085380D01*
X202644000Y-112085380D01*
X202644000Y-111085380D01*
X203072571Y-111799666D02*
X203548761Y-111799666D01*
X202977333Y-112085380D02*
X203310666Y-111085380D01*
X203644000Y-112085380D01*
X204453523Y-112085380D02*
X203977333Y-112085380D01*
X203977333Y-111085380D01*
X212010666Y-111720380D02*
X212010666Y-112434666D01*
X211963047Y-112577523D01*
X211867809Y-112672761D01*
X211724952Y-112720380D01*
X211629714Y-112720380D01*
X212391619Y-111720380D02*
X213010666Y-111720380D01*
X212677333Y-112101333D01*
X212820190Y-112101333D01*
X212915428Y-112148952D01*
X212963047Y-112196571D01*
X213010666Y-112291809D01*
X213010666Y-112529904D01*
X212963047Y-112625142D01*
X212915428Y-112672761D01*
X212820190Y-112720380D01*
X212534476Y-112720380D01*
X212439238Y-112672761D01*
X212391619Y-112625142D01*
X206701285Y-58602571D02*
X207034619Y-58602571D01*
X207177476Y-59126380D02*
X206701285Y-59126380D01*
X206701285Y-58126380D01*
X207177476Y-58126380D01*
X207510809Y-59126380D02*
X208034619Y-58459714D01*
X207510809Y-58459714D02*
X208034619Y-59126380D01*
X208415571Y-58459714D02*
X208415571Y-59459714D01*
X208415571Y-58507333D02*
X208510809Y-58459714D01*
X208701285Y-58459714D01*
X208796523Y-58507333D01*
X208844142Y-58554952D01*
X208891761Y-58650190D01*
X208891761Y-58935904D01*
X208844142Y-59031142D01*
X208796523Y-59078761D01*
X208701285Y-59126380D01*
X208510809Y-59126380D01*
X208415571Y-59078761D01*
X209320333Y-59031142D02*
X209367952Y-59078761D01*
X209320333Y-59126380D01*
X209272714Y-59078761D01*
X209320333Y-59031142D01*
X209320333Y-59126380D01*
X210558428Y-59126380D02*
X210558428Y-58126380D01*
X210939380Y-58126380D01*
X211034619Y-58174000D01*
X211082238Y-58221619D01*
X211129857Y-58316857D01*
X211129857Y-58459714D01*
X211082238Y-58554952D01*
X211034619Y-58602571D01*
X210939380Y-58650190D01*
X210558428Y-58650190D01*
X211701285Y-59126380D02*
X211606047Y-59078761D01*
X211558428Y-59031142D01*
X211510809Y-58935904D01*
X211510809Y-58650190D01*
X211558428Y-58554952D01*
X211606047Y-58507333D01*
X211701285Y-58459714D01*
X211844142Y-58459714D01*
X211939380Y-58507333D01*
X211987000Y-58554952D01*
X212034619Y-58650190D01*
X212034619Y-58935904D01*
X211987000Y-59031142D01*
X211939380Y-59078761D01*
X211844142Y-59126380D01*
X211701285Y-59126380D01*
X212463190Y-59126380D02*
X212463190Y-58459714D01*
X212463190Y-58650190D02*
X212510809Y-58554952D01*
X212558428Y-58507333D01*
X212653666Y-58459714D01*
X212748904Y-58459714D01*
X212939380Y-58459714D02*
X213320333Y-58459714D01*
X213082238Y-58126380D02*
X213082238Y-58983523D01*
X213129857Y-59078761D01*
X213225095Y-59126380D01*
X213320333Y-59126380D01*
X214891761Y-58126380D02*
X214415571Y-58126380D01*
X214367952Y-58602571D01*
X214415571Y-58554952D01*
X214510809Y-58507333D01*
X214748904Y-58507333D01*
X214844142Y-58554952D01*
X214891761Y-58602571D01*
X214939380Y-58697809D01*
X214939380Y-58935904D01*
X214891761Y-59031142D01*
X214844142Y-59078761D01*
X214748904Y-59126380D01*
X214510809Y-59126380D01*
X214415571Y-59078761D01*
X214367952Y-59031142D01*
X215225095Y-58126380D02*
X215558428Y-59126380D01*
X215891761Y-58126380D01*
X217177476Y-58126380D02*
X217367952Y-58126380D01*
X217463190Y-58174000D01*
X217558428Y-58269238D01*
X217606047Y-58459714D01*
X217606047Y-58793047D01*
X217558428Y-58983523D01*
X217463190Y-59078761D01*
X217367952Y-59126380D01*
X217177476Y-59126380D01*
X217082238Y-59078761D01*
X216987000Y-58983523D01*
X216939380Y-58793047D01*
X216939380Y-58459714D01*
X216987000Y-58269238D01*
X217082238Y-58174000D01*
X217177476Y-58126380D01*
X218034619Y-59126380D02*
X218034619Y-58126380D01*
X218606047Y-59126380D01*
X218606047Y-58126380D01*
X219558428Y-59126380D02*
X219082238Y-59126380D01*
X219082238Y-58126380D01*
X220082238Y-58650190D02*
X220082238Y-59126380D01*
X219748904Y-58126380D02*
X220082238Y-58650190D01*
X220415571Y-58126380D01*
X244459166Y-48918880D02*
X244459166Y-49633166D01*
X244411547Y-49776023D01*
X244316309Y-49871261D01*
X244173452Y-49918880D01*
X244078214Y-49918880D01*
X245363928Y-49252214D02*
X245363928Y-49918880D01*
X245125833Y-48871261D02*
X244887738Y-49585547D01*
X245506785Y-49585547D01*
X234656904Y-45140571D02*
X234990238Y-45140571D01*
X235133095Y-45664380D02*
X234656904Y-45664380D01*
X234656904Y-44664380D01*
X235133095Y-44664380D01*
X235466428Y-44664380D02*
X236133095Y-45664380D01*
X236133095Y-44664380D02*
X235466428Y-45664380D01*
X236371190Y-44664380D02*
X236942619Y-44664380D01*
X236656904Y-45664380D02*
X236656904Y-44664380D01*
X237037857Y-45759619D02*
X237799761Y-45759619D01*
X237990238Y-44759619D02*
X238037857Y-44712000D01*
X238133095Y-44664380D01*
X238371190Y-44664380D01*
X238466428Y-44712000D01*
X238514047Y-44759619D01*
X238561666Y-44854857D01*
X238561666Y-44950095D01*
X238514047Y-45092952D01*
X237942619Y-45664380D01*
X238561666Y-45664380D01*
X238990238Y-45664380D02*
X238990238Y-44664380D01*
X239371190Y-44664380D01*
X239466428Y-44712000D01*
X239514047Y-44759619D01*
X239561666Y-44854857D01*
X239561666Y-44997714D01*
X239514047Y-45092952D01*
X239466428Y-45140571D01*
X239371190Y-45188190D01*
X238990238Y-45188190D01*
X239990238Y-45664380D02*
X239990238Y-44664380D01*
X239990238Y-45140571D02*
X240561666Y-45140571D01*
X240561666Y-45664380D02*
X240561666Y-44664380D01*
X240799761Y-45759619D02*
X241561666Y-45759619D01*
X242371190Y-45569142D02*
X242323571Y-45616761D01*
X242180714Y-45664380D01*
X242085476Y-45664380D01*
X241942619Y-45616761D01*
X241847380Y-45521523D01*
X241799761Y-45426285D01*
X241752142Y-45235809D01*
X241752142Y-45092952D01*
X241799761Y-44902476D01*
X241847380Y-44807238D01*
X241942619Y-44712000D01*
X242085476Y-44664380D01*
X242180714Y-44664380D01*
X242323571Y-44712000D01*
X242371190Y-44759619D01*
X243275952Y-45664380D02*
X242799761Y-45664380D01*
X242799761Y-44664380D01*
X243609285Y-45664380D02*
X243609285Y-44664380D01*
X244180714Y-45664380D02*
X243752142Y-45092952D01*
X244180714Y-44664380D02*
X243609285Y-45235809D01*
X243808380Y-46966142D02*
X243760761Y-47013761D01*
X243617904Y-47061380D01*
X243522666Y-47061380D01*
X243379809Y-47013761D01*
X243284571Y-46918523D01*
X243236952Y-46823285D01*
X243189333Y-46632809D01*
X243189333Y-46489952D01*
X243236952Y-46299476D01*
X243284571Y-46204238D01*
X243379809Y-46109000D01*
X243522666Y-46061380D01*
X243617904Y-46061380D01*
X243760761Y-46109000D01*
X243808380Y-46156619D01*
X244713142Y-47061380D02*
X244236952Y-47061380D01*
X244236952Y-46061380D01*
X245046476Y-47061380D02*
X245046476Y-46061380D01*
X245617904Y-47061380D02*
X245189333Y-46489952D01*
X245617904Y-46061380D02*
X245046476Y-46632809D01*
X246046476Y-46537571D02*
X246379809Y-46537571D01*
X246522666Y-47061380D02*
X246046476Y-47061380D01*
X246046476Y-46061380D01*
X246522666Y-46061380D01*
X243546452Y-52935142D02*
X243498833Y-52982761D01*
X243355976Y-53030380D01*
X243260738Y-53030380D01*
X243117880Y-52982761D01*
X243022642Y-52887523D01*
X242975023Y-52792285D01*
X242927404Y-52601809D01*
X242927404Y-52458952D01*
X242975023Y-52268476D01*
X243022642Y-52173238D01*
X243117880Y-52078000D01*
X243260738Y-52030380D01*
X243355976Y-52030380D01*
X243498833Y-52078000D01*
X243546452Y-52125619D01*
X244451214Y-53030380D02*
X243975023Y-53030380D01*
X243975023Y-52030380D01*
X244784547Y-53030380D02*
X244784547Y-52030380D01*
X245355976Y-53030380D02*
X244927404Y-52458952D01*
X245355976Y-52030380D02*
X244784547Y-52601809D01*
X246451214Y-53125619D02*
X246355976Y-53078000D01*
X246260738Y-52982761D01*
X246117880Y-52839904D01*
X246022642Y-52792285D01*
X245927404Y-52792285D01*
X245975023Y-53030380D02*
X245879785Y-52982761D01*
X245784547Y-52887523D01*
X245736928Y-52697047D01*
X245736928Y-52363714D01*
X245784547Y-52173238D01*
X245879785Y-52078000D01*
X245975023Y-52030380D01*
X246165500Y-52030380D01*
X246260738Y-52078000D01*
X246355976Y-52173238D01*
X246403595Y-52363714D01*
X246403595Y-52697047D01*
X246355976Y-52887523D01*
X246260738Y-52982761D01*
X246165500Y-53030380D01*
X245975023Y-53030380D01*
X234065866Y-123404380D02*
X234065866Y-124118666D01*
X234018247Y-124261523D01*
X233923009Y-124356761D01*
X233780152Y-124404380D01*
X233684914Y-124404380D01*
X234542057Y-124404380D02*
X234542057Y-123404380D01*
X234923009Y-123404380D01*
X235018247Y-123452000D01*
X235065866Y-123499619D01*
X235113485Y-123594857D01*
X235113485Y-123737714D01*
X235065866Y-123832952D01*
X235018247Y-123880571D01*
X234923009Y-123928190D01*
X234542057Y-123928190D01*
X236065866Y-124404380D02*
X235494438Y-124404380D01*
X235780152Y-124404380D02*
X235780152Y-123404380D01*
X235684914Y-123547238D01*
X235589676Y-123642476D01*
X235494438Y-123690095D01*
X236893600Y-121321580D02*
X236417409Y-121321580D01*
X236369790Y-121797771D01*
X236417409Y-121750152D01*
X236512647Y-121702533D01*
X236750742Y-121702533D01*
X236845980Y-121750152D01*
X236893600Y-121797771D01*
X236941219Y-121893009D01*
X236941219Y-122131104D01*
X236893600Y-122226342D01*
X236845980Y-122273961D01*
X236750742Y-122321580D01*
X236512647Y-122321580D01*
X236417409Y-122273961D01*
X236369790Y-122226342D01*
X237226933Y-121321580D02*
X237560266Y-122321580D01*
X237893600Y-121321580D01*
X238988838Y-122321580D02*
X238988838Y-121321580D01*
X239369790Y-121321580D01*
X239465028Y-121369200D01*
X239512647Y-121416819D01*
X239560266Y-121512057D01*
X239560266Y-121654914D01*
X239512647Y-121750152D01*
X239465028Y-121797771D01*
X239369790Y-121845390D01*
X238988838Y-121845390D01*
X239893600Y-121321580D02*
X240131695Y-122321580D01*
X240322171Y-121607295D01*
X240512647Y-122321580D01*
X240750742Y-121321580D01*
X241703123Y-122321580D02*
X241369790Y-121845390D01*
X241131695Y-122321580D02*
X241131695Y-121321580D01*
X241512647Y-121321580D01*
X241607885Y-121369200D01*
X241655504Y-121416819D01*
X241703123Y-121512057D01*
X241703123Y-121654914D01*
X241655504Y-121750152D01*
X241607885Y-121797771D01*
X241512647Y-121845390D01*
X241131695Y-121845390D01*
X242845980Y-122273961D02*
X242988838Y-122321580D01*
X243226933Y-122321580D01*
X243322171Y-122273961D01*
X243369790Y-122226342D01*
X243417409Y-122131104D01*
X243417409Y-122035866D01*
X243369790Y-121940628D01*
X243322171Y-121893009D01*
X243226933Y-121845390D01*
X243036457Y-121797771D01*
X242941219Y-121750152D01*
X242893600Y-121702533D01*
X242845980Y-121607295D01*
X242845980Y-121512057D01*
X242893600Y-121416819D01*
X242941219Y-121369200D01*
X243036457Y-121321580D01*
X243274552Y-121321580D01*
X243417409Y-121369200D01*
X244417409Y-122321580D02*
X244084076Y-121845390D01*
X243845980Y-122321580D02*
X243845980Y-121321580D01*
X244226933Y-121321580D01*
X244322171Y-121369200D01*
X244369790Y-121416819D01*
X244417409Y-121512057D01*
X244417409Y-121654914D01*
X244369790Y-121750152D01*
X244322171Y-121797771D01*
X244226933Y-121845390D01*
X243845980Y-121845390D01*
X245417409Y-122226342D02*
X245369790Y-122273961D01*
X245226933Y-122321580D01*
X245131695Y-122321580D01*
X244988838Y-122273961D01*
X244893600Y-122178723D01*
X244845980Y-122083485D01*
X244798361Y-121893009D01*
X244798361Y-121750152D01*
X244845980Y-121559676D01*
X244893600Y-121464438D01*
X244988838Y-121369200D01*
X245131695Y-121321580D01*
X245226933Y-121321580D01*
X245369790Y-121369200D01*
X245417409Y-121416819D01*
X209097666Y-52792380D02*
X209097666Y-53506666D01*
X209050047Y-53649523D01*
X208954809Y-53744761D01*
X208811952Y-53792380D01*
X208716714Y-53792380D01*
X209573857Y-53792380D02*
X209573857Y-52792380D01*
X209954809Y-52792380D01*
X210050047Y-52840000D01*
X210097666Y-52887619D01*
X210145285Y-52982857D01*
X210145285Y-53125714D01*
X210097666Y-53220952D01*
X210050047Y-53268571D01*
X209954809Y-53316190D01*
X209573857Y-53316190D01*
X210526238Y-52887619D02*
X210573857Y-52840000D01*
X210669095Y-52792380D01*
X210907190Y-52792380D01*
X211002428Y-52840000D01*
X211050047Y-52887619D01*
X211097666Y-52982857D01*
X211097666Y-53078095D01*
X211050047Y-53220952D01*
X210478619Y-53792380D01*
X211097666Y-53792380D01*
X208899952Y-56332380D02*
X208899952Y-55332380D01*
X209328523Y-56284761D02*
X209423761Y-56332380D01*
X209614238Y-56332380D01*
X209709476Y-56284761D01*
X209757095Y-56189523D01*
X209757095Y-56141904D01*
X209709476Y-56046666D01*
X209614238Y-55999047D01*
X209471380Y-55999047D01*
X209376142Y-55951428D01*
X209328523Y-55856190D01*
X209328523Y-55808571D01*
X209376142Y-55713333D01*
X209471380Y-55665714D01*
X209614238Y-55665714D01*
X209709476Y-55713333D01*
X210328523Y-56332380D02*
X210233285Y-56284761D01*
X210185666Y-56237142D01*
X210138047Y-56141904D01*
X210138047Y-55856190D01*
X210185666Y-55760952D01*
X210233285Y-55713333D01*
X210328523Y-55665714D01*
X210471380Y-55665714D01*
X210566619Y-55713333D01*
X210614238Y-55760952D01*
X210661857Y-55856190D01*
X210661857Y-56141904D01*
X210614238Y-56237142D01*
X210566619Y-56284761D01*
X210471380Y-56332380D01*
X210328523Y-56332380D01*
X211233285Y-56332380D02*
X211138047Y-56284761D01*
X211090428Y-56189523D01*
X211090428Y-55332380D01*
X212042809Y-56332380D02*
X212042809Y-55808571D01*
X211995190Y-55713333D01*
X211899952Y-55665714D01*
X211709476Y-55665714D01*
X211614238Y-55713333D01*
X212042809Y-56284761D02*
X211947571Y-56332380D01*
X211709476Y-56332380D01*
X211614238Y-56284761D01*
X211566619Y-56189523D01*
X211566619Y-56094285D01*
X211614238Y-55999047D01*
X211709476Y-55951428D01*
X211947571Y-55951428D01*
X212042809Y-55903809D01*
X212376142Y-55665714D02*
X212757095Y-55665714D01*
X212519000Y-55332380D02*
X212519000Y-56189523D01*
X212566619Y-56284761D01*
X212661857Y-56332380D01*
X212757095Y-56332380D01*
X213471380Y-56284761D02*
X213376142Y-56332380D01*
X213185666Y-56332380D01*
X213090428Y-56284761D01*
X213042809Y-56189523D01*
X213042809Y-55808571D01*
X213090428Y-55713333D01*
X213185666Y-55665714D01*
X213376142Y-55665714D01*
X213471380Y-55713333D01*
X213519000Y-55808571D01*
X213519000Y-55903809D01*
X213042809Y-55999047D01*
X214566619Y-55665714D02*
X214947571Y-55665714D01*
X214709476Y-56332380D02*
X214709476Y-55475238D01*
X214757095Y-55380000D01*
X214852333Y-55332380D01*
X214947571Y-55332380D01*
X215280904Y-56332380D02*
X215280904Y-55665714D01*
X215280904Y-55856190D02*
X215328523Y-55760952D01*
X215376142Y-55713333D01*
X215471380Y-55665714D01*
X215566619Y-55665714D01*
X216042809Y-56332380D02*
X215947571Y-56284761D01*
X215899952Y-56237142D01*
X215852333Y-56141904D01*
X215852333Y-55856190D01*
X215899952Y-55760952D01*
X215947571Y-55713333D01*
X216042809Y-55665714D01*
X216185666Y-55665714D01*
X216280904Y-55713333D01*
X216328523Y-55760952D01*
X216376142Y-55856190D01*
X216376142Y-56141904D01*
X216328523Y-56237142D01*
X216280904Y-56284761D01*
X216185666Y-56332380D01*
X216042809Y-56332380D01*
X216804714Y-56332380D02*
X216804714Y-55665714D01*
X216804714Y-55760952D02*
X216852333Y-55713333D01*
X216947571Y-55665714D01*
X217090428Y-55665714D01*
X217185666Y-55713333D01*
X217233285Y-55808571D01*
X217233285Y-56332380D01*
X217233285Y-55808571D02*
X217280904Y-55713333D01*
X217376142Y-55665714D01*
X217519000Y-55665714D01*
X217614238Y-55713333D01*
X217661857Y-55808571D01*
X217661857Y-56332380D01*
X219233285Y-55808571D02*
X218899952Y-55808571D01*
X218899952Y-56332380D02*
X218899952Y-55332380D01*
X219376142Y-55332380D01*
X219757095Y-56332380D02*
X219757095Y-55332380D01*
X220138047Y-55332380D01*
X220233285Y-55380000D01*
X220280904Y-55427619D01*
X220328523Y-55522857D01*
X220328523Y-55665714D01*
X220280904Y-55760952D01*
X220233285Y-55808571D01*
X220138047Y-55856190D01*
X219757095Y-55856190D01*
X221280904Y-55380000D02*
X221185666Y-55332380D01*
X221042809Y-55332380D01*
X220899952Y-55380000D01*
X220804714Y-55475238D01*
X220757095Y-55570476D01*
X220709476Y-55760952D01*
X220709476Y-55903809D01*
X220757095Y-56094285D01*
X220804714Y-56189523D01*
X220899952Y-56284761D01*
X221042809Y-56332380D01*
X221138047Y-56332380D01*
X221280904Y-56284761D01*
X221328523Y-56237142D01*
X221328523Y-55903809D01*
X221138047Y-55903809D01*
X221709476Y-56046666D02*
X222185666Y-56046666D01*
X221614238Y-56332380D02*
X221947571Y-55332380D01*
X222280904Y-56332380D01*
X186182095Y-86828380D02*
X186182095Y-87637904D01*
X186229714Y-87733142D01*
X186277333Y-87780761D01*
X186372571Y-87828380D01*
X186563047Y-87828380D01*
X186658285Y-87780761D01*
X186705904Y-87733142D01*
X186753523Y-87637904D01*
X186753523Y-86828380D01*
X187753523Y-87828380D02*
X187182095Y-87828380D01*
X187467809Y-87828380D02*
X187467809Y-86828380D01*
X187372571Y-86971238D01*
X187277333Y-87066476D01*
X187182095Y-87114095D01*
X183324952Y-80208380D02*
X183324952Y-79208380D01*
X183896380Y-80208380D02*
X183467809Y-79636952D01*
X183896380Y-79208380D02*
X183324952Y-79779809D01*
X184467809Y-80208380D02*
X184372571Y-80160761D01*
X184324952Y-80113142D01*
X184277333Y-80017904D01*
X184277333Y-79732190D01*
X184324952Y-79636952D01*
X184372571Y-79589333D01*
X184467809Y-79541714D01*
X184610666Y-79541714D01*
X184705904Y-79589333D01*
X184753523Y-79636952D01*
X184801142Y-79732190D01*
X184801142Y-80017904D01*
X184753523Y-80113142D01*
X184705904Y-80160761D01*
X184610666Y-80208380D01*
X184467809Y-80208380D01*
X185229714Y-79541714D02*
X185229714Y-80208380D01*
X185229714Y-79636952D02*
X185277333Y-79589333D01*
X185372571Y-79541714D01*
X185515428Y-79541714D01*
X185610666Y-79589333D01*
X185658285Y-79684571D01*
X185658285Y-80208380D01*
X186563047Y-80208380D02*
X186563047Y-79684571D01*
X186515428Y-79589333D01*
X186420190Y-79541714D01*
X186229714Y-79541714D01*
X186134476Y-79589333D01*
X186563047Y-80160761D02*
X186467809Y-80208380D01*
X186229714Y-80208380D01*
X186134476Y-80160761D01*
X186086857Y-80065523D01*
X186086857Y-79970285D01*
X186134476Y-79875047D01*
X186229714Y-79827428D01*
X186467809Y-79827428D01*
X186563047Y-79779809D01*
X187039238Y-80208380D02*
X187039238Y-79541714D01*
X187039238Y-79636952D02*
X187086857Y-79589333D01*
X187182095Y-79541714D01*
X187324952Y-79541714D01*
X187420190Y-79589333D01*
X187467809Y-79684571D01*
X187467809Y-80208380D01*
X187467809Y-79684571D02*
X187515428Y-79589333D01*
X187610666Y-79541714D01*
X187753523Y-79541714D01*
X187848761Y-79589333D01*
X187896380Y-79684571D01*
X187896380Y-80208380D01*
X188372571Y-80208380D02*
X188372571Y-79541714D01*
X188372571Y-79208380D02*
X188324952Y-79256000D01*
X188372571Y-79303619D01*
X188420190Y-79256000D01*
X188372571Y-79208380D01*
X188372571Y-79303619D01*
X188848761Y-79827428D02*
X189610666Y-79827428D01*
X190039238Y-79303619D02*
X190086857Y-79256000D01*
X190182095Y-79208380D01*
X190420190Y-79208380D01*
X190515428Y-79256000D01*
X190563047Y-79303619D01*
X190610666Y-79398857D01*
X190610666Y-79494095D01*
X190563047Y-79636952D01*
X189991619Y-80208380D01*
X190610666Y-80208380D01*
X184515428Y-83653380D02*
X184610666Y-83653380D01*
X184705904Y-83701000D01*
X184753523Y-83748619D01*
X184801142Y-83843857D01*
X184848761Y-84034333D01*
X184848761Y-84272428D01*
X184801142Y-84462904D01*
X184753523Y-84558142D01*
X184705904Y-84605761D01*
X184610666Y-84653380D01*
X184515428Y-84653380D01*
X184420190Y-84605761D01*
X184372571Y-84558142D01*
X184324952Y-84462904D01*
X184277333Y-84272428D01*
X184277333Y-84034333D01*
X184324952Y-83843857D01*
X184372571Y-83748619D01*
X184420190Y-83701000D01*
X184515428Y-83653380D01*
X185753523Y-83653380D02*
X185277333Y-83653380D01*
X185229714Y-84129571D01*
X185277333Y-84081952D01*
X185372571Y-84034333D01*
X185610666Y-84034333D01*
X185705904Y-84081952D01*
X185753523Y-84129571D01*
X185801142Y-84224809D01*
X185801142Y-84462904D01*
X185753523Y-84558142D01*
X185705904Y-84605761D01*
X185610666Y-84653380D01*
X185372571Y-84653380D01*
X185277333Y-84605761D01*
X185229714Y-84558142D01*
X186182095Y-83748619D02*
X186229714Y-83701000D01*
X186324952Y-83653380D01*
X186563047Y-83653380D01*
X186658285Y-83701000D01*
X186705904Y-83748619D01*
X186753523Y-83843857D01*
X186753523Y-83939095D01*
X186705904Y-84081952D01*
X186134476Y-84653380D01*
X186753523Y-84653380D01*
X187658285Y-83653380D02*
X187182095Y-83653380D01*
X187134476Y-84129571D01*
X187182095Y-84081952D01*
X187277333Y-84034333D01*
X187515428Y-84034333D01*
X187610666Y-84081952D01*
X187658285Y-84129571D01*
X187705904Y-84224809D01*
X187705904Y-84462904D01*
X187658285Y-84558142D01*
X187610666Y-84605761D01*
X187515428Y-84653380D01*
X187277333Y-84653380D01*
X187182095Y-84605761D01*
X187134476Y-84558142D01*
X188086857Y-83748619D02*
X188134476Y-83701000D01*
X188229714Y-83653380D01*
X188467809Y-83653380D01*
X188563047Y-83701000D01*
X188610666Y-83748619D01*
X188658285Y-83843857D01*
X188658285Y-83939095D01*
X188610666Y-84081952D01*
X188039238Y-84653380D01*
X188658285Y-84653380D01*
X189515428Y-83653380D02*
X189324952Y-83653380D01*
X189229714Y-83701000D01*
X189182095Y-83748619D01*
X189086857Y-83891476D01*
X189039238Y-84081952D01*
X189039238Y-84462904D01*
X189086857Y-84558142D01*
X189134476Y-84605761D01*
X189229714Y-84653380D01*
X189420190Y-84653380D01*
X189515428Y-84605761D01*
X189563047Y-84558142D01*
X189610666Y-84462904D01*
X189610666Y-84224809D01*
X189563047Y-84129571D01*
X189515428Y-84081952D01*
X189420190Y-84034333D01*
X189229714Y-84034333D01*
X189134476Y-84081952D01*
X189086857Y-84129571D01*
X189039238Y-84224809D01*
X251380666Y-111256380D02*
X251380666Y-111970666D01*
X251333047Y-112113523D01*
X251237809Y-112208761D01*
X251094952Y-112256380D01*
X250999714Y-112256380D01*
X251809238Y-111351619D02*
X251856857Y-111304000D01*
X251952095Y-111256380D01*
X252190190Y-111256380D01*
X252285428Y-111304000D01*
X252333047Y-111351619D01*
X252380666Y-111446857D01*
X252380666Y-111542095D01*
X252333047Y-111684952D01*
X251761619Y-112256380D01*
X252380666Y-112256380D01*
X239958571Y-88558285D02*
X239958571Y-88891619D01*
X240482380Y-88891619D02*
X239482380Y-88891619D01*
X239482380Y-88415428D01*
X240482380Y-88034476D02*
X239482380Y-88034476D01*
X239482380Y-87653523D01*
X239530000Y-87558285D01*
X239577619Y-87510666D01*
X239672857Y-87463047D01*
X239815714Y-87463047D01*
X239910952Y-87510666D01*
X239958571Y-87558285D01*
X240006190Y-87653523D01*
X240006190Y-88034476D01*
X239530000Y-86510666D02*
X239482380Y-86605904D01*
X239482380Y-86748761D01*
X239530000Y-86891619D01*
X239625238Y-86986857D01*
X239720476Y-87034476D01*
X239910952Y-87082095D01*
X240053809Y-87082095D01*
X240244285Y-87034476D01*
X240339523Y-86986857D01*
X240434761Y-86891619D01*
X240482380Y-86748761D01*
X240482380Y-86653523D01*
X240434761Y-86510666D01*
X240387142Y-86463047D01*
X240053809Y-86463047D01*
X240053809Y-86653523D01*
X240196666Y-86082095D02*
X240196666Y-85605904D01*
X240482380Y-86177333D02*
X239482380Y-85844000D01*
X240482380Y-85510666D01*
X240482380Y-84415428D02*
X239482380Y-84415428D01*
X239482380Y-84034476D01*
X239530000Y-83939238D01*
X239577619Y-83891619D01*
X239672857Y-83844000D01*
X239815714Y-83844000D01*
X239910952Y-83891619D01*
X239958571Y-83939238D01*
X240006190Y-84034476D01*
X240006190Y-84415428D01*
X240482380Y-83272571D02*
X240434761Y-83367809D01*
X240387142Y-83415428D01*
X240291904Y-83463047D01*
X240006190Y-83463047D01*
X239910952Y-83415428D01*
X239863333Y-83367809D01*
X239815714Y-83272571D01*
X239815714Y-83129714D01*
X239863333Y-83034476D01*
X239910952Y-82986857D01*
X240006190Y-82939238D01*
X240291904Y-82939238D01*
X240387142Y-82986857D01*
X240434761Y-83034476D01*
X240482380Y-83129714D01*
X240482380Y-83272571D01*
X240482380Y-82510666D02*
X239815714Y-82510666D01*
X240006190Y-82510666D02*
X239910952Y-82463047D01*
X239863333Y-82415428D01*
X239815714Y-82320190D01*
X239815714Y-82224952D01*
X239815714Y-82034476D02*
X239815714Y-81653523D01*
X239482380Y-81891619D02*
X240339523Y-81891619D01*
X240434761Y-81844000D01*
X240482380Y-81748761D01*
X240482380Y-81653523D01*
X203541333Y-82653142D02*
X203493714Y-82700761D01*
X203350857Y-82748380D01*
X203255619Y-82748380D01*
X203112761Y-82700761D01*
X203017523Y-82605523D01*
X202969904Y-82510285D01*
X202922285Y-82319809D01*
X202922285Y-82176952D01*
X202969904Y-81986476D01*
X203017523Y-81891238D01*
X203112761Y-81796000D01*
X203255619Y-81748380D01*
X203350857Y-81748380D01*
X203493714Y-81796000D01*
X203541333Y-81843619D01*
X204493714Y-82748380D02*
X203922285Y-82748380D01*
X204208000Y-82748380D02*
X204208000Y-81748380D01*
X204112761Y-81891238D01*
X204017523Y-81986476D01*
X203922285Y-82034095D01*
X169993333Y-80043142D02*
X169945714Y-80090761D01*
X169802857Y-80138380D01*
X169707619Y-80138380D01*
X169564761Y-80090761D01*
X169469523Y-79995523D01*
X169421904Y-79900285D01*
X169374285Y-79709809D01*
X169374285Y-79566952D01*
X169421904Y-79376476D01*
X169469523Y-79281238D01*
X169564761Y-79186000D01*
X169707619Y-79138380D01*
X169802857Y-79138380D01*
X169945714Y-79186000D01*
X169993333Y-79233619D01*
X170374285Y-79233619D02*
X170421904Y-79186000D01*
X170517142Y-79138380D01*
X170755238Y-79138380D01*
X170850476Y-79186000D01*
X170898095Y-79233619D01*
X170945714Y-79328857D01*
X170945714Y-79424095D01*
X170898095Y-79566952D01*
X170326666Y-80138380D01*
X170945714Y-80138380D01*
X236835333Y-54586142D02*
X236787714Y-54633761D01*
X236644857Y-54681380D01*
X236549619Y-54681380D01*
X236406761Y-54633761D01*
X236311523Y-54538523D01*
X236263904Y-54443285D01*
X236216285Y-54252809D01*
X236216285Y-54109952D01*
X236263904Y-53919476D01*
X236311523Y-53824238D01*
X236406761Y-53729000D01*
X236549619Y-53681380D01*
X236644857Y-53681380D01*
X236787714Y-53729000D01*
X236835333Y-53776619D01*
X237168666Y-53681380D02*
X237787714Y-53681380D01*
X237454380Y-54062333D01*
X237597238Y-54062333D01*
X237692476Y-54109952D01*
X237740095Y-54157571D01*
X237787714Y-54252809D01*
X237787714Y-54490904D01*
X237740095Y-54586142D01*
X237692476Y-54633761D01*
X237597238Y-54681380D01*
X237311523Y-54681380D01*
X237216285Y-54633761D01*
X237168666Y-54586142D01*
X222226142Y-52109666D02*
X222273761Y-52157285D01*
X222321380Y-52300142D01*
X222321380Y-52395380D01*
X222273761Y-52538238D01*
X222178523Y-52633476D01*
X222083285Y-52681095D01*
X221892809Y-52728714D01*
X221749952Y-52728714D01*
X221559476Y-52681095D01*
X221464238Y-52633476D01*
X221369000Y-52538238D01*
X221321380Y-52395380D01*
X221321380Y-52300142D01*
X221369000Y-52157285D01*
X221416619Y-52109666D01*
X221654714Y-51252523D02*
X222321380Y-51252523D01*
X221273761Y-51490619D02*
X221988047Y-51728714D01*
X221988047Y-51109666D01*
X222226142Y-48807666D02*
X222273761Y-48855285D01*
X222321380Y-48998142D01*
X222321380Y-49093380D01*
X222273761Y-49236238D01*
X222178523Y-49331476D01*
X222083285Y-49379095D01*
X221892809Y-49426714D01*
X221749952Y-49426714D01*
X221559476Y-49379095D01*
X221464238Y-49331476D01*
X221369000Y-49236238D01*
X221321380Y-49093380D01*
X221321380Y-48998142D01*
X221369000Y-48855285D01*
X221416619Y-48807666D01*
X221321380Y-47902904D02*
X221321380Y-48379095D01*
X221797571Y-48426714D01*
X221749952Y-48379095D01*
X221702333Y-48283857D01*
X221702333Y-48045761D01*
X221749952Y-47950523D01*
X221797571Y-47902904D01*
X221892809Y-47855285D01*
X222130904Y-47855285D01*
X222226142Y-47902904D01*
X222273761Y-47950523D01*
X222321380Y-48045761D01*
X222321380Y-48283857D01*
X222273761Y-48379095D01*
X222226142Y-48426714D01*
X236835333Y-68683142D02*
X236787714Y-68730761D01*
X236644857Y-68778380D01*
X236549619Y-68778380D01*
X236406761Y-68730761D01*
X236311523Y-68635523D01*
X236263904Y-68540285D01*
X236216285Y-68349809D01*
X236216285Y-68206952D01*
X236263904Y-68016476D01*
X236311523Y-67921238D01*
X236406761Y-67826000D01*
X236549619Y-67778380D01*
X236644857Y-67778380D01*
X236787714Y-67826000D01*
X236835333Y-67873619D01*
X237692476Y-67778380D02*
X237502000Y-67778380D01*
X237406761Y-67826000D01*
X237359142Y-67873619D01*
X237263904Y-68016476D01*
X237216285Y-68206952D01*
X237216285Y-68587904D01*
X237263904Y-68683142D01*
X237311523Y-68730761D01*
X237406761Y-68778380D01*
X237597238Y-68778380D01*
X237692476Y-68730761D01*
X237740095Y-68683142D01*
X237787714Y-68587904D01*
X237787714Y-68349809D01*
X237740095Y-68254571D01*
X237692476Y-68206952D01*
X237597238Y-68159333D01*
X237406761Y-68159333D01*
X237311523Y-68206952D01*
X237263904Y-68254571D01*
X237216285Y-68349809D01*
X223496142Y-69127666D02*
X223543761Y-69175285D01*
X223591380Y-69318142D01*
X223591380Y-69413380D01*
X223543761Y-69556238D01*
X223448523Y-69651476D01*
X223353285Y-69699095D01*
X223162809Y-69746714D01*
X223019952Y-69746714D01*
X222829476Y-69699095D01*
X222734238Y-69651476D01*
X222639000Y-69556238D01*
X222591380Y-69413380D01*
X222591380Y-69318142D01*
X222639000Y-69175285D01*
X222686619Y-69127666D01*
X222591380Y-68794333D02*
X222591380Y-68127666D01*
X223591380Y-68556238D01*
X223115142Y-60491666D02*
X223162761Y-60539285D01*
X223210380Y-60682142D01*
X223210380Y-60777380D01*
X223162761Y-60920238D01*
X223067523Y-61015476D01*
X222972285Y-61063095D01*
X222781809Y-61110714D01*
X222638952Y-61110714D01*
X222448476Y-61063095D01*
X222353238Y-61015476D01*
X222258000Y-60920238D01*
X222210380Y-60777380D01*
X222210380Y-60682142D01*
X222258000Y-60539285D01*
X222305619Y-60491666D01*
X222638952Y-59920238D02*
X222591333Y-60015476D01*
X222543714Y-60063095D01*
X222448476Y-60110714D01*
X222400857Y-60110714D01*
X222305619Y-60063095D01*
X222258000Y-60015476D01*
X222210380Y-59920238D01*
X222210380Y-59729761D01*
X222258000Y-59634523D01*
X222305619Y-59586904D01*
X222400857Y-59539285D01*
X222448476Y-59539285D01*
X222543714Y-59586904D01*
X222591333Y-59634523D01*
X222638952Y-59729761D01*
X222638952Y-59920238D01*
X222686571Y-60015476D01*
X222734190Y-60063095D01*
X222829428Y-60110714D01*
X223019904Y-60110714D01*
X223115142Y-60063095D01*
X223162761Y-60015476D01*
X223210380Y-59920238D01*
X223210380Y-59729761D01*
X223162761Y-59634523D01*
X223115142Y-59586904D01*
X223019904Y-59539285D01*
X222829428Y-59539285D01*
X222734190Y-59586904D01*
X222686571Y-59634523D01*
X222638952Y-59729761D01*
X236815333Y-83161142D02*
X236767714Y-83208761D01*
X236624857Y-83256380D01*
X236529619Y-83256380D01*
X236386761Y-83208761D01*
X236291523Y-83113523D01*
X236243904Y-83018285D01*
X236196285Y-82827809D01*
X236196285Y-82684952D01*
X236243904Y-82494476D01*
X236291523Y-82399238D01*
X236386761Y-82304000D01*
X236529619Y-82256380D01*
X236624857Y-82256380D01*
X236767714Y-82304000D01*
X236815333Y-82351619D01*
X237291523Y-83256380D02*
X237482000Y-83256380D01*
X237577238Y-83208761D01*
X237624857Y-83161142D01*
X237720095Y-83018285D01*
X237767714Y-82827809D01*
X237767714Y-82446857D01*
X237720095Y-82351619D01*
X237672476Y-82304000D01*
X237577238Y-82256380D01*
X237386761Y-82256380D01*
X237291523Y-82304000D01*
X237243904Y-82351619D01*
X237196285Y-82446857D01*
X237196285Y-82684952D01*
X237243904Y-82780190D01*
X237291523Y-82827809D01*
X237386761Y-82875428D01*
X237577238Y-82875428D01*
X237672476Y-82827809D01*
X237720095Y-82780190D01*
X237767714Y-82684952D01*
X222226142Y-81287857D02*
X222273761Y-81335476D01*
X222321380Y-81478333D01*
X222321380Y-81573571D01*
X222273761Y-81716428D01*
X222178523Y-81811666D01*
X222083285Y-81859285D01*
X221892809Y-81906904D01*
X221749952Y-81906904D01*
X221559476Y-81859285D01*
X221464238Y-81811666D01*
X221369000Y-81716428D01*
X221321380Y-81573571D01*
X221321380Y-81478333D01*
X221369000Y-81335476D01*
X221416619Y-81287857D01*
X222321380Y-80335476D02*
X222321380Y-80906904D01*
X222321380Y-80621190D02*
X221321380Y-80621190D01*
X221464238Y-80716428D01*
X221559476Y-80811666D01*
X221607095Y-80906904D01*
X221321380Y-79716428D02*
X221321380Y-79621190D01*
X221369000Y-79525952D01*
X221416619Y-79478333D01*
X221511857Y-79430714D01*
X221702333Y-79383095D01*
X221940428Y-79383095D01*
X222130904Y-79430714D01*
X222226142Y-79478333D01*
X222273761Y-79525952D01*
X222321380Y-79621190D01*
X222321380Y-79716428D01*
X222273761Y-79811666D01*
X222226142Y-79859285D01*
X222130904Y-79906904D01*
X221940428Y-79954523D01*
X221702333Y-79954523D01*
X221511857Y-79906904D01*
X221416619Y-79859285D01*
X221369000Y-79811666D01*
X221321380Y-79716428D01*
X222226142Y-77858857D02*
X222273761Y-77906476D01*
X222321380Y-78049333D01*
X222321380Y-78144571D01*
X222273761Y-78287428D01*
X222178523Y-78382666D01*
X222083285Y-78430285D01*
X221892809Y-78477904D01*
X221749952Y-78477904D01*
X221559476Y-78430285D01*
X221464238Y-78382666D01*
X221369000Y-78287428D01*
X221321380Y-78144571D01*
X221321380Y-78049333D01*
X221369000Y-77906476D01*
X221416619Y-77858857D01*
X222321380Y-76906476D02*
X222321380Y-77477904D01*
X222321380Y-77192190D02*
X221321380Y-77192190D01*
X221464238Y-77287428D01*
X221559476Y-77382666D01*
X221607095Y-77477904D01*
X222321380Y-75954095D02*
X222321380Y-76525523D01*
X222321380Y-76239809D02*
X221321380Y-76239809D01*
X221464238Y-76335047D01*
X221559476Y-76430285D01*
X221607095Y-76525523D01*
X236359142Y-97455142D02*
X236311523Y-97502761D01*
X236168666Y-97550380D01*
X236073428Y-97550380D01*
X235930571Y-97502761D01*
X235835333Y-97407523D01*
X235787714Y-97312285D01*
X235740095Y-97121809D01*
X235740095Y-96978952D01*
X235787714Y-96788476D01*
X235835333Y-96693238D01*
X235930571Y-96598000D01*
X236073428Y-96550380D01*
X236168666Y-96550380D01*
X236311523Y-96598000D01*
X236359142Y-96645619D01*
X237311523Y-97550380D02*
X236740095Y-97550380D01*
X237025809Y-97550380D02*
X237025809Y-96550380D01*
X236930571Y-96693238D01*
X236835333Y-96788476D01*
X236740095Y-96836095D01*
X237692476Y-96645619D02*
X237740095Y-96598000D01*
X237835333Y-96550380D01*
X238073428Y-96550380D01*
X238168666Y-96598000D01*
X238216285Y-96645619D01*
X238263904Y-96740857D01*
X238263904Y-96836095D01*
X238216285Y-96978952D01*
X237644857Y-97550380D01*
X238263904Y-97550380D01*
X221972142Y-95130857D02*
X222019761Y-95178476D01*
X222067380Y-95321333D01*
X222067380Y-95416571D01*
X222019761Y-95559428D01*
X221924523Y-95654666D01*
X221829285Y-95702285D01*
X221638809Y-95749904D01*
X221495952Y-95749904D01*
X221305476Y-95702285D01*
X221210238Y-95654666D01*
X221115000Y-95559428D01*
X221067380Y-95416571D01*
X221067380Y-95321333D01*
X221115000Y-95178476D01*
X221162619Y-95130857D01*
X222067380Y-94178476D02*
X222067380Y-94749904D01*
X222067380Y-94464190D02*
X221067380Y-94464190D01*
X221210238Y-94559428D01*
X221305476Y-94654666D01*
X221353095Y-94749904D01*
X221067380Y-93845142D02*
X221067380Y-93226095D01*
X221448333Y-93559428D01*
X221448333Y-93416571D01*
X221495952Y-93321333D01*
X221543571Y-93273714D01*
X221638809Y-93226095D01*
X221876904Y-93226095D01*
X221972142Y-93273714D01*
X222019761Y-93321333D01*
X222067380Y-93416571D01*
X222067380Y-93702285D01*
X222019761Y-93797523D01*
X221972142Y-93845142D01*
X221972142Y-91574857D02*
X222019761Y-91622476D01*
X222067380Y-91765333D01*
X222067380Y-91860571D01*
X222019761Y-92003428D01*
X221924523Y-92098666D01*
X221829285Y-92146285D01*
X221638809Y-92193904D01*
X221495952Y-92193904D01*
X221305476Y-92146285D01*
X221210238Y-92098666D01*
X221115000Y-92003428D01*
X221067380Y-91860571D01*
X221067380Y-91765333D01*
X221115000Y-91622476D01*
X221162619Y-91574857D01*
X222067380Y-90622476D02*
X222067380Y-91193904D01*
X222067380Y-90908190D02*
X221067380Y-90908190D01*
X221210238Y-91003428D01*
X221305476Y-91098666D01*
X221353095Y-91193904D01*
X221400714Y-89765333D02*
X222067380Y-89765333D01*
X221019761Y-90003428D02*
X221734047Y-90241523D01*
X221734047Y-89622476D01*
X234748342Y-121191257D02*
X234795961Y-121238876D01*
X234843580Y-121381733D01*
X234843580Y-121476971D01*
X234795961Y-121619828D01*
X234700723Y-121715066D01*
X234605485Y-121762685D01*
X234415009Y-121810304D01*
X234272152Y-121810304D01*
X234081676Y-121762685D01*
X233986438Y-121715066D01*
X233891200Y-121619828D01*
X233843580Y-121476971D01*
X233843580Y-121381733D01*
X233891200Y-121238876D01*
X233938819Y-121191257D01*
X234843580Y-120238876D02*
X234843580Y-120810304D01*
X234843580Y-120524590D02*
X233843580Y-120524590D01*
X233986438Y-120619828D01*
X234081676Y-120715066D01*
X234129295Y-120810304D01*
X233843580Y-119334114D02*
X233843580Y-119810304D01*
X234319771Y-119857923D01*
X234272152Y-119810304D01*
X234224533Y-119715066D01*
X234224533Y-119476971D01*
X234272152Y-119381733D01*
X234319771Y-119334114D01*
X234415009Y-119286495D01*
X234653104Y-119286495D01*
X234748342Y-119334114D01*
X234795961Y-119381733D01*
X234843580Y-119476971D01*
X234843580Y-119715066D01*
X234795961Y-119810304D01*
X234748342Y-119857923D01*
X224147142Y-122378742D02*
X224099523Y-122426361D01*
X223956666Y-122473980D01*
X223861428Y-122473980D01*
X223718571Y-122426361D01*
X223623333Y-122331123D01*
X223575714Y-122235885D01*
X223528095Y-122045409D01*
X223528095Y-121902552D01*
X223575714Y-121712076D01*
X223623333Y-121616838D01*
X223718571Y-121521600D01*
X223861428Y-121473980D01*
X223956666Y-121473980D01*
X224099523Y-121521600D01*
X224147142Y-121569219D01*
X225099523Y-122473980D02*
X224528095Y-122473980D01*
X224813809Y-122473980D02*
X224813809Y-121473980D01*
X224718571Y-121616838D01*
X224623333Y-121712076D01*
X224528095Y-121759695D01*
X225956666Y-121473980D02*
X225766190Y-121473980D01*
X225670952Y-121521600D01*
X225623333Y-121569219D01*
X225528095Y-121712076D01*
X225480476Y-121902552D01*
X225480476Y-122283504D01*
X225528095Y-122378742D01*
X225575714Y-122426361D01*
X225670952Y-122473980D01*
X225861428Y-122473980D01*
X225956666Y-122426361D01*
X226004285Y-122378742D01*
X226051904Y-122283504D01*
X226051904Y-122045409D01*
X226004285Y-121950171D01*
X225956666Y-121902552D01*
X225861428Y-121854933D01*
X225670952Y-121854933D01*
X225575714Y-121902552D01*
X225528095Y-121950171D01*
X225480476Y-122045409D01*
X220540342Y-122378742D02*
X220492723Y-122426361D01*
X220349866Y-122473980D01*
X220254628Y-122473980D01*
X220111771Y-122426361D01*
X220016533Y-122331123D01*
X219968914Y-122235885D01*
X219921295Y-122045409D01*
X219921295Y-121902552D01*
X219968914Y-121712076D01*
X220016533Y-121616838D01*
X220111771Y-121521600D01*
X220254628Y-121473980D01*
X220349866Y-121473980D01*
X220492723Y-121521600D01*
X220540342Y-121569219D01*
X221492723Y-122473980D02*
X220921295Y-122473980D01*
X221207009Y-122473980D02*
X221207009Y-121473980D01*
X221111771Y-121616838D01*
X221016533Y-121712076D01*
X220921295Y-121759695D01*
X221826057Y-121473980D02*
X222492723Y-121473980D01*
X222064152Y-122473980D01*
X201826833Y-60840880D02*
X201493500Y-60364690D01*
X201255404Y-60840880D02*
X201255404Y-59840880D01*
X201636357Y-59840880D01*
X201731595Y-59888500D01*
X201779214Y-59936119D01*
X201826833Y-60031357D01*
X201826833Y-60174214D01*
X201779214Y-60269452D01*
X201731595Y-60317071D01*
X201636357Y-60364690D01*
X201255404Y-60364690D01*
X202779214Y-60840880D02*
X202207785Y-60840880D01*
X202493500Y-60840880D02*
X202493500Y-59840880D01*
X202398261Y-59983738D01*
X202303023Y-60078976D01*
X202207785Y-60126595D01*
X201906214Y-51379309D02*
X202572880Y-51379309D01*
X201525261Y-51617404D02*
X202239547Y-51855500D01*
X202239547Y-51236452D01*
X202477642Y-50855500D02*
X202525261Y-50807880D01*
X202572880Y-50855500D01*
X202525261Y-50903119D01*
X202477642Y-50855500D01*
X202572880Y-50855500D01*
X201572880Y-50474547D02*
X201572880Y-49807880D01*
X202572880Y-50236452D01*
X202572880Y-49426928D02*
X201572880Y-49426928D01*
X202572880Y-48855500D02*
X202001452Y-49284071D01*
X201572880Y-48855500D02*
X202144309Y-49426928D01*
X192517733Y-60853580D02*
X192184400Y-60377390D01*
X191946304Y-60853580D02*
X191946304Y-59853580D01*
X192327257Y-59853580D01*
X192422495Y-59901200D01*
X192470114Y-59948819D01*
X192517733Y-60044057D01*
X192517733Y-60186914D01*
X192470114Y-60282152D01*
X192422495Y-60329771D01*
X192327257Y-60377390D01*
X191946304Y-60377390D01*
X192898685Y-59948819D02*
X192946304Y-59901200D01*
X193041542Y-59853580D01*
X193279638Y-59853580D01*
X193374876Y-59901200D01*
X193422495Y-59948819D01*
X193470114Y-60044057D01*
X193470114Y-60139295D01*
X193422495Y-60282152D01*
X192851066Y-60853580D01*
X193470114Y-60853580D01*
X192571714Y-51328509D02*
X193238380Y-51328509D01*
X192190761Y-51566604D02*
X192905047Y-51804700D01*
X192905047Y-51185652D01*
X193143142Y-50804700D02*
X193190761Y-50757080D01*
X193238380Y-50804700D01*
X193190761Y-50852319D01*
X193143142Y-50804700D01*
X193238380Y-50804700D01*
X192238380Y-50423747D02*
X192238380Y-49757080D01*
X193238380Y-50185652D01*
X193238380Y-49376128D02*
X192238380Y-49376128D01*
X193238380Y-48804700D02*
X192666952Y-49233271D01*
X192238380Y-48804700D02*
X192809809Y-49376128D01*
X204557333Y-60840880D02*
X204224000Y-60364690D01*
X203985904Y-60840880D02*
X203985904Y-59840880D01*
X204366857Y-59840880D01*
X204462095Y-59888500D01*
X204509714Y-59936119D01*
X204557333Y-60031357D01*
X204557333Y-60174214D01*
X204509714Y-60269452D01*
X204462095Y-60317071D01*
X204366857Y-60364690D01*
X203985904Y-60364690D01*
X204890666Y-59840880D02*
X205509714Y-59840880D01*
X205176380Y-60221833D01*
X205319238Y-60221833D01*
X205414476Y-60269452D01*
X205462095Y-60317071D01*
X205509714Y-60412309D01*
X205509714Y-60650404D01*
X205462095Y-60745642D01*
X205414476Y-60793261D01*
X205319238Y-60840880D01*
X205033523Y-60840880D01*
X204938285Y-60793261D01*
X204890666Y-60745642D01*
X204509714Y-51442809D02*
X205176380Y-51442809D01*
X204128761Y-51680904D02*
X204843047Y-51919000D01*
X204843047Y-51299952D01*
X205081142Y-50919000D02*
X205128761Y-50871380D01*
X205176380Y-50919000D01*
X205128761Y-50966619D01*
X205081142Y-50919000D01*
X205176380Y-50919000D01*
X204176380Y-50538047D02*
X204176380Y-49871380D01*
X205176380Y-50299952D01*
X205176380Y-49490428D02*
X204176380Y-49490428D01*
X205176380Y-48919000D02*
X204604952Y-49347571D01*
X204176380Y-48919000D02*
X204747809Y-49490428D01*
X203872500Y-66476404D02*
X203872500Y-66000214D01*
X205239880Y-66238309D02*
X204239880Y-66238309D01*
X203872500Y-66000214D02*
X203872500Y-65000214D01*
X205239880Y-65190690D02*
X204763690Y-65524023D01*
X205239880Y-65762119D02*
X204239880Y-65762119D01*
X204239880Y-65381166D01*
X204287500Y-65285928D01*
X204335119Y-65238309D01*
X204430357Y-65190690D01*
X204573214Y-65190690D01*
X204668452Y-65238309D01*
X204716071Y-65285928D01*
X204763690Y-65381166D01*
X204763690Y-65762119D01*
X203872500Y-65000214D02*
X203872500Y-63952595D01*
X205335119Y-64095452D02*
X205287500Y-64190690D01*
X205192261Y-64285928D01*
X205049404Y-64428785D01*
X205001785Y-64524023D01*
X205001785Y-64619261D01*
X205239880Y-64571642D02*
X205192261Y-64666880D01*
X205097023Y-64762119D01*
X204906547Y-64809738D01*
X204573214Y-64809738D01*
X204382738Y-64762119D01*
X204287500Y-64666880D01*
X204239880Y-64571642D01*
X204239880Y-64381166D01*
X204287500Y-64285928D01*
X204382738Y-64190690D01*
X204573214Y-64143071D01*
X204906547Y-64143071D01*
X205097023Y-64190690D01*
X205192261Y-64285928D01*
X205239880Y-64381166D01*
X205239880Y-64571642D01*
X199223333Y-60840880D02*
X198890000Y-60364690D01*
X198651904Y-60840880D02*
X198651904Y-59840880D01*
X199032857Y-59840880D01*
X199128095Y-59888500D01*
X199175714Y-59936119D01*
X199223333Y-60031357D01*
X199223333Y-60174214D01*
X199175714Y-60269452D01*
X199128095Y-60317071D01*
X199032857Y-60364690D01*
X198651904Y-60364690D01*
X200080476Y-60174214D02*
X200080476Y-60840880D01*
X199842380Y-59793261D02*
X199604285Y-60507547D01*
X200223333Y-60507547D01*
X199175714Y-51315809D02*
X199842380Y-51315809D01*
X198794761Y-51553904D02*
X199509047Y-51792000D01*
X199509047Y-51172952D01*
X199747142Y-50792000D02*
X199794761Y-50744380D01*
X199842380Y-50792000D01*
X199794761Y-50839619D01*
X199747142Y-50792000D01*
X199842380Y-50792000D01*
X198842380Y-50411047D02*
X198842380Y-49744380D01*
X199842380Y-50172952D01*
X199842380Y-49363428D02*
X198842380Y-49363428D01*
X199842380Y-48792000D02*
X199270952Y-49220571D01*
X198842380Y-48792000D02*
X199413809Y-49363428D01*
X198475000Y-66444595D02*
X198475000Y-65396976D01*
X199842380Y-66206500D02*
X198842380Y-66206500D01*
X199318571Y-66206500D02*
X199318571Y-65635071D01*
X199842380Y-65635071D02*
X198842380Y-65635071D01*
X198475000Y-65396976D02*
X198475000Y-64539833D01*
X199556666Y-65206500D02*
X199556666Y-64730309D01*
X199842380Y-65301738D02*
X198842380Y-64968404D01*
X199842380Y-64635071D01*
X198475000Y-64539833D02*
X198475000Y-63730309D01*
X199842380Y-63825547D02*
X199842380Y-64301738D01*
X198842380Y-64301738D01*
X198475000Y-63730309D02*
X198475000Y-62968404D01*
X198842380Y-63635071D02*
X198842380Y-63063642D01*
X199842380Y-63349357D02*
X198842380Y-63349357D01*
X195413333Y-60802780D02*
X195080000Y-60326590D01*
X194841904Y-60802780D02*
X194841904Y-59802780D01*
X195222857Y-59802780D01*
X195318095Y-59850400D01*
X195365714Y-59898019D01*
X195413333Y-59993257D01*
X195413333Y-60136114D01*
X195365714Y-60231352D01*
X195318095Y-60278971D01*
X195222857Y-60326590D01*
X194841904Y-60326590D01*
X196318095Y-59802780D02*
X195841904Y-59802780D01*
X195794285Y-60278971D01*
X195841904Y-60231352D01*
X195937142Y-60183733D01*
X196175238Y-60183733D01*
X196270476Y-60231352D01*
X196318095Y-60278971D01*
X196365714Y-60374209D01*
X196365714Y-60612304D01*
X196318095Y-60707542D01*
X196270476Y-60755161D01*
X196175238Y-60802780D01*
X195937142Y-60802780D01*
X195841904Y-60755161D01*
X195794285Y-60707542D01*
X195492714Y-51315809D02*
X196159380Y-51315809D01*
X195111761Y-51553904D02*
X195826047Y-51792000D01*
X195826047Y-51172952D01*
X196064142Y-50792000D02*
X196111761Y-50744380D01*
X196159380Y-50792000D01*
X196111761Y-50839619D01*
X196064142Y-50792000D01*
X196159380Y-50792000D01*
X195159380Y-50411047D02*
X195159380Y-49744380D01*
X196159380Y-50172952D01*
X196159380Y-49363428D02*
X195159380Y-49363428D01*
X196159380Y-48792000D02*
X195587952Y-49220571D01*
X195159380Y-48792000D02*
X195730809Y-49363428D01*
X194792000Y-66269904D02*
X194792000Y-65269904D01*
X196159380Y-65460380D02*
X195683190Y-65793714D01*
X196159380Y-66031809D02*
X195159380Y-66031809D01*
X195159380Y-65650857D01*
X195207000Y-65555619D01*
X195254619Y-65508000D01*
X195349857Y-65460380D01*
X195492714Y-65460380D01*
X195587952Y-65508000D01*
X195635571Y-65555619D01*
X195683190Y-65650857D01*
X195683190Y-66031809D01*
X194792000Y-65269904D02*
X194792000Y-64365142D01*
X195635571Y-65031809D02*
X195635571Y-64698476D01*
X196159380Y-64555619D02*
X196159380Y-65031809D01*
X195159380Y-65031809D01*
X195159380Y-64555619D01*
X194792000Y-64365142D02*
X194792000Y-63412761D01*
X196111761Y-64174666D02*
X196159380Y-64031809D01*
X196159380Y-63793714D01*
X196111761Y-63698476D01*
X196064142Y-63650857D01*
X195968904Y-63603238D01*
X195873666Y-63603238D01*
X195778428Y-63650857D01*
X195730809Y-63698476D01*
X195683190Y-63793714D01*
X195635571Y-63984190D01*
X195587952Y-64079428D01*
X195540333Y-64127047D01*
X195445095Y-64174666D01*
X195349857Y-64174666D01*
X195254619Y-64127047D01*
X195207000Y-64079428D01*
X195159380Y-63984190D01*
X195159380Y-63746095D01*
X195207000Y-63603238D01*
X194792000Y-63412761D02*
X194792000Y-62508000D01*
X195635571Y-63174666D02*
X195635571Y-62841333D01*
X196159380Y-62698476D02*
X196159380Y-63174666D01*
X195159380Y-63174666D01*
X195159380Y-62698476D01*
X194792000Y-62508000D02*
X194792000Y-61746095D01*
X195159380Y-62412761D02*
X195159380Y-61841333D01*
X196159380Y-62127047D02*
X195159380Y-62127047D01*
X229322333Y-46680380D02*
X228989000Y-46204190D01*
X228750904Y-46680380D02*
X228750904Y-45680380D01*
X229131857Y-45680380D01*
X229227095Y-45728000D01*
X229274714Y-45775619D01*
X229322333Y-45870857D01*
X229322333Y-46013714D01*
X229274714Y-46108952D01*
X229227095Y-46156571D01*
X229131857Y-46204190D01*
X228750904Y-46204190D01*
X229893761Y-46108952D02*
X229798523Y-46061333D01*
X229750904Y-46013714D01*
X229703285Y-45918476D01*
X229703285Y-45870857D01*
X229750904Y-45775619D01*
X229798523Y-45728000D01*
X229893761Y-45680380D01*
X230084238Y-45680380D01*
X230179476Y-45728000D01*
X230227095Y-45775619D01*
X230274714Y-45870857D01*
X230274714Y-45918476D01*
X230227095Y-46013714D01*
X230179476Y-46061333D01*
X230084238Y-46108952D01*
X229893761Y-46108952D01*
X229798523Y-46156571D01*
X229750904Y-46204190D01*
X229703285Y-46299428D01*
X229703285Y-46489904D01*
X229750904Y-46585142D01*
X229798523Y-46632761D01*
X229893761Y-46680380D01*
X230084238Y-46680380D01*
X230179476Y-46632761D01*
X230227095Y-46585142D01*
X230274714Y-46489904D01*
X230274714Y-46299428D01*
X230227095Y-46204190D01*
X230179476Y-46156571D01*
X230084238Y-46108952D01*
X218257380Y-67603666D02*
X217781190Y-67937000D01*
X218257380Y-68175095D02*
X217257380Y-68175095D01*
X217257380Y-67794142D01*
X217305000Y-67698904D01*
X217352619Y-67651285D01*
X217447857Y-67603666D01*
X217590714Y-67603666D01*
X217685952Y-67651285D01*
X217733571Y-67698904D01*
X217781190Y-67794142D01*
X217781190Y-68175095D01*
X218257380Y-67127476D02*
X218257380Y-66937000D01*
X218209761Y-66841761D01*
X218162142Y-66794142D01*
X218019285Y-66698904D01*
X217828809Y-66651285D01*
X217447857Y-66651285D01*
X217352619Y-66698904D01*
X217305000Y-66746523D01*
X217257380Y-66841761D01*
X217257380Y-67032238D01*
X217305000Y-67127476D01*
X217352619Y-67175095D01*
X217447857Y-67222714D01*
X217685952Y-67222714D01*
X217781190Y-67175095D01*
X217828809Y-67127476D01*
X217876428Y-67032238D01*
X217876428Y-66841761D01*
X217828809Y-66746523D01*
X217781190Y-66698904D01*
X217685952Y-66651285D01*
X218130380Y-81922857D02*
X217654190Y-82256190D01*
X218130380Y-82494285D02*
X217130380Y-82494285D01*
X217130380Y-82113333D01*
X217178000Y-82018095D01*
X217225619Y-81970476D01*
X217320857Y-81922857D01*
X217463714Y-81922857D01*
X217558952Y-81970476D01*
X217606571Y-82018095D01*
X217654190Y-82113333D01*
X217654190Y-82494285D01*
X218130380Y-80970476D02*
X218130380Y-81541904D01*
X218130380Y-81256190D02*
X217130380Y-81256190D01*
X217273238Y-81351428D01*
X217368476Y-81446666D01*
X217416095Y-81541904D01*
X217130380Y-80351428D02*
X217130380Y-80256190D01*
X217178000Y-80160952D01*
X217225619Y-80113333D01*
X217320857Y-80065714D01*
X217511333Y-80018095D01*
X217749428Y-80018095D01*
X217939904Y-80065714D01*
X218035142Y-80113333D01*
X218082761Y-80160952D01*
X218130380Y-80256190D01*
X218130380Y-80351428D01*
X218082761Y-80446666D01*
X218035142Y-80494285D01*
X217939904Y-80541904D01*
X217749428Y-80589523D01*
X217511333Y-80589523D01*
X217320857Y-80541904D01*
X217225619Y-80494285D01*
X217178000Y-80446666D01*
X217130380Y-80351428D01*
X218892380Y-93352857D02*
X218416190Y-93686190D01*
X218892380Y-93924285D02*
X217892380Y-93924285D01*
X217892380Y-93543333D01*
X217940000Y-93448095D01*
X217987619Y-93400476D01*
X218082857Y-93352857D01*
X218225714Y-93352857D01*
X218320952Y-93400476D01*
X218368571Y-93448095D01*
X218416190Y-93543333D01*
X218416190Y-93924285D01*
X218892380Y-92400476D02*
X218892380Y-92971904D01*
X218892380Y-92686190D02*
X217892380Y-92686190D01*
X218035238Y-92781428D01*
X218130476Y-92876666D01*
X218178095Y-92971904D01*
X218892380Y-91448095D02*
X218892380Y-92019523D01*
X218892380Y-91733809D02*
X217892380Y-91733809D01*
X218035238Y-91829047D01*
X218130476Y-91924285D01*
X218178095Y-92019523D01*
X212336142Y-48585380D02*
X212002809Y-48109190D01*
X211764714Y-48585380D02*
X211764714Y-47585380D01*
X212145666Y-47585380D01*
X212240904Y-47633000D01*
X212288523Y-47680619D01*
X212336142Y-47775857D01*
X212336142Y-47918714D01*
X212288523Y-48013952D01*
X212240904Y-48061571D01*
X212145666Y-48109190D01*
X211764714Y-48109190D01*
X213288523Y-48585380D02*
X212717095Y-48585380D01*
X213002809Y-48585380D02*
X213002809Y-47585380D01*
X212907571Y-47728238D01*
X212812333Y-47823476D01*
X212717095Y-47871095D01*
X213621857Y-47585380D02*
X214240904Y-47585380D01*
X213907571Y-47966333D01*
X214050428Y-47966333D01*
X214145666Y-48013952D01*
X214193285Y-48061571D01*
X214240904Y-48156809D01*
X214240904Y-48394904D01*
X214193285Y-48490142D01*
X214145666Y-48537761D01*
X214050428Y-48585380D01*
X213764714Y-48585380D01*
X213669476Y-48537761D01*
X213621857Y-48490142D01*
X241038142Y-57303380D02*
X240704809Y-56827190D01*
X240466714Y-57303380D02*
X240466714Y-56303380D01*
X240847666Y-56303380D01*
X240942904Y-56351000D01*
X240990523Y-56398619D01*
X241038142Y-56493857D01*
X241038142Y-56636714D01*
X240990523Y-56731952D01*
X240942904Y-56779571D01*
X240847666Y-56827190D01*
X240466714Y-56827190D01*
X241990523Y-57303380D02*
X241419095Y-57303380D01*
X241704809Y-57303380D02*
X241704809Y-56303380D01*
X241609571Y-56446238D01*
X241514333Y-56541476D01*
X241419095Y-56589095D01*
X242895285Y-56303380D02*
X242419095Y-56303380D01*
X242371476Y-56779571D01*
X242419095Y-56731952D01*
X242514333Y-56684333D01*
X242752428Y-56684333D01*
X242847666Y-56731952D01*
X242895285Y-56779571D01*
X242942904Y-56874809D01*
X242942904Y-57112904D01*
X242895285Y-57208142D01*
X242847666Y-57255761D01*
X242752428Y-57303380D01*
X242514333Y-57303380D01*
X242419095Y-57255761D01*
X242371476Y-57208142D01*
X230124095Y-50382380D02*
X230124095Y-51191904D01*
X230171714Y-51287142D01*
X230219333Y-51334761D01*
X230314571Y-51382380D01*
X230505047Y-51382380D01*
X230600285Y-51334761D01*
X230647904Y-51287142D01*
X230695523Y-51191904D01*
X230695523Y-50382380D01*
X231076476Y-50382380D02*
X231695523Y-50382380D01*
X231362190Y-50763333D01*
X231505047Y-50763333D01*
X231600285Y-50810952D01*
X231647904Y-50858571D01*
X231695523Y-50953809D01*
X231695523Y-51191904D01*
X231647904Y-51287142D01*
X231600285Y-51334761D01*
X231505047Y-51382380D01*
X231219333Y-51382380D01*
X231124095Y-51334761D01*
X231076476Y-51287142D01*
X229870095Y-64730380D02*
X229870095Y-65539904D01*
X229917714Y-65635142D01*
X229965333Y-65682761D01*
X230060571Y-65730380D01*
X230251047Y-65730380D01*
X230346285Y-65682761D01*
X230393904Y-65635142D01*
X230441523Y-65539904D01*
X230441523Y-64730380D01*
X231346285Y-65063714D02*
X231346285Y-65730380D01*
X231108190Y-64682761D02*
X230870095Y-65397047D01*
X231489142Y-65397047D01*
X230124095Y-79084380D02*
X230124095Y-79893904D01*
X230171714Y-79989142D01*
X230219333Y-80036761D01*
X230314571Y-80084380D01*
X230505047Y-80084380D01*
X230600285Y-80036761D01*
X230647904Y-79989142D01*
X230695523Y-79893904D01*
X230695523Y-79084380D01*
X231647904Y-79084380D02*
X231171714Y-79084380D01*
X231124095Y-79560571D01*
X231171714Y-79512952D01*
X231266952Y-79465333D01*
X231505047Y-79465333D01*
X231600285Y-79512952D01*
X231647904Y-79560571D01*
X231695523Y-79655809D01*
X231695523Y-79893904D01*
X231647904Y-79989142D01*
X231600285Y-80036761D01*
X231505047Y-80084380D01*
X231266952Y-80084380D01*
X231171714Y-80036761D01*
X231124095Y-79989142D01*
X230124095Y-93308380D02*
X230124095Y-94117904D01*
X230171714Y-94213142D01*
X230219333Y-94260761D01*
X230314571Y-94308380D01*
X230505047Y-94308380D01*
X230600285Y-94260761D01*
X230647904Y-94213142D01*
X230695523Y-94117904D01*
X230695523Y-93308380D01*
X231600285Y-93308380D02*
X231409809Y-93308380D01*
X231314571Y-93356000D01*
X231266952Y-93403619D01*
X231171714Y-93546476D01*
X231124095Y-93736952D01*
X231124095Y-94117904D01*
X231171714Y-94213142D01*
X231219333Y-94260761D01*
X231314571Y-94308380D01*
X231505047Y-94308380D01*
X231600285Y-94260761D01*
X231647904Y-94213142D01*
X231695523Y-94117904D01*
X231695523Y-93879809D01*
X231647904Y-93784571D01*
X231600285Y-93736952D01*
X231505047Y-93689333D01*
X231314571Y-93689333D01*
X231219333Y-93736952D01*
X231171714Y-93784571D01*
X231124095Y-93879809D01*
X230174895Y-118346780D02*
X230174895Y-119156304D01*
X230222514Y-119251542D01*
X230270133Y-119299161D01*
X230365371Y-119346780D01*
X230555847Y-119346780D01*
X230651085Y-119299161D01*
X230698704Y-119251542D01*
X230746323Y-119156304D01*
X230746323Y-118346780D01*
X231127276Y-118346780D02*
X231793942Y-118346780D01*
X231365371Y-119346780D01*
X191893866Y-63866780D02*
X191893866Y-64581066D01*
X191846247Y-64723923D01*
X191751009Y-64819161D01*
X191608152Y-64866780D01*
X191512914Y-64866780D01*
X192798628Y-63866780D02*
X192608152Y-63866780D01*
X192512914Y-63914400D01*
X192465295Y-63962019D01*
X192370057Y-64104876D01*
X192322438Y-64295352D01*
X192322438Y-64676304D01*
X192370057Y-64771542D01*
X192417676Y-64819161D01*
X192512914Y-64866780D01*
X192703390Y-64866780D01*
X192798628Y-64819161D01*
X192846247Y-64771542D01*
X192893866Y-64676304D01*
X192893866Y-64438209D01*
X192846247Y-64342971D01*
X192798628Y-64295352D01*
X192703390Y-64247733D01*
X192512914Y-64247733D01*
X192417676Y-64295352D01*
X192370057Y-64342971D01*
X192322438Y-64438209D01*
X186612590Y-68530742D02*
X186564971Y-68578361D01*
X186422114Y-68625980D01*
X186326876Y-68625980D01*
X186184019Y-68578361D01*
X186088780Y-68483123D01*
X186041161Y-68387885D01*
X185993542Y-68197409D01*
X185993542Y-68054552D01*
X186041161Y-67864076D01*
X186088780Y-67768838D01*
X186184019Y-67673600D01*
X186326876Y-67625980D01*
X186422114Y-67625980D01*
X186564971Y-67673600D01*
X186612590Y-67721219D01*
X187231638Y-67625980D02*
X187422114Y-67625980D01*
X187517352Y-67673600D01*
X187612590Y-67768838D01*
X187660209Y-67959314D01*
X187660209Y-68292647D01*
X187612590Y-68483123D01*
X187517352Y-68578361D01*
X187422114Y-68625980D01*
X187231638Y-68625980D01*
X187136400Y-68578361D01*
X187041161Y-68483123D01*
X186993542Y-68292647D01*
X186993542Y-67959314D01*
X187041161Y-67768838D01*
X187136400Y-67673600D01*
X187231638Y-67625980D01*
X188088780Y-68625980D02*
X188088780Y-67625980D01*
X188660209Y-68625980D01*
X188660209Y-67625980D01*
X188993542Y-67625980D02*
X189564971Y-67625980D01*
X189279257Y-68625980D02*
X189279257Y-67625980D01*
X190469733Y-68625980D02*
X190136400Y-68149790D01*
X189898304Y-68625980D02*
X189898304Y-67625980D01*
X190279257Y-67625980D01*
X190374495Y-67673600D01*
X190422114Y-67721219D01*
X190469733Y-67816457D01*
X190469733Y-67959314D01*
X190422114Y-68054552D01*
X190374495Y-68102171D01*
X190279257Y-68149790D01*
X189898304Y-68149790D01*
X191088780Y-67625980D02*
X191279257Y-67625980D01*
X191374495Y-67673600D01*
X191469733Y-67768838D01*
X191517352Y-67959314D01*
X191517352Y-68292647D01*
X191469733Y-68483123D01*
X191374495Y-68578361D01*
X191279257Y-68625980D01*
X191088780Y-68625980D01*
X190993542Y-68578361D01*
X190898304Y-68483123D01*
X190850685Y-68292647D01*
X190850685Y-67959314D01*
X190898304Y-67768838D01*
X190993542Y-67673600D01*
X191088780Y-67625980D01*
X192422114Y-68625980D02*
X191945923Y-68625980D01*
X191945923Y-67625980D01*
X192707828Y-67721219D02*
X192755447Y-67673600D01*
X192850685Y-67625980D01*
X193088780Y-67625980D01*
X193184019Y-67673600D01*
X193231638Y-67721219D01*
X193279257Y-67816457D01*
X193279257Y-67911695D01*
X193231638Y-68054552D01*
X192660209Y-68625980D01*
X193279257Y-68625980D01*
X184339123Y-62432600D02*
X185196266Y-62432600D01*
X184910552Y-63276171D02*
X184577219Y-63276171D01*
X184577219Y-63799980D02*
X184577219Y-62799980D01*
X185053409Y-62799980D01*
X185196266Y-62432600D02*
X185672457Y-62432600D01*
X185434361Y-63799980D02*
X185434361Y-62799980D01*
X185672457Y-62432600D02*
X186672457Y-62432600D01*
X186481980Y-63799980D02*
X186148647Y-63323790D01*
X185910552Y-63799980D02*
X185910552Y-62799980D01*
X186291504Y-62799980D01*
X186386742Y-62847600D01*
X186434361Y-62895219D01*
X186481980Y-62990457D01*
X186481980Y-63133314D01*
X186434361Y-63228552D01*
X186386742Y-63276171D01*
X186291504Y-63323790D01*
X185910552Y-63323790D01*
X186672457Y-62432600D02*
X187720076Y-62432600D01*
X187577219Y-63895219D02*
X187481980Y-63847600D01*
X187386742Y-63752361D01*
X187243885Y-63609504D01*
X187148647Y-63561885D01*
X187053409Y-63561885D01*
X187101028Y-63799980D02*
X187005790Y-63752361D01*
X186910552Y-63657123D01*
X186862933Y-63466647D01*
X186862933Y-63133314D01*
X186910552Y-62942838D01*
X187005790Y-62847600D01*
X187101028Y-62799980D01*
X187291504Y-62799980D01*
X187386742Y-62847600D01*
X187481980Y-62942838D01*
X187529600Y-63133314D01*
X187529600Y-63466647D01*
X187481980Y-63657123D01*
X187386742Y-63752361D01*
X187291504Y-63799980D01*
X187101028Y-63799980D01*
X184950266Y-65023400D02*
X185997885Y-65023400D01*
X185188361Y-66390780D02*
X185188361Y-65390780D01*
X185759790Y-66390780D01*
X185759790Y-65390780D01*
X185997885Y-65023400D02*
X187140742Y-65023400D01*
X186235980Y-66390780D02*
X186235980Y-65390780D01*
X186569314Y-66105066D01*
X186902647Y-65390780D01*
X186902647Y-66390780D01*
X187140742Y-65023400D02*
X187616933Y-65023400D01*
X187378838Y-66390780D02*
X187378838Y-65390780D01*
X172750266Y-45382380D02*
X172750266Y-46096666D01*
X172702647Y-46239523D01*
X172607409Y-46334761D01*
X172464552Y-46382380D01*
X172369314Y-46382380D01*
X173226457Y-46382380D02*
X173226457Y-45382380D01*
X173607409Y-45382380D01*
X173702647Y-45430000D01*
X173750266Y-45477619D01*
X173797885Y-45572857D01*
X173797885Y-45715714D01*
X173750266Y-45810952D01*
X173702647Y-45858571D01*
X173607409Y-45906190D01*
X173226457Y-45906190D01*
X174131219Y-45382380D02*
X174750266Y-45382380D01*
X174416933Y-45763333D01*
X174559790Y-45763333D01*
X174655028Y-45810952D01*
X174702647Y-45858571D01*
X174750266Y-45953809D01*
X174750266Y-46191904D01*
X174702647Y-46287142D01*
X174655028Y-46334761D01*
X174559790Y-46382380D01*
X174274076Y-46382380D01*
X174178838Y-46334761D01*
X174131219Y-46287142D01*
X172485180Y-53646342D02*
X172437561Y-53693961D01*
X172294704Y-53741580D01*
X172199466Y-53741580D01*
X172056609Y-53693961D01*
X171961371Y-53598723D01*
X171913752Y-53503485D01*
X171866133Y-53313009D01*
X171866133Y-53170152D01*
X171913752Y-52979676D01*
X171961371Y-52884438D01*
X172056609Y-52789200D01*
X172199466Y-52741580D01*
X172294704Y-52741580D01*
X172437561Y-52789200D01*
X172485180Y-52836819D01*
X173389942Y-53741580D02*
X172913752Y-53741580D01*
X172913752Y-52741580D01*
X173723276Y-53741580D02*
X173723276Y-52741580D01*
X174294704Y-53741580D02*
X173866133Y-53170152D01*
X174294704Y-52741580D02*
X173723276Y-53313009D01*
X174723276Y-53217771D02*
X175056609Y-53217771D01*
X175199466Y-53741580D02*
X174723276Y-53741580D01*
X174723276Y-52741580D01*
X175199466Y-52741580D01*
X176915866Y-45382380D02*
X176915866Y-46096666D01*
X176868247Y-46239523D01*
X176773009Y-46334761D01*
X176630152Y-46382380D01*
X176534914Y-46382380D01*
X177392057Y-46382380D02*
X177392057Y-45382380D01*
X177773009Y-45382380D01*
X177868247Y-45430000D01*
X177915866Y-45477619D01*
X177963485Y-45572857D01*
X177963485Y-45715714D01*
X177915866Y-45810952D01*
X177868247Y-45858571D01*
X177773009Y-45906190D01*
X177392057Y-45906190D01*
X178820628Y-45715714D02*
X178820628Y-46382380D01*
X178582533Y-45334761D02*
X178344438Y-46049047D01*
X178963485Y-46049047D01*
X176579352Y-53646342D02*
X176531733Y-53693961D01*
X176388876Y-53741580D01*
X176293638Y-53741580D01*
X176150780Y-53693961D01*
X176055542Y-53598723D01*
X176007923Y-53503485D01*
X175960304Y-53313009D01*
X175960304Y-53170152D01*
X176007923Y-52979676D01*
X176055542Y-52884438D01*
X176150780Y-52789200D01*
X176293638Y-52741580D01*
X176388876Y-52741580D01*
X176531733Y-52789200D01*
X176579352Y-52836819D01*
X177484114Y-53741580D02*
X177007923Y-53741580D01*
X177007923Y-52741580D01*
X177817447Y-53741580D02*
X177817447Y-52741580D01*
X178388876Y-53741580D02*
X177960304Y-53170152D01*
X178388876Y-52741580D02*
X177817447Y-53313009D01*
X179484114Y-53836819D02*
X179388876Y-53789200D01*
X179293638Y-53693961D01*
X179150780Y-53551104D01*
X179055542Y-53503485D01*
X178960304Y-53503485D01*
X179007923Y-53741580D02*
X178912685Y-53693961D01*
X178817447Y-53598723D01*
X178769828Y-53408247D01*
X178769828Y-53074914D01*
X178817447Y-52884438D01*
X178912685Y-52789200D01*
X179007923Y-52741580D01*
X179198400Y-52741580D01*
X179293638Y-52789200D01*
X179388876Y-52884438D01*
X179436495Y-53074914D01*
X179436495Y-53408247D01*
X179388876Y-53598723D01*
X179293638Y-53693961D01*
X179198400Y-53741580D01*
X179007923Y-53741580D01*
X186574133Y-60802780D02*
X186240800Y-60326590D01*
X186002704Y-60802780D02*
X186002704Y-59802780D01*
X186383657Y-59802780D01*
X186478895Y-59850400D01*
X186526514Y-59898019D01*
X186574133Y-59993257D01*
X186574133Y-60136114D01*
X186526514Y-60231352D01*
X186478895Y-60278971D01*
X186383657Y-60326590D01*
X186002704Y-60326590D01*
X187431276Y-59802780D02*
X187240800Y-59802780D01*
X187145561Y-59850400D01*
X187097942Y-59898019D01*
X187002704Y-60040876D01*
X186955085Y-60231352D01*
X186955085Y-60612304D01*
X187002704Y-60707542D01*
X187050323Y-60755161D01*
X187145561Y-60802780D01*
X187336038Y-60802780D01*
X187431276Y-60755161D01*
X187478895Y-60707542D01*
X187526514Y-60612304D01*
X187526514Y-60374209D01*
X187478895Y-60278971D01*
X187431276Y-60231352D01*
X187336038Y-60183733D01*
X187145561Y-60183733D01*
X187050323Y-60231352D01*
X187002704Y-60278971D01*
X186955085Y-60374209D01*
X186577314Y-51366609D02*
X187243980Y-51366609D01*
X186196361Y-51604704D02*
X186910647Y-51842800D01*
X186910647Y-51223752D01*
X187148742Y-50842800D02*
X187196361Y-50795180D01*
X187243980Y-50842800D01*
X187196361Y-50890419D01*
X187148742Y-50842800D01*
X187243980Y-50842800D01*
X186243980Y-50461847D02*
X186243980Y-49795180D01*
X187243980Y-50223752D01*
X187243980Y-49414228D02*
X186243980Y-49414228D01*
X187243980Y-48842800D02*
X186672552Y-49271371D01*
X186243980Y-48842800D02*
X186815409Y-49414228D01*
X189672933Y-60751980D02*
X189339600Y-60275790D01*
X189101504Y-60751980D02*
X189101504Y-59751980D01*
X189482457Y-59751980D01*
X189577695Y-59799600D01*
X189625314Y-59847219D01*
X189672933Y-59942457D01*
X189672933Y-60085314D01*
X189625314Y-60180552D01*
X189577695Y-60228171D01*
X189482457Y-60275790D01*
X189101504Y-60275790D01*
X190006266Y-59751980D02*
X190672933Y-59751980D01*
X190244361Y-60751980D01*
X189574514Y-51315809D02*
X190241180Y-51315809D01*
X189193561Y-51553904D02*
X189907847Y-51792000D01*
X189907847Y-51172952D01*
X190145942Y-50792000D02*
X190193561Y-50744380D01*
X190241180Y-50792000D01*
X190193561Y-50839619D01*
X190145942Y-50792000D01*
X190241180Y-50792000D01*
X189241180Y-50411047D02*
X189241180Y-49744380D01*
X190241180Y-50172952D01*
X190241180Y-49363428D02*
X189241180Y-49363428D01*
X190241180Y-48792000D02*
X189669752Y-49220571D01*
X189241180Y-48792000D02*
X189812609Y-49363428D01*
X221709180Y-107564133D02*
X222423466Y-107564133D01*
X222566323Y-107611752D01*
X222661561Y-107706990D01*
X222709180Y-107849847D01*
X222709180Y-107945085D01*
X222709180Y-107087942D02*
X221709180Y-107087942D01*
X221709180Y-106706990D01*
X221756800Y-106611752D01*
X221804419Y-106564133D01*
X221899657Y-106516514D01*
X222042514Y-106516514D01*
X222137752Y-106564133D01*
X222185371Y-106611752D01*
X222232990Y-106706990D01*
X222232990Y-107087942D01*
X221709180Y-105611752D02*
X221709180Y-106087942D01*
X222185371Y-106135561D01*
X222137752Y-106087942D01*
X222090133Y-105992704D01*
X222090133Y-105754609D01*
X222137752Y-105659371D01*
X222185371Y-105611752D01*
X222280609Y-105564133D01*
X222518704Y-105564133D01*
X222613942Y-105611752D01*
X222661561Y-105659371D01*
X222709180Y-105754609D01*
X222709180Y-105992704D01*
X222661561Y-106087942D01*
X222613942Y-106135561D01*
X222686952Y-104846380D02*
X222686952Y-103846380D01*
X223115523Y-104798761D02*
X223258380Y-104846380D01*
X223496476Y-104846380D01*
X223591714Y-104798761D01*
X223639333Y-104751142D01*
X223686952Y-104655904D01*
X223686952Y-104560666D01*
X223639333Y-104465428D01*
X223591714Y-104417809D01*
X223496476Y-104370190D01*
X223306000Y-104322571D01*
X223210761Y-104274952D01*
X223163142Y-104227333D01*
X223115523Y-104132095D01*
X223115523Y-104036857D01*
X223163142Y-103941619D01*
X223210761Y-103894000D01*
X223306000Y-103846380D01*
X223544095Y-103846380D01*
X223686952Y-103894000D01*
X224306000Y-103846380D02*
X224496476Y-103846380D01*
X224591714Y-103894000D01*
X224686952Y-103989238D01*
X224734571Y-104179714D01*
X224734571Y-104513047D01*
X224686952Y-104703523D01*
X224591714Y-104798761D01*
X224496476Y-104846380D01*
X224306000Y-104846380D01*
X224210761Y-104798761D01*
X224115523Y-104703523D01*
X224067904Y-104513047D01*
X224067904Y-104179714D01*
X224115523Y-103989238D01*
X224210761Y-103894000D01*
X224306000Y-103846380D01*
X224925047Y-104941619D02*
X225686952Y-104941619D01*
X225925047Y-104846380D02*
X225925047Y-103846380D01*
X226163142Y-103846380D01*
X226306000Y-103894000D01*
X226401238Y-103989238D01*
X226448857Y-104084476D01*
X226496476Y-104274952D01*
X226496476Y-104417809D01*
X226448857Y-104608285D01*
X226401238Y-104703523D01*
X226306000Y-104798761D01*
X226163142Y-104846380D01*
X225925047Y-104846380D01*
X226877428Y-104560666D02*
X227353619Y-104560666D01*
X226782190Y-104846380D02*
X227115523Y-103846380D01*
X227448857Y-104846380D01*
X227639333Y-103846380D02*
X228210761Y-103846380D01*
X227925047Y-104846380D02*
X227925047Y-103846380D01*
X228496476Y-104560666D02*
X228972666Y-104560666D01*
X228401238Y-104846380D02*
X228734571Y-103846380D01*
X229067904Y-104846380D01*
X231055942Y-64358780D02*
X230722609Y-63882590D01*
X230484514Y-64358780D02*
X230484514Y-63358780D01*
X230865466Y-63358780D01*
X230960704Y-63406400D01*
X231008323Y-63454019D01*
X231055942Y-63549257D01*
X231055942Y-63692114D01*
X231008323Y-63787352D01*
X230960704Y-63834971D01*
X230865466Y-63882590D01*
X230484514Y-63882590D01*
X232008323Y-64358780D02*
X231436895Y-64358780D01*
X231722609Y-64358780D02*
X231722609Y-63358780D01*
X231627371Y-63501638D01*
X231532133Y-63596876D01*
X231436895Y-63644495D01*
X232389276Y-63454019D02*
X232436895Y-63406400D01*
X232532133Y-63358780D01*
X232770228Y-63358780D01*
X232865466Y-63406400D01*
X232913085Y-63454019D01*
X232960704Y-63549257D01*
X232960704Y-63644495D01*
X232913085Y-63787352D01*
X232341657Y-64358780D01*
X232960704Y-64358780D01*
X232427542Y-105323180D02*
X232094209Y-104846990D01*
X231856114Y-105323180D02*
X231856114Y-104323180D01*
X232237066Y-104323180D01*
X232332304Y-104370800D01*
X232379923Y-104418419D01*
X232427542Y-104513657D01*
X232427542Y-104656514D01*
X232379923Y-104751752D01*
X232332304Y-104799371D01*
X232237066Y-104846990D01*
X231856114Y-104846990D01*
X233379923Y-105323180D02*
X232808495Y-105323180D01*
X233094209Y-105323180D02*
X233094209Y-104323180D01*
X232998971Y-104466038D01*
X232903733Y-104561276D01*
X232808495Y-104608895D01*
X234237066Y-104656514D02*
X234237066Y-105323180D01*
X233998971Y-104275561D02*
X233760876Y-104989847D01*
X234379923Y-104989847D01*
M02*
