M48
; DRILL file {KiCad (5.1.4)-1} date 26/09/2019 19:24:00
; FORMAT={2:4/ absolute / inch / suppress leading zeros}
; #@! TF.CreationDate,2019-09-26T19:24:00+02:00
; #@! TF.GenerationSoftware,Kicad,Pcbnew,(5.1.4)-1
; #@! TF.FileFunction,Plated,1,2,PTH
FMAT,2
INCH,TZ
T1C0.0157
T2C0.0276
T3C0.0300
T4C0.0315
T5C0.0394
T6C0.0520
%
G90
G05
T1
X71700Y-40250
X72850Y-40350
X73240Y-30780
X73960Y-24360
X74200Y-40100
X74660Y-32040
X75650Y-30250
X77500Y-26100
X78100Y-39050
X78500Y-22050
X78950Y-31450
X79020Y-33420
X79150Y-24950
X79250Y-32100
X79600Y-36300
X79975Y-24950
X80100Y-29350
X80260Y-34600
X80700Y-41165
X81350Y-24814
X81450Y-37550
X81500Y-28386
X83250Y-23250
X84331Y-22419
X84750Y-24350
X85000Y-38450
X85000Y-39509
X85002Y-40598
X85002Y-41598
X85400Y-28270
X85400Y-29235
X85700Y-39200
X85750Y-44750
X86060Y-46760
X86202Y-43798
X86650Y-40200
X86950Y-42150
X88950Y-24000
X88950Y-29700
X88950Y-35100
X89080Y-43300
X89750Y-18600
X90350Y-40930
X90450Y-23150
X90550Y-29950
X90650Y-34450
X90900Y-39940
X91240Y-27200
X91600Y-19550
X91600Y-19550
X91620Y-40940
X91700Y-29550
X91800Y-35700
X92550Y-23800
X92760Y-43040
X93275Y-30025
X93300Y-36400
X93880Y-40500
X94750Y-25100
X94800Y-29125
X96400Y-24700
X96525Y-29350
X96530Y-44100
X97300Y-24200
T2
X86450Y-30150
X86450Y-32150
X73520Y-21080
X73520Y-23080
X79550Y-21075
X79550Y-23075
X90240Y-24540
X92240Y-24540
X74720Y-21080
X74720Y-23080
X77050Y-21075
X77050Y-23075
X86700Y-35000
X86700Y-37000
X90450Y-18950
X92450Y-18950
X90760Y-42020
X92760Y-42020
X83700Y-19650
X85700Y-19650
X86500Y-24500
X86500Y-26500
X75900Y-21080
X75900Y-23080
X94150Y-21650
X96150Y-21650
X78475Y-21075
X78475Y-23075
X80625Y-21075
X80625Y-23075
T3
X69100Y-28400
X69100Y-29400
X69100Y-30400
X69100Y-31400
X69100Y-32400
X69100Y-33400
X69100Y-34400
X69100Y-35400
X69100Y-36400
X69100Y-37400
X70100Y-28400
X70100Y-29400
X70100Y-30400
X70100Y-31400
X70100Y-32400
X70100Y-33400
X70100Y-34400
X70100Y-35400
X70100Y-36400
X70100Y-37400
X71100Y-28400
X71100Y-29400
X71100Y-36400
X71100Y-37400
X72100Y-28400
X72100Y-29400
X72100Y-36400
X72100Y-37400
X73100Y-28400
X73100Y-29400
X73100Y-36400
X73100Y-37400
X74100Y-28400
X74100Y-29400
X74100Y-36400
X74100Y-37400
X75100Y-28400
X75100Y-29400
X75100Y-36400
X75100Y-37400
X76100Y-28400
X76100Y-29400
X76100Y-36400
X76100Y-37400
X77100Y-28400
X77100Y-29400
X77100Y-30400
X77100Y-31400
X77100Y-32400
X77100Y-33400
X77100Y-34400
X77100Y-35400
X77100Y-36400
X77100Y-37400
X78100Y-28400
X78100Y-29400
X78100Y-30400
X78100Y-31400
X78100Y-32400
X78100Y-33400
X78100Y-34400
X78100Y-35400
X78100Y-36400
X78100Y-37400
T4
X92816Y-20350
X93800Y-20350
X88500Y-46356
X88500Y-47340
X88000Y-24750
X88984Y-24750
X88000Y-31750
X88984Y-31750
X92816Y-37200
X93800Y-37200
X88000Y-19150
X88984Y-19150
X88000Y-26050
X88984Y-26050
X88000Y-35850
X88984Y-35850
X66500Y-32400
X67484Y-32400
X88000Y-30450
X88984Y-30450
X88000Y-37150
X88984Y-37150
X87080Y-46356
X87080Y-47340
X92816Y-25900
X93800Y-25900
X79716Y-33400
X80700Y-33400
X92816Y-31600
X93800Y-31600
X93260Y-46296
X93260Y-47280
X88000Y-20450
X88984Y-20450
T5
X95175Y-18925
X95175Y-19925
X84050Y-21000
X85050Y-21000
X88420Y-42020
X89420Y-42020
X68340Y-19000
X68340Y-20000
X83100Y-24100
X83100Y-25100
X83100Y-26100
X83100Y-27100
X83100Y-28100
X83100Y-29100
X83100Y-30100
X83100Y-31100
X83100Y-32100
X83100Y-33100
X83100Y-34100
X83100Y-35100
X83100Y-36100
X83100Y-37100
X83100Y-38100
X83100Y-39100
X83100Y-40100
X83100Y-41100
X83100Y-42100
X83100Y-43100
X84100Y-24100
X84100Y-25100
X84100Y-26100
X84100Y-27100
X84100Y-28100
X84100Y-29100
X84100Y-30100
X84100Y-31100
X84100Y-32100
X84100Y-33100
X84100Y-34100
X84100Y-35100
X84100Y-36100
X84100Y-37100
X84100Y-38100
X84100Y-39100
X84100Y-40100
X84100Y-41100
X84100Y-42100
X84100Y-43100
X98600Y-24100
X98600Y-25100
X98600Y-26100
X98600Y-27100
X98600Y-28100
X98600Y-29100
X98600Y-30100
X98600Y-31100
X98600Y-32100
X98600Y-33100
X98600Y-34100
X98600Y-35100
X98600Y-36100
X98600Y-37100
X98600Y-38100
X98600Y-39100
X98600Y-40100
X98600Y-41100
X98600Y-42100
X98600Y-43100
X99600Y-24100
X99600Y-25100
X99600Y-26100
X99600Y-27100
X99600Y-28100
X99600Y-29100
X99600Y-30100
X99600Y-31100
X99600Y-32100
X99600Y-33100
X99600Y-34100
X99600Y-35100
X99600Y-36100
X99600Y-37100
X99600Y-38100
X99600Y-39100
X99600Y-40100
X99600Y-41100
X99600Y-42100
X99600Y-43100
X74660Y-24920
X74660Y-25920
X93780Y-48800
X94780Y-48800
X95780Y-48800
X69980Y-19000
X69980Y-20000
T6
X77731Y-47500
X79700Y-47500
T0
M30
