<?xml version="1.0" encoding="utf-8"?>
<!-- Generator: Adobe Illustrator 16.0.3, SVG Export Plug-In . SVG Version: 6.00 Build 0)  -->
<!DOCTYPE svg PUBLIC "-//W3C//DTD SVG 1.1//EN" "http://www.w3.org/Graphics/SVG/1.1/DTD/svg11.dtd">
<svg version="1.1"
	 id="svg4774" sodipodi:docname="Konami 1980s.svg" inkscape:version="0.91 r13725" xmlns:dc="http://purl.org/dc/elements/1.1/" xmlns:cc="http://creativecommons.org/ns#" xmlns:rdf="http://www.w3.org/1999/02/22-rdf-syntax-ns#" xmlns:svg="http://www.w3.org/2000/svg" xmlns:sodipodi="http://sodipodi.sourceforge.net/DTD/sodipodi-0.dtd" xmlns:inkscape="http://www.inkscape.org/namespaces/inkscape"
	 xmlns="http://www.w3.org/2000/svg" xmlns:xlink="http://www.w3.org/1999/xlink" x="0px" y="0px" width="1000px"
	 height="223.243px" viewBox="0 0 1000 223.243" enable-background="new 0 0 1000 223.243" xml:space="preserve">
<sodipodi:namedview  units="px" id="base" inkscape:window-y="-8" inkscape:window-x="-8" inkscape:window-height="705" inkscape:window-width="1366" inkscape:current-layer="layer1" inkscape:document-units="px" inkscape:pageshadow="2" inkscape:pageopacity="0.0" inkscape:cy="46.349767" inkscape:cx="359.66662" inkscape:zoom="0.35355339" borderopacity="1.0" showguides="true" bordercolor="#666666" pagecolor="#ffffff" showgrid="false" inkscape:window-maximized="1">
	</sodipodi:namedview>
<g id="layer1" transform="translate(0,-829.11912)" inkscape:groupmode="layer" inkscape:label="Layer 1">
	
		<path id="rect5366" sodipodi:nodetypes="scccsssssssscsssssssscccsss" inkscape:connector-curvature="0" fill="#D3690D" stroke="#D3690D" stroke-miterlimit="10" d="
		M156.686,833.74c-8.139,0-11.307,6.131-15.365,10.336l-63.027,67.941c-3.949,3.911-6.404,5.651-7.539,2.923v-47.437
		c0-5.726-4.654-10.335-10.436-10.335H17.186c-5.781,0-10.436,4.61-10.436,10.335v169.505c0,5.727,4.654,10.336,10.436,10.336
		h43.134c5.782,0,10.436-4.609,10.436-10.336v-47.242c1.461-1.646,4.142-1.975,9.256,3.09
		c11.078,10.973,56.076,58.004,109.302,58.004s60.238-38.414,60.238-50.66v-73.486c0-4.17-3.388-7.531-7.599-7.531h-40.459
		c-4.21,0-7.598,3.361-7.598,7.531v59.932c0,2.943,0.408,17.105-20.056,5.404l-46.966-34.92c-5.267-5.219-6.916-8.139,0-14.988
		l94.633-98.065c5.525-5.726,3.54-10.336-4.457-10.336H156.686z"/>
	
		<path id="rect5372" sodipodi:nodetypes="ccssssssssssssscccsssscccccc" inkscape:connector-curvature="0" fill="#D3690D" stroke="#D3690D" stroke-miterlimit="10" d="
		M794.094,917.287c-19.304,0-41.03,16.134-41.03,16.134c-0.085-3.879-1.938-14.239-8.114-14.239h-36.303
		c-3.917,0-7.071,3.124-7.071,7.003v114.844c0,3.881,3.154,7.004,7.071,7.004h38.563c3.917,0,7.071-3.123,7.071-7.004v-66.293
		c0-11.287,8.89-17.838,17.85-17.049c7.185,0.633,16.283,4.432,16.283,17.049v66.293c0,3.881,3.154,7.004,7.071,7.004h36.841
		c3.917,0,7.072-3.123,7.072-7.004l-0.011-63.848c0-10.676,8.668-20.098,18.186-19.494c7.186,0.633,16.284,4.432,16.284,17.049
		v66.293c0,3.881,3.154,7.004,7.071,7.004h38.563c3.917,0,7.071-3.123,7.071-7.004l-0.01-63.848
		c0-46.367-26.578-58.778-47.02-59.895c-25.694,0-46.409,18.525-48.314,20.279c-9.602-14.592-24.528-19.59-37.133-20.279H794.094z"
		/>
	<path id="rect5376" inkscape:connector-curvature="0" fill="#D3690D" stroke="#D3690D" stroke-miterlimit="10" d="M939.621,919.182
		c-3.918,0-7.071,3.124-7.071,7.003v114.844c0,3.881,3.153,7.004,7.071,7.004h38.563c3.917,0,7.071-3.123,7.071-7.004V926.186
		c0-3.879-3.154-7.003-7.071-7.003H939.621L939.621,919.182z"/>
	<path id="path5378" inkscape:connector-curvature="0" fill="#D3690D" stroke="#D3690D" stroke-miterlimit="10" d="M959.802,855.995
		c-18.475-0.001-33.452,14.832-33.453,33.13c0,0.001,0,0.002,0,0.003c0.001,18.298,14.979,33.129,33.453,33.128
		c18.473-0.001,33.446-14.833,33.448-33.128C993.251,870.831,978.276,855.997,959.802,855.995z"/>
	
		<path id="path5390" sodipodi:nodetypes="ccsssssssssssssccc" inkscape:connector-curvature="0" fill="#D3690D" stroke="#D3690D" stroke-miterlimit="10" d="
		M502.021,917.287c-19.304,0-41.031,16.134-41.031,16.134c-0.083-3.879-1.936-14.239-8.114-14.239h-36.302
		c-3.916,0-7.071,3.124-7.071,7.003v114.844c0,3.881,3.155,7.004,7.071,7.004h38.563c3.917,0,7.071-3.123,7.071-7.004v-66.293
		c0-11.287,8.889-17.838,17.85-17.049c7.185,0.633,16.284,4.432,16.284,17.049v66.293c0,3.881,3.154,7.004,7.071,7.004h38.563
		c3.917,0,7.071-3.123,7.071-7.004l-0.006-63.848C549.04,930.815,522.462,918.404,502.021,917.287L502.021,917.287z"/>
	
		<path id="path5395" sodipodi:nodetypes="sssssszcsscsssssszzzz" inkscape:connector-curvature="0" fill="#D3690D" stroke="#D3690D" stroke-miterlimit="10" d="
		M624.412,912.981c-35.804,0-57.629,20.129-61.016,32.648c-3.388,12.52-2.598,17.373,7.12,17.373h30.339
		c3.106,0,5.595-1.293,7.115-6.912c1.344-4.971,5.554-11.092,16.419-11.092c3.229,0,13.9-0.266,14.839,9.885
		c0.938,10.152-27.624,13.205-32.617,14.229c-30.149,6.141-50.704,21.715-50.704,40.465c0,24.236,15.485,41.396,42.52,41.396
		c27.033,0,27.141-4.219,43.921-13.814c2.181,8.063,1.657,12.426,13.213,12.426h30.753c4.105,0,7.452,0.488,7.452-6.691
		s-0.59-12.389-1.436-15.514c-1.631-6.029-1.587-59.523-1.587-67.227C690.743,926.394,660.215,912.98,624.412,912.981
		L624.412,912.981z M639.147,997.135c-1.666,12.129-4.116,15.557-14.179,20.555c-10.062,4.996-24.179-5.258-17.99-13.676
		S640.814,985.006,639.147,997.135L639.147,997.135z"/>
	<path id="path5398" inkscape:connector-curvature="0" fill="#D3690D" stroke="#D3690D" stroke-miterlimit="10" d="M331.596,915.926
		c-40.209,0.001-72.804,30.43-72.805,67.967c0,37.537,32.596,67.967,72.805,67.969c40.209-0.002,72.804-30.432,72.804-67.969
		S371.805,915.927,331.596,915.926L331.596,915.926z M331.596,949.452c12.835,0,18.202,15.42,18.203,34.441
		c0,19.023-5.193,34.441-18.203,34.441s-18.202-15.418-18.203-34.441C313.394,964.872,318.761,949.452,331.596,949.452z"/>
</g>
</svg>
